<?xml version="1.0" standalone="no"?>
<!DOCTYPE svg PUBLIC "-//W3C//DTD SVG 20010904//EN"
 "http://www.w3.org/TR/2001/REC-SVG-20010904/DTD/svg10.dtd">
<svg version="1.0" xmlns="http://www.w3.org/2000/svg"
 width="1000.000000pt" height="998.000000pt" viewBox="0 0 1000.000000 998.000000"
 preserveAspectRatio="xMidYMid meet">
<metadata>
Created by potrace 1.16, written by Peter Selinger 2001-2019
</metadata>
<g transform="translate(0.000000,998.000000) scale(0.100000,-0.100000)"
fill="#ff0000" stroke="none">
<path d="M4590 9970 c0 -6 -35 -10 -84 -10 -47 0 -88 -4 -91 -10 -3 -5 -44
-10 -90 -10 -46 0 -87 -4 -90 -10 -3 -5 -17 -10 -30 -10 -13 0 -27 -4 -30 -10
-3 -5 -30 -10 -60 -10 -30 0 -57 -4 -60 -10 -3 -5 -21 -10 -40 -10 -19 0 -37
-4 -40 -10 -3 -5 -17 -10 -30 -10 -13 0 -27 -4 -30 -10 -3 -5 -17 -10 -30 -10
-13 0 -27 -4 -30 -10 -3 -5 -30 -10 -60 -10 -30 0 -57 -4 -60 -10 -3 -5 -30
-10 -59 -10 -40 0 -57 -5 -71 -20 -10 -11 -28 -20 -41 -20 -13 0 -26 -4 -29
-10 -3 -5 -26 -10 -50 -10 -24 0 -47 -4 -50 -10 -3 -5 -16 -10 -29 -10 -12 0
-35 -13 -51 -30 -26 -27 -35 -30 -91 -30 -35 0 -66 -4 -69 -10 -3 -5 -16 -10
-29 -10 -12 0 -35 -13 -51 -30 -16 -16 -37 -30 -47 -30 -9 0 -33 -9 -53 -20
-20 -11 -48 -20 -64 -20 -17 0 -37 -10 -52 -26 -13 -14 -42 -34 -65 -44 -22
-11 -47 -26 -54 -35 -7 -9 -29 -15 -54 -15 -36 0 -48 -6 -81 -40 -33 -34 -45
-40 -80 -40 -32 0 -47 -6 -68 -28 -15 -15 -27 -32 -27 -38 0 -5 -26 -21 -59
-36 -32 -15 -64 -34 -71 -43 -7 -8 -22 -15 -34 -15 -23 0 -156 -126 -156 -148
0 -7 -14 -12 -36 -12 -26 0 -37 -5 -41 -17 -2 -10 -28 -29 -56 -42 -29 -13
-65 -36 -82 -51 -16 -14 -43 -32 -60 -40 -36 -17 -165 -139 -165 -157 0 -7 -6
-13 -13 -13 -15 0 -207 -191 -207 -207 0 -6 -9 -13 -20 -16 -11 -3 -20 -12
-20 -20 0 -8 -9 -17 -20 -20 -14 -3 -20 -14 -20 -31 0 -20 -5 -26 -23 -26 -29
0 -287 -259 -311 -312 -9 -20 -29 -43 -43 -50 -15 -7 -33 -23 -39 -36 -6 -13
-22 -35 -35 -50 -35 -40 -49 -68 -49 -101 0 -20 -6 -30 -20 -34 -14 -3 -20
-14 -20 -31 0 -15 -6 -26 -13 -26 -20 0 -67 -54 -67 -76 0 -12 -9 -29 -20 -39
-11 -10 -20 -28 -20 -40 0 -14 -8 -25 -20 -28 -13 -3 -20 -14 -20 -30 0 -16
-7 -26 -20 -30 -14 -3 -20 -14 -20 -31 0 -21 -5 -26 -23 -26 -13 0 -32 9 -42
20 -27 30 -35 25 -35 -21 0 -32 4 -42 20 -46 21 -6 27 -28 10 -38 -6 -3 -10
-21 -10 -39 0 -20 -8 -40 -20 -51 -11 -10 -20 -30 -20 -45 0 -36 -21 -78 -42
-84 -13 -3 -18 -14 -18 -38 0 -25 -8 -42 -30 -63 -22 -21 -30 -38 -30 -64 0
-54 -40 -129 -70 -133 -18 -2 -26 -10 -28 -28 -2 -14 -8 -29 -13 -34 -5 -6 -9
-38 -9 -72 0 -35 -5 -66 -10 -69 -5 -3 -10 -25 -10 -49 0 -34 -6 -48 -30 -71
-16 -16 -30 -39 -30 -51 0 -13 -5 -26 -10 -29 -6 -3 -10 -28 -10 -55 0 -31 -8
-63 -20 -85 -11 -20 -20 -44 -20 -55 0 -10 -4 -22 -10 -25 -5 -3 -10 -26 -10
-50 0 -24 -4 -47 -10 -50 -5 -3 -10 -34 -10 -69 0 -50 -4 -67 -20 -81 -11 -10
-20 -28 -20 -41 0 -13 -5 -26 -10 -29 -6 -3 -10 -19 -10 -35 0 -16 -9 -45 -20
-64 -11 -21 -15 -38 -10 -41 13 -8 13 -152 0 -160 -6 -3 -10 -17 -10 -31 0
-13 -6 -24 -13 -24 -11 0 -13 -25 -9 -127 2 -71 8 -132 13 -137 16 -17 10
-160 -7 -195 -14 -28 -15 -72 -10 -353 3 -203 9 -325 16 -332 5 -5 10 -49 10
-98 0 -69 4 -95 20 -123 16 -29 20 -54 20 -134 0 -85 3 -100 20 -116 16 -14
20 -31 20 -81 0 -35 5 -66 10 -69 6 -3 10 -17 10 -30 0 -13 5 -27 10 -30 6 -3
10 -17 10 -30 0 -13 4 -27 10 -30 5 -3 10 -17 10 -30 0 -13 5 -27 10 -30 5 -3
10 -25 10 -49 0 -30 6 -48 20 -61 16 -14 20 -31 20 -80 0 -49 4 -66 20 -80 11
-10 20 -28 20 -41 0 -13 4 -26 10 -29 5 -3 10 -17 10 -29 0 -13 7 -29 15 -36
19 -16 45 -68 45 -90 0 -9 9 -25 20 -35 11 -10 20 -23 20 -30 0 -7 9 -20 20
-30 15 -14 20 -31 20 -70 0 -35 5 -57 15 -65 8 -7 29 -40 45 -74 16 -34 38
-71 50 -81 30 -28 50 -73 50 -117 0 -31 4 -41 20 -45 13 -4 20 -14 20 -30 0
-16 7 -27 20 -30 11 -3 20 -13 20 -22 0 -28 51 -121 66 -121 8 0 14 -10 14
-25 0 -18 7 -28 25 -35 14 -5 28 -18 32 -27 3 -10 13 -26 21 -36 8 -9 20 -27
26 -40 6 -12 20 -26 31 -31 11 -5 31 -32 44 -60 13 -28 40 -67 59 -88 19 -20
39 -47 46 -60 6 -12 21 -27 33 -32 11 -6 27 -25 34 -43 7 -19 25 -39 39 -46
15 -7 26 -22 28 -37 4 -27 48 -80 67 -80 19 0 58 -47 46 -55 -18 -10 -13 -25
9 -25 13 0 20 -7 20 -20 0 -13 7 -20 18 -20 22 0 62 -40 62 -62 0 -9 10 -18
22 -20 12 -2 29 -16 38 -33 9 -16 26 -35 38 -41 12 -6 30 -18 39 -26 10 -8 25
-18 34 -21 17 -6 49 -60 49 -84 0 -7 8 -13 18 -13 24 0 42 -19 42 -45 0 -22
48 -75 68 -75 7 0 12 -6 12 -13 0 -20 54 -67 77 -67 11 0 26 -7 33 -15 7 -9
32 -24 54 -35 23 -10 61 -39 86 -64 24 -25 50 -46 57 -46 7 0 13 -6 13 -13 0
-19 33 -47 53 -47 35 0 95 -43 108 -78 5 -14 17 -22 32 -22 14 0 39 -16 62
-40 21 -22 46 -40 55 -40 24 0 70 -24 70 -36 0 -18 35 -44 58 -44 11 0 24 -5
27 -10 3 -6 16 -10 29 -10 12 0 35 -14 51 -30 16 -17 37 -30 47 -30 9 0 33 -9
53 -20 20 -11 48 -20 64 -20 15 0 36 -9 46 -20 10 -11 28 -20 40 -20 12 0 30
-9 40 -20 10 -11 28 -20 40 -20 12 0 30 -9 40 -20 10 -11 28 -20 41 -20 13 0
26 -5 29 -10 3 -6 16 -10 29 -10 13 0 31 -9 41 -20 13 -14 31 -20 61 -20 24 0
46 -4 49 -10 3 -5 14 -10 25 -10 10 0 44 -13 75 -30 31 -16 65 -30 74 -30 10
0 26 -9 36 -20 10 -11 31 -20 46 -20 16 0 44 -9 64 -20 38 -21 90 -27 100 -10
8 13 52 13 60 0 3 -6 30 -10 60 -10 30 0 57 -4 60 -10 3 -5 26 -10 50 -10 24
0 47 -4 50 -10 3 -5 17 -10 30 -10 13 0 27 -4 30 -10 3 -5 26 -10 50 -10 24 0
47 -4 50 -10 3 -5 35 -10 70 -10 35 0 67 -4 70 -10 3 -5 44 -10 90 -10 46 0
87 -4 90 -10 3 -5 43 -10 89 -10 45 0 86 -4 92 -10 14 -14 723 -15 737 -1 6 6
44 11 83 11 40 0 76 5 79 10 4 6 85 10 209 10 190 0 204 1 221 20 13 14 31 20
61 20 24 0 46 5 49 10 3 6 25 10 49 10 30 0 48 6 61 20 14 16 31 20 80 20 49
0 66 4 80 20 13 14 31 20 61 20 24 0 46 5 49 10 3 6 17 10 30 10 13 0 27 4 30
10 3 5 19 10 35 10 16 0 45 9 65 20 20 11 53 20 75 20 21 0 42 4 45 10 3 5 26
10 50 10 24 0 47 4 50 10 3 5 16 10 29 10 12 0 35 13 50 29 16 17 40 31 55 33
20 2 27 9 29 31 3 26 5 27 67 27 35 0 67 5 70 10 3 6 17 10 29 10 13 0 29 7
36 15 7 9 32 25 55 35 23 10 48 26 55 35 7 8 20 15 29 15 22 0 116 47 131 65
7 8 22 15 34 15 12 0 39 18 61 40 21 22 44 40 49 40 15 0 66 52 66 67 0 9 14
13 43 13 31 0 49 6 62 20 10 11 28 20 40 20 12 0 30 9 40 20 10 11 24 20 31
20 7 0 19 12 26 28 8 17 22 28 39 30 14 2 43 21 65 43 21 21 47 39 59 39 12 0
55 35 110 90 61 61 97 90 113 90 15 0 26 8 32 25 5 14 20 29 32 34 13 5 32 18
42 30 11 12 36 29 55 38 51 23 91 63 91 90 0 13 6 23 13 23 7 0 26 13 42 30
16 16 35 30 42 30 7 0 18 11 23 24 5 13 13 27 19 30 13 8 41 65 41 83 0 28 54
103 75 103 6 0 37 27 70 60 33 33 65 60 72 60 8 0 17 10 22 23 5 12 21 33 35
46 14 14 26 35 26 48 0 14 6 23 15 23 9 0 19 10 24 23 5 12 25 38 45 56 20 19
36 44 36 56 0 11 18 39 40 60 34 33 40 45 40 80 0 35 6 47 46 85 25 25 54 63
64 86 11 22 26 47 35 54 8 7 15 23 15 36 0 15 6 24 15 24 9 0 19 10 24 22 5
13 21 34 35 47 14 14 26 34 26 47 0 12 7 27 15 34 26 22 45 72 45 120 0 41 5
51 40 85 33 32 40 46 40 77 0 20 9 53 20 73 11 20 20 44 20 54 0 10 9 26 20
36 11 10 20 23 20 30 0 7 9 20 20 30 16 14 20 31 20 80 0 55 3 64 30 90 21 20
30 38 30 61 0 18 5 36 10 39 6 3 10 28 10 55 0 31 8 63 20 85 11 20 20 49 20
65 0 16 5 32 10 35 6 3 10 17 10 30 0 13 5 27 10 30 5 3 10 21 10 40 0 19 5
37 10 40 6 3 10 17 10 30 0 13 5 27 10 30 6 4 10 55 10 120 0 65 4 116 10 120
5 3 10 26 10 50 0 24 5 47 10 50 6 3 10 17 10 30 0 13 5 27 10 30 6 3 10 52
10 110 0 58 4 107 10 110 6 4 10 178 10 490 0 312 -4 486 -10 490 -5 3 -10 39
-10 80 0 41 -4 77 -10 80 -5 3 -10 17 -10 30 0 13 -4 27 -10 30 -5 3 -10 17
-10 30 0 13 -4 27 -10 30 -5 3 -10 26 -10 50 0 24 -4 47 -10 50 -5 3 -10 21
-10 40 0 19 -4 37 -10 40 -6 4 -10 55 -10 120 0 65 -4 116 -10 120 -5 3 -10
17 -10 30 0 13 -4 27 -10 30 -5 3 -10 15 -10 25 0 11 -9 35 -20 55 -15 26 -20
54 -20 105 0 38 -4 72 -10 75 -5 3 -10 17 -10 30 0 13 -4 27 -10 30 -5 3 -10
15 -10 25 0 11 -9 35 -20 55 -11 20 -20 49 -20 66 0 22 -6 32 -24 39 -25 9
-56 60 -56 91 0 10 -4 21 -10 24 -5 3 -10 21 -10 40 0 19 -4 37 -10 40 -5 3
-10 17 -10 30 0 13 -4 27 -10 30 -5 3 -10 18 -10 32 0 16 -7 27 -20 30 -13 3
-20 14 -20 29 0 12 -4 26 -10 29 -5 3 -10 16 -10 29 0 12 -13 35 -30 51 -16
16 -30 39 -30 51 0 12 -7 27 -15 34 -9 7 -25 33 -36 57 -11 23 -26 43 -34 43
-10 0 -15 11 -15 33 0 21 -8 41 -20 52 -11 10 -20 28 -20 40 0 12 -9 30 -20
40 -11 10 -20 29 -20 42 0 16 -7 27 -20 30 -11 3 -20 11 -20 18 0 6 -9 20 -20
30 -11 10 -20 28 -20 40 0 12 -9 30 -20 40 -11 10 -20 28 -20 39 0 13 -23 44
-56 76 -30 30 -62 71 -71 90 -18 40 -121 150 -140 150 -8 0 -13 14 -13 40 0
33 -3 40 -20 40 -17 0 -20 7 -20 40 0 26 -4 40 -13 40 -7 0 -25 6 -40 13 -20
9 -27 19 -27 40 0 25 -3 27 -40 27 -26 0 -40 5 -40 13 0 7 -36 48 -80 92 -62
61 -80 86 -80 107 0 17 -5 28 -13 28 -22 0 -72 28 -93 51 -10 12 -29 25 -42
30 -12 5 -25 17 -29 26 -10 31 -35 53 -58 53 -27 0 -45 18 -45 45 0 27 -29 55
-56 55 -11 0 -33 14 -49 30 -16 17 -38 30 -50 30 -29 0 -45 19 -45 52 0 24 -4
28 -28 28 -19 0 -40 12 -67 40 -21 22 -49 40 -60 40 -12 0 -32 11 -45 25 -25
26 -74 55 -95 55 -21 0 -70 29 -95 55 -13 14 -29 25 -37 25 -7 0 -13 6 -13 14
0 15 -93 66 -120 66 -9 0 -34 18 -55 40 -21 22 -46 40 -55 40 -27 0 -69 24
-74 42 -2 11 -14 18 -29 18 -14 0 -29 5 -32 10 -3 6 -16 10 -29 10 -13 0 -31
9 -41 20 -10 11 -28 20 -40 20 -12 0 -30 9 -40 20 -10 11 -28 20 -41 20 -13 0
-26 5 -29 10 -3 6 -17 10 -30 10 -13 0 -27 5 -30 10 -3 6 -16 10 -29 10 -13 0
-31 9 -41 20 -13 14 -31 20 -60 20 -29 0 -47 6 -60 20 -10 11 -28 20 -41 20
-13 0 -26 5 -29 10 -3 6 -17 10 -30 10 -13 0 -27 5 -30 10 -3 6 -19 10 -34 10
-35 0 -80 22 -111 55 -22 24 -29 25 -126 25 -58 0 -106 4 -109 10 -3 6 -16 10
-29 10 -13 0 -31 9 -41 20 -13 14 -31 20 -61 20 -24 0 -46 5 -49 10 -3 6 -19
10 -35 10 -16 0 -45 9 -65 20 -20 11 -44 20 -53 20 -10 0 -24 6 -30 12 -10 10
-17 10 -32 0 -24 -14 -156 -16 -165 -2 -3 6 -17 10 -31 10 -13 0 -24 5 -24 10
0 7 -182 10 -525 10 -343 0 -525 -3 -525 -10z m823 -280 c4 -15 14 -20 36 -20
17 0 46 -9 66 -20 26 -15 54 -20 104 -20 60 0 69 -2 74 -20 5 -18 14 -20 116
-20 92 0 116 -3 146 -20 20 -11 53 -20 74 -20 25 0 44 -7 56 -20 14 -15 31
-20 70 -20 39 0 56 -5 70 -20 14 -16 31 -20 76 -20 40 0 70 -6 94 -20 22 -12
54 -20 84 -20 40 0 50 -3 54 -20 5 -18 14 -20 81 -20 63 0 76 -3 76 -16 0 -9
9 -18 19 -21 11 -3 21 -13 24 -24 4 -14 14 -19 40 -19 26 0 36 -5 40 -20 4
-15 14 -20 40 -20 26 0 36 -5 40 -20 4 -17 14 -20 60 -20 46 0 55 -3 60 -20 4
-14 14 -20 33 -20 38 0 122 -41 127 -62 4 -13 15 -18 39 -18 35 0 68 -26 81
-62 4 -12 17 -18 40 -18 21 0 41 -8 52 -20 10 -11 28 -20 40 -20 14 0 25 -8
28 -20 3 -11 12 -20 20 -20 8 0 17 -9 20 -20 4 -15 14 -20 40 -20 26 0 36 -5
40 -20 4 -15 14 -20 40 -20 26 0 36 -5 40 -20 4 -15 14 -20 40 -20 26 0 36 -5
40 -20 3 -11 12 -20 20 -20 8 0 17 -9 20 -20 4 -15 14 -20 40 -20 26 0 36 -5
40 -20 4 -15 14 -20 41 -20 31 0 36 -3 36 -24 0 -13 7 -30 16 -37 9 -7 20 -23
25 -36 5 -13 15 -23 24 -23 8 0 15 -7 15 -16 0 -9 9 -18 20 -21 11 -3 20 -12
20 -20 0 -8 9 -17 20 -20 11 -3 20 -12 20 -20 0 -8 9 -17 20 -20 11 -3 20 -12
20 -20 0 -8 9 -17 19 -20 11 -3 21 -13 24 -24 4 -14 14 -19 41 -19 31 0 36 -3
36 -24 0 -13 7 -30 16 -37 9 -7 20 -23 25 -36 5 -13 15 -23 24 -23 8 0 15 -7
15 -16 0 -9 9 -18 20 -21 11 -3 20 -12 20 -20 0 -8 9 -17 19 -20 11 -3 21 -13
24 -24 3 -12 14 -19 30 -19 29 0 44 -15 49 -50 2 -18 10 -26 28 -28 28 -3 50
-40 50 -85 0 -20 6 -30 20 -34 11 -3 20 -12 20 -20 0 -8 9 -17 20 -20 11 -3
20 -12 20 -20 0 -8 9 -17 20 -20 15 -4 20 -14 20 -40 0 -26 5 -36 20 -40 11
-3 20 -12 20 -20 0 -8 9 -17 20 -20 11 -3 20 -12 20 -20 0 -8 9 -17 20 -20 11
-3 20 -12 20 -20 0 -8 9 -17 20 -20 15 -4 20 -14 20 -40 0 -26 5 -36 20 -40
15 -4 20 -14 20 -40 0 -26 5 -36 20 -40 15 -4 20 -14 20 -40 0 -26 5 -36 20
-40 11 -3 20 -11 20 -18 0 -6 9 -20 20 -30 11 -10 20 -29 20 -42 0 -16 7 -27
19 -30 11 -3 21 -13 24 -24 3 -10 12 -19 21 -19 12 0 16 -10 16 -36 0 -27 5
-37 20 -41 17 -5 20 -14 20 -66 0 -67 17 -97 57 -97 20 0 23 -5 23 -36 0 -27
5 -37 20 -41 15 -4 20 -14 20 -40 0 -26 5 -36 20 -40 15 -4 20 -14 20 -38 0
-19 8 -39 20 -50 14 -13 20 -31 20 -60 0 -29 6 -47 20 -60 16 -15 20 -31 20
-90 0 -59 4 -75 20 -90 13 -11 20 -31 20 -52 0 -26 5 -36 20 -40 15 -4 20 -14
20 -40 0 -26 5 -36 20 -40 15 -4 20 -14 20 -40 0 -26 5 -36 20 -40 19 -5 20
-14 20 -120 0 -106 1 -115 20 -120 14 -4 20 -14 20 -34 0 -16 9 -44 20 -64 16
-28 20 -54 20 -120 0 -66 4 -92 20 -120 22 -39 26 -70 10 -80 -5 -3 -10 -17
-10 -30 0 -13 5 -27 10 -30 14 -9 14 -532 -1 -541 -8 -4 -8 -9 0 -17 6 -6 11
-50 11 -103 0 -83 -2 -92 -20 -97 -19 -5 -20 -14 -20 -280 0 -266 -1 -275 -20
-280 -18 -5 -20 -14 -20 -100 0 -86 -2 -95 -20 -100 -19 -5 -20 -14 -20 -130
0 -80 -4 -128 -11 -133 -8 -4 -8 -9 0 -17 17 -17 13 -34 -9 -40 -15 -4 -20
-14 -20 -40 0 -26 -5 -36 -20 -40 -17 -4 -20 -14 -20 -60 0 -46 -3 -55 -20
-60 -15 -4 -20 -14 -20 -40 0 -26 -5 -36 -20 -40 -15 -4 -20 -14 -20 -40 0
-26 -5 -36 -20 -40 -13 -3 -20 -14 -20 -30 0 -13 -9 -32 -20 -42 -11 -10 -20
-28 -20 -40 0 -14 -8 -25 -20 -28 -16 -4 -20 -14 -20 -50 0 -36 -4 -46 -20
-50 -16 -4 -20 -14 -20 -45 0 -50 -25 -101 -56 -112 -19 -8 -24 -17 -24 -45 0
-25 -4 -35 -16 -35 -9 0 -18 -9 -21 -19 -3 -11 -13 -21 -24 -24 -16 -4 -19
-14 -19 -60 0 -46 -3 -55 -20 -60 -15 -4 -20 -14 -20 -41 0 -26 -4 -36 -16
-36 -9 0 -18 -9 -21 -19 -3 -11 -13 -21 -24 -24 -12 -3 -19 -14 -19 -30 0 -13
-9 -32 -20 -42 -11 -10 -20 -26 -20 -35 0 -25 -26 -73 -55 -100 -14 -13 -25
-33 -25 -45 0 -22 -32 -58 -62 -68 -13 -4 -18 -17 -18 -41 0 -25 -5 -35 -20
-39 -11 -3 -20 -12 -20 -20 0 -8 -9 -17 -20 -20 -15 -4 -20 -14 -20 -39 0 -29
-5 -35 -40 -51 -31 -13 -40 -23 -40 -41 0 -15 -7 -26 -20 -29 -11 -3 -20 -12
-20 -20 0 -8 -9 -17 -20 -20 -13 -3 -20 -14 -20 -30 0 -16 -7 -26 -20 -30 -13
-3 -20 -14 -20 -29 0 -18 -10 -27 -40 -41 -22 -9 -40 -23 -40 -30 0 -7 -18
-20 -40 -30 -35 -15 -40 -21 -40 -51 0 -25 -5 -35 -20 -39 -11 -3 -20 -11 -20
-19 0 -7 -18 -21 -40 -31 -30 -12 -40 -23 -40 -39 0 -18 -13 -29 -60 -51 -48
-22 -60 -32 -60 -51 0 -25 -17 -34 -80 -45 -28 -5 -36 -11 -38 -31 -2 -19 -13
-30 -42 -43 -22 -9 -40 -23 -40 -31 0 -7 -9 -16 -20 -19 -11 -3 -20 -11 -20
-19 0 -7 -81 -53 -180 -101 -99 -49 -180 -95 -180 -102 0 -7 -9 -15 -20 -18
-11 -3 -20 -11 -20 -19 0 -7 -25 -24 -56 -38 -33 -15 -60 -35 -67 -50 -7 -14
-21 -26 -32 -28 -31 -5 -81 -30 -95 -47 -7 -8 -20 -15 -30 -15 -25 0 -80 -30
-80 -43 0 -19 -50 -37 -103 -37 -38 0 -50 -4 -53 -18 -6 -19 -47 -42 -78 -42
-29 0 -246 -109 -246 -123 -1 -20 -84 -55 -103 -43 -25 16 -46 -8 -29 -34 11
-18 10 -20 -22 -20 -19 0 -38 5 -41 10 -3 6 -30 10 -60 10 -30 0 -57 -4 -60
-10 -3 -5 -21 -10 -40 -10 -19 0 -37 -4 -40 -10 -3 -5 -17 -10 -30 -10 -13 0
-27 -4 -30 -10 -3 -5 -33 -10 -65 -10 -41 0 -71 -6 -95 -20 -20 -11 -49 -20
-65 -20 -16 0 -32 -4 -35 -10 -3 -5 -39 -10 -80 -10 -41 0 -77 -5 -80 -10 -3
-6 -21 -10 -40 -10 -19 0 -37 -4 -40 -10 -4 -6 -60 -10 -135 -10 -111 0 -135
-3 -165 -20 -38 -21 -90 -27 -100 -10 -8 13 -112 13 -120 0 -8 -13 -72 -13
-80 0 -4 6 -85 10 -210 10 -136 0 -206 4 -211 11 -4 8 -9 8 -17 0 -14 -14 -74
-14 -82 -1 -3 6 -21 10 -40 10 -19 0 -37 5 -40 10 -11 17 -37 11 -42 -10 -9
-36 -106 -17 -117 22 -3 14 -15 18 -55 18 -32 0 -63 7 -86 20 -26 15 -54 20
-105 20 -38 0 -72 5 -75 10 -3 6 -30 10 -60 10 -30 0 -57 5 -60 10 -3 6 -21
10 -40 10 -29 0 -34 4 -37 28 -3 26 -5 27 -75 30 -57 2 -84 9 -129 32 -31 17
-66 30 -78 30 -13 0 -67 23 -121 50 -89 45 -104 50 -166 50 l-68 0 -3 38 c-3
34 -6 37 -38 42 -46 7 -120 42 -120 57 0 13 -55 43 -80 43 -10 0 -23 7 -30 15
-18 22 -70 45 -102 45 -18 0 -28 5 -28 14 0 8 -42 35 -100 63 -55 26 -100 54
-100 61 0 6 -18 20 -40 29 -22 10 -40 23 -40 30 0 6 -36 29 -80 50 -44 21 -80
44 -80 51 0 8 -9 16 -20 19 -11 3 -20 12 -20 19 0 8 -18 22 -40 31 -22 10 -40
24 -40 31 0 8 -9 16 -20 19 -11 3 -20 12 -20 19 0 8 -18 22 -40 31 -22 10 -40
24 -40 31 0 8 -9 16 -20 19 -11 3 -20 11 -20 19 0 7 -27 26 -60 41 -33 15 -60
33 -60 39 0 6 -9 19 -20 29 -11 10 -20 27 -20 38 0 28 -28 57 -56 57 -13 0
-26 5 -29 10 -3 5 -16 10 -29 10 -13 0 -31 9 -41 20 -10 11 -24 20 -32 20 -7
0 -13 8 -13 18 0 44 -58 119 -112 146 -17 8 -24 22 -26 50 -2 28 -9 40 -23 43
-20 6 -26 28 -9 38 19 12 10 25 -18 25 -18 0 -38 11 -57 30 -16 16 -35 30 -42
30 -7 0 -13 6 -13 14 0 7 -7 19 -15 26 -9 7 -25 33 -36 57 -11 23 -25 43 -33
43 -19 0 -50 39 -80 102 -22 47 -32 58 -52 58 -19 0 -24 5 -24 24 0 14 -4 28
-10 31 -5 3 -10 22 -10 42 0 26 -5 36 -20 40 -16 4 -20 14 -20 50 0 36 -4 46
-19 50 -11 3 -21 13 -24 24 -3 10 -12 19 -21 19 -12 0 -16 10 -16 36 0 27 -5
37 -19 41 -11 3 -21 13 -24 24 -3 10 -12 19 -21 19 -13 0 -16 11 -16 56 0 47
-3 57 -20 61 -15 4 -20 14 -20 40 0 26 -5 36 -19 40 -11 3 -21 13 -24 24 -3
10 -12 19 -21 19 -13 0 -16 11 -16 56 0 47 -3 57 -20 61 -15 4 -20 14 -20 40
0 26 -5 36 -20 40 -17 4 -20 14 -20 58 0 39 -5 56 -20 70 -13 11 -20 31 -20
52 0 26 -5 36 -20 40 -13 4 -20 14 -20 30 0 16 -7 27 -20 30 -19 5 -20 14 -20
140 0 126 -1 135 -20 140 -17 5 -20 14 -20 60 0 46 -3 56 -20 60 -15 4 -20 14
-20 40 0 26 -5 36 -20 40 -19 5 -20 14 -20 140 0 126 -1 135 -20 140 -19 5
-20 14 -20 170 0 156 -1 165 -20 170 -19 5 -20 14 -20 328 0 314 1 323 20 328
19 5 20 14 20 240 0 226 1 235 20 240 18 5 20 14 20 80 0 66 2 75 20 80 19 5
20 14 20 120 0 106 1 115 20 120 18 5 20 14 20 80 0 66 2 75 20 80 18 5 20 14
20 80 0 66 2 75 20 80 15 4 20 14 20 40 0 26 5 36 20 40 15 4 20 14 20 40 0
21 7 41 20 52 11 10 20 28 20 40 0 12 9 30 20 40 14 13 20 31 20 60 0 34 4 44
20 48 13 3 20 14 20 30 0 16 7 26 20 30 16 4 20 14 20 50 0 36 4 46 20 50 17
4 20 14 20 61 0 45 3 56 16 56 9 0 18 9 21 20 3 11 12 20 20 20 8 0 17 9 20
19 3 11 13 21 24 24 16 4 19 14 19 60 0 46 3 55 20 60 15 4 20 14 20 41 0 26
4 36 16 36 9 0 18 9 21 20 3 11 12 20 20 20 8 0 17 9 20 20 3 11 12 20 19 20
8 0 18 10 23 23 5 13 16 29 25 36 9 7 16 24 16 36 0 14 7 25 20 28 15 4 20 14
20 40 0 26 5 36 20 40 13 3 20 14 20 30 0 16 7 26 20 30 14 3 20 14 20 31 0
17 5 26 16 26 9 0 18 9 21 20 3 11 12 20 20 20 8 0 17 9 20 19 3 11 13 21 24
24 14 4 19 14 19 41 0 26 4 36 16 36 9 0 18 9 21 20 3 11 12 20 20 20 8 0 17
9 20 20 3 11 12 20 20 20 8 0 17 9 20 19 4 14 15 21 42 23 33 3 36 6 39 38 3
31 8 38 42 53 31 13 40 23 40 41 0 15 7 26 20 29 13 3 20 14 20 29 0 18 10 27
40 41 22 9 40 23 40 31 0 7 9 16 20 19 15 4 20 14 20 40 0 26 5 36 20 40 11 3
20 11 20 19 0 7 27 26 60 41 33 15 60 34 60 41 0 8 9 16 20 19 11 3 20 12 20
20 0 8 9 17 20 20 11 3 20 12 20 20 0 8 9 17 20 20 13 3 20 14 20 29 0 28 38
48 91 48 21 0 42 7 50 16 7 9 23 20 36 25 13 5 23 15 23 23 0 7 9 16 20 19 11
3 20 12 20 21 0 12 10 16 36 16 27 0 37 5 41 19 3 11 13 21 24 24 14 4 19 14
19 41 l0 36 76 0 c66 0 77 2 81 19 3 11 13 21 24 24 10 3 19 12 19 21 0 12 10
16 36 16 27 0 37 5 41 19 3 11 13 21 24 24 10 3 19 12 19 21 0 13 13 16 76 16
67 0 76 2 81 20 3 11 12 20 20 20 8 0 17 9 20 20 4 16 14 20 52 20 53 0 151
43 151 66 0 9 12 14 36 14 27 0 37 5 41 20 4 15 14 20 40 20 26 0 36 5 40 20
4 14 14 20 34 20 16 0 44 9 64 20 23 13 54 20 86 20 42 0 52 3 56 20 5 18 14
20 80 20 66 0 75 2 80 20 4 17 14 20 54 20 30 0 62 8 84 20 26 15 54 20 106
20 62 0 71 2 76 20 4 17 14 20 54 20 30 0 62 8 84 20 32 18 54 20 226 20 182
0 191 1 196 20 4 15 14 20 40 20 26 0 36 5 40 20 5 19 14 20 320 20 306 0 315
1 320 20 4 15 14 20 38 20 24 0 34 -5 38 -20z"/>
<path d="M4957 9453 c-4 -3 -7 -39 -7 -79 0 -40 -4 -76 -10 -79 -5 -3 -10 -17
-10 -30 0 -13 5 -27 10 -30 6 -3 10 -52 10 -110 0 -58 -4 -107 -10 -110 -5 -3
-10 -17 -10 -30 0 -13 5 -27 10 -30 6 -3 10 -17 10 -30 0 -13 -4 -27 -10 -30
-14 -9 -13 -128 2 -143 10 -10 10 -17 0 -32 -15 -24 -16 -52 -2 -66 7 -7 4
-16 -10 -29 -25 -23 -25 -37 0 -60 14 -13 17 -22 10 -29 -5 -5 -10 -25 -10
-42 0 -18 -4 -36 -10 -39 -5 -3 -10 -21 -10 -40 0 -19 5 -37 10 -40 6 -3 10
-21 10 -40 0 -29 5 -36 35 -51 34 -16 37 -16 55 1 14 13 20 31 20 61 0 24 5
46 10 49 6 4 10 85 10 210 0 125 4 206 10 210 6 3 10 21 10 39 0 17 5 37 11
43 8 8 8 13 0 17 -15 10 -14 62 1 86 10 15 10 22 0 32 -15 15 -17 174 -2 183
6 3 10 15 10 25 0 11 9 36 21 56 18 32 19 41 8 63 -22 43 -61 81 -85 81 -13 0
-26 5 -29 10 -7 11 -48 14 -58 3z"/>
<path d="M5316 9431 c-34 -35 -36 -94 -4 -128 l22 -23 -22 -41 c-12 -22 -22
-58 -22 -78 0 -20 -6 -43 -12 -49 -10 -10 -10 -17 0 -32 15 -24 17 -236 2
-245 -5 -3 -10 -39 -10 -80 0 -41 -4 -77 -10 -80 -5 -3 -10 -43 -10 -89 0 -50
-5 -87 -12 -94 -9 -9 -9 -17 2 -36 10 -20 10 -28 1 -40 -8 -10 -9 -16 -1 -21
18 -11 11 -68 -12 -92 l-22 -24 22 -6 c21 -5 22 -10 22 -109 0 -58 -4 -106
-10 -109 -5 -3 -10 -26 -10 -50 0 -24 5 -47 10 -50 17 -10 10 -127 -9 -160
-17 -28 -22 -30 -87 -33 -38 -1 -79 -7 -91 -14 -29 -14 -41 -3 -25 22 7 11 12
28 12 38 0 20 -29 52 -48 52 -7 0 -12 12 -12 26 0 22 2 24 15 14 8 -7 22 -10
30 -6 12 4 15 24 15 89 0 52 5 88 12 95 10 10 10 17 0 32 -6 11 -12 47 -12 80
0 63 -15 85 -44 61 -10 -8 -17 -6 -31 9 -17 19 -19 19 -37 4 -10 -10 -18 -31
-18 -49 0 -17 -6 -37 -12 -43 -10 -10 -10 -17 0 -32 7 -12 8 -21 2 -25 -6 -3
-10 -30 -10 -59 0 -41 5 -57 21 -72 l20 -18 -20 -8 c-16 -5 -21 -16 -21 -42 0
-19 5 -38 10 -41 8 -5 8 -11 0 -20 -8 -10 -8 -15 0 -20 8 -5 4 -15 -11 -31
-20 -22 -31 -24 -105 -24 -76 0 -82 2 -88 22 -4 18 -8 20 -18 10 -8 -8 -44
-12 -103 -12 -52 0 -96 -5 -102 -11 -8 -8 -13 -8 -17 0 -10 15 -38 14 -74 -5
-33 -16 -40 -32 -21 -51 8 -8 8 -13 0 -17 -18 -11 -13 -26 9 -26 11 0 20 -6
20 -13 0 -8 9 -22 20 -32 17 -16 24 -16 44 -6 19 10 27 10 44 0 16 -10 23 -10
35 0 11 8 17 9 22 1 5 -8 11 -8 21 1 11 9 20 9 38 0 19 -11 28 -9 60 8 39 22
91 28 101 11 3 -5 25 -10 49 -10 23 0 47 -5 53 -11 8 -8 13 -8 17 0 4 6 36 11
71 11 35 0 67 5 70 10 3 6 21 10 40 10 19 0 37 -4 40 -10 3 -5 39 -10 80 -10
41 0 77 -4 80 -10 3 -5 21 -10 40 -10 19 0 37 -4 40 -10 3 -5 19 -10 36 -10
16 0 38 -6 49 -12 15 -10 22 -10 32 0 8 8 51 12 135 12 116 0 123 -1 123 -20
0 -21 15 -27 25 -10 3 6 21 10 39 10 17 0 37 5 43 11 8 8 13 8 18 -1 10 -17
45 18 45 46 0 13 5 26 10 29 17 10 11 25 -10 25 -11 0 -20 6 -20 13 0 7 -13
26 -29 41 -20 20 -31 41 -33 65 -3 35 -4 36 -47 39 -39 3 -48 -1 -82 -34 -22
-21 -39 -43 -39 -49 0 -17 -59 -39 -73 -26 -7 5 -46 11 -87 13 -70 3 -74 5
-91 33 -10 17 -18 41 -18 53 -1 16 -9 26 -23 30 -21 6 -21 7 7 12 20 3 31 12
33 25 2 11 7 29 12 40 5 11 10 29 12 40 2 11 16 26 31 33 15 7 27 21 27 31 0
27 24 71 38 71 8 0 16 9 19 19 3 11 14 22 26 25 16 4 18 8 8 20 -8 10 -9 16
-1 21 5 3 10 21 10 40 0 29 4 34 28 37 21 2 28 9 30 29 2 15 12 35 23 45 10 9
19 27 19 39 0 13 6 28 14 35 16 12 106 188 106 206 0 28 55 116 77 125 20 7
23 12 14 23 -8 10 -9 16 -1 21 16 10 12 37 -16 94 -19 37 -30 49 -37 42 -8 -8
-20 -2 -43 20 -27 26 -38 30 -75 27 l-44 -3 -3 -55 c-2 -30 -7 -59 -13 -64 -5
-6 -9 -18 -9 -28 0 -9 -9 -33 -20 -53 -15 -27 -20 -54 -20 -114 0 -56 -4 -82
-15 -91 -20 -17 -65 -110 -65 -135 0 -29 -23 -75 -37 -75 -7 0 -22 -20 -33
-44 -11 -25 -24 -48 -30 -51 -15 -9 -13 78 2 93 10 10 10 17 0 32 -15 24 -15
53 -1 67 8 8 8 13 0 17 -15 10 -14 89 1 104 10 10 10 17 0 32 -15 24 -16 57
-2 65 6 4 10 75 10 180 0 105 4 176 10 180 6 3 10 51 10 109 0 90 2 105 20
121 11 10 20 28 20 40 0 22 -28 55 -47 55 -5 0 -20 11 -33 25 -13 14 -36 32
-51 39 -25 13 -29 12 -53 -13z"/>
<path d="M4515 8990 c-25 -26 -28 -33 -17 -50 7 -11 12 -29 12 -39 0 -11 5
-23 10 -26 6 -3 10 -30 10 -59 0 -40 5 -57 20 -71 11 -10 20 -29 20 -42 0 -16
7 -27 20 -30 23 -6 26 -23 8 -41 -10 -10 -10 -17 0 -32 6 -11 12 -29 12 -39 0
-11 5 -23 10 -26 6 -3 10 -28 10 -56 0 -27 6 -58 12 -69 9 -15 10 -22 1 -31
-8 -8 -7 -20 8 -45 10 -19 19 -43 19 -52 0 -10 5 -23 11 -29 8 -8 8 -13 0 -17
-14 -9 -14 -53 -1 -61 6 -3 10 -21 10 -39 0 -36 25 -66 56 -66 27 0 114 90
114 117 0 12 4 24 10 28 5 3 1 20 -10 41 -23 40 -25 65 -8 82 10 10 10 17 0
32 -6 11 -12 29 -12 39 0 11 -4 23 -10 26 -5 3 -10 17 -10 30 0 13 -4 27 -10
30 -5 3 -10 21 -10 39 0 19 -7 39 -15 46 -8 7 -29 41 -45 75 -16 34 -37 68
-45 75 -8 7 -15 23 -15 36 0 12 -4 26 -10 29 -5 3 -10 17 -10 30 0 13 -4 27
-10 30 -5 3 -10 17 -10 30 0 13 -4 27 -10 30 -5 3 -10 14 -10 24 0 10 -7 32
-16 49 -20 41 -51 42 -89 2z"/>
<path d="M2675 8830 c-3 -5 -16 -10 -29 -10 -41 0 -76 -66 -46 -85 6 -3 10
-17 10 -31 0 -17 8 -27 25 -34 14 -6 32 -27 45 -54 11 -25 24 -48 30 -51 6 -3
19 -26 30 -49 11 -25 28 -46 40 -49 11 -3 24 -17 30 -31 5 -14 16 -26 25 -26
9 0 15 -9 15 -22 0 -19 -15 -30 -73 -57 -39 -19 -87 -48 -105 -65 -28 -26 -35
-29 -52 -18 -29 18 -74 15 -93 -6 -10 -11 -17 -36 -17 -60 0 -37 -3 -42 -23
-42 -29 0 -47 18 -47 45 0 12 -13 34 -30 50 -16 16 -30 34 -30 40 0 7 -9 20
-20 30 -16 14 -20 31 -20 80 0 47 -4 66 -18 78 -22 20 -73 22 -90 5 -10 -10
-17 -10 -31 -1 -10 6 -22 8 -27 3 -5 -5 -20 -10 -34 -12 -21 -2 -25 -9 -28
-42 -3 -40 17 -94 43 -116 8 -7 15 -18 15 -24 0 -7 18 -30 40 -51 22 -21 40
-44 40 -50 0 -14 62 -74 92 -89 44 -22 31 -86 -18 -86 -12 0 -26 -4 -29 -10
-3 -5 -18 -10 -32 -10 -16 0 -27 -7 -30 -20 -3 -11 -11 -20 -18 -20 -6 0 -20
-9 -30 -20 -10 -11 -24 -20 -31 -20 -7 0 -19 -13 -27 -30 -13 -26 -13 -31 0
-42 8 -7 19 -22 24 -35 6 -17 16 -23 37 -23 39 0 89 26 95 50 3 11 13 23 24
26 25 10 73 55 73 71 0 8 12 13 33 13 28 0 34 -6 55 -48 12 -26 22 -61 22 -78
0 -34 22 -85 45 -104 18 -15 20 -51 4 -67 -8 -8 -8 -13 0 -17 6 -4 11 -16 11
-26 0 -11 9 -35 20 -55 22 -39 26 -85 9 -102 -8 -8 -8 -13 0 -17 6 -4 11 -20
11 -36 0 -16 9 -45 20 -65 11 -20 20 -53 20 -75 0 -21 5 -42 10 -45 6 -3 10
-21 10 -40 0 -19 -4 -37 -10 -40 -16 -10 -12 -38 14 -89 37 -72 106 -99 106
-42 0 14 5 28 10 31 15 9 13 208 -2 223 -10 10 -10 17 0 32 7 12 8 21 2 25 -6
3 -10 35 -10 70 0 35 -4 67 -10 70 -5 3 -10 18 -10 32 0 25 0 26 20 8 11 -10
30 -23 43 -29 17 -9 23 -21 25 -59 3 -40 7 -49 28 -57 13 -5 29 -21 34 -35 5
-14 15 -25 22 -25 15 -1 78 -126 78 -154 0 -10 8 -20 18 -22 9 -3 29 -31 44
-63 15 -32 34 -64 43 -71 8 -7 15 -18 15 -24 0 -7 18 -30 40 -51 33 -32 40
-46 40 -77 0 -27 4 -38 15 -38 8 0 15 9 15 20 0 14 7 20 23 20 28 0 57 29 57
56 0 11 5 25 11 31 8 8 8 13 0 17 -6 4 -11 15 -11 25 0 22 -47 116 -65 131 -8
7 -15 22 -15 35 0 22 -28 55 -47 55 -6 0 -13 9 -16 20 -3 11 -12 20 -21 20 -9
0 -16 7 -16 15 0 9 9 15 24 15 20 0 30 11 51 54 22 46 24 57 14 74 -10 16 -10
23 0 35 8 10 9 17 1 22 -13 8 -13 132 0 140 6 3 10 17 10 30 0 13 -4 27 -10
30 -5 3 -10 21 -10 40 0 19 -4 37 -10 40 -5 3 -10 35 -10 70 0 35 -4 67 -10
70 -5 3 -10 17 -10 30 0 26 -15 41 -25 25 -12 -20 -35 -10 -35 15 0 16 6 25
15 25 9 0 20 11 25 24 13 35 30 42 30 13 0 -13 9 -32 20 -42 11 -10 20 -29 20
-42 0 -16 8 -27 25 -33 14 -5 29 -20 34 -32 5 -13 25 -39 45 -57 20 -19 36
-40 36 -47 0 -6 7 -17 15 -24 9 -7 25 -33 35 -56 11 -24 24 -45 30 -49 5 -3
23 -35 40 -70 17 -36 38 -65 46 -65 8 0 14 -10 14 -23 0 -13 9 -32 20 -42 11
-10 20 -24 20 -30 0 -7 7 -18 15 -25 17 -14 45 -67 45 -85 0 -7 7 -26 16 -43
13 -26 21 -32 49 -32 37 0 48 11 82 77 29 59 29 74 -3 104 -14 13 -34 42 -44
64 -10 22 -44 65 -74 95 -31 30 -56 59 -56 65 0 6 -16 27 -36 46 -20 18 -40
44 -45 57 -9 23 -33 29 -45 11 -4 -7 -11 -2 -18 13 -10 20 -9 24 8 31 19 7 19
8 -1 30 -11 12 -36 56 -56 98 -20 41 -48 86 -62 99 -35 33 -32 50 8 50 24 0
41 -9 64 -32 16 -18 33 -41 36 -50 4 -10 12 -18 20 -18 7 0 26 -13 42 -30 16
-16 39 -30 51 -30 13 0 26 -4 29 -10 3 -5 14 -10 24 -10 23 0 75 -26 91 -45 7
-8 22 -15 34 -15 12 0 27 -5 33 -11 8 -8 20 -8 43 2 32 14 65 64 50 74 -5 3 0
21 10 41 24 42 25 52 4 92 -16 34 -32 40 -52 20 -9 -9 -17 -8 -37 2 -18 9 -29
10 -36 3 -11 -11 -162 59 -198 91 -10 9 -31 16 -48 16 -17 0 -36 7 -43 15 -7
9 -32 25 -55 35 -23 10 -48 26 -55 35 -7 8 -22 15 -34 15 -12 0 -35 14 -51 30
-16 17 -35 30 -42 30 -7 0 -13 6 -13 13 0 8 -12 24 -26 38 -14 13 -30 34 -35
47 -5 14 -17 22 -33 22 -33 0 -54 26 -26 33 11 3 20 11 20 19 0 18 47 38 90
38 29 0 44 8 79 44 60 61 70 84 53 118 -7 15 -18 30 -23 34 -6 3 -15 17 -20
32 -7 19 -13 22 -21 14 -7 -7 -26 -12 -44 -12 -23 0 -33 5 -37 20 -8 29 -55
27 -66 -3 -5 -13 -16 -29 -25 -36 -10 -9 -16 -29 -16 -57 0 -23 -4 -46 -10
-49 -5 -3 -10 -16 -10 -28 0 -26 -46 -50 -86 -45 -28 3 -62 46 -63 79 -1 22
-28 74 -46 89 -8 7 -15 17 -15 23 0 6 -15 26 -32 44 -27 28 -31 36 -21 52 10
15 8 22 -6 35 -20 18 -116 23 -126 6z m215 -573 c0 -7 14 -26 30 -42 17 -16
30 -39 30 -51 0 -13 5 -26 10 -29 6 -3 10 -15 10 -25 0 -11 9 -35 20 -55 11
-20 20 -53 20 -74 0 -25 7 -44 20 -56 12 -11 20 -31 20 -51 0 -18 5 -36 10
-39 6 -3 10 -26 10 -51 0 -36 4 -46 21 -52 l20 -8 -20 -18 c-29 -27 -30 -140
-1 -190 11 -21 15 -38 10 -41 -13 -8 -13 -72 0 -80 6 -3 10 -31 10 -61 0 -40
-4 -54 -14 -54 -8 0 -18 5 -21 10 -3 6 -17 10 -31 10 -20 0 -24 5 -24 30 0 37
-14 63 -60 113 -21 23 -43 37 -58 37 -21 0 -22 2 -12 15 10 12 6 28 -25 90
-20 41 -43 75 -51 75 -8 0 -14 5 -14 12 0 6 -10 22 -22 35 l-21 23 24 0 c16 0
38 -14 60 -36 42 -44 88 -67 126 -62 26 3 28 7 31 52 2 36 -3 62 -23 102 -23
47 -30 54 -55 54 -16 0 -45 9 -65 20 -39 22 -129 28 -141 9 -8 -13 -79 54
-100 95 -18 37 -19 106 -1 106 7 0 35 23 62 50 39 40 56 50 82 50 26 0 36 5
42 23 5 13 16 29 25 36 9 7 16 20 16 27 0 8 10 14 25 14 14 0 25 -6 25 -13z"/>
<path d="M6990 8525 c0 -8 7 -15 15 -15 8 0 15 7 15 15 0 8 -7 15 -15 15 -8 0
-15 -7 -15 -15z"/>
<path d="M6949 8483 c-31 -39 -39 -65 -39 -123 0 -63 15 -85 44 -61 10 8 17 6
31 -9 10 -11 24 -20 30 -20 7 0 15 -9 18 -20 3 -13 14 -20 28 -20 15 0 46 -23
90 -66 36 -36 77 -71 90 -78 13 -6 25 -22 27 -34 4 -24 12 -28 28 -12 7 7 18
2 33 -14 23 -25 23 -26 7 -61 -10 -20 -27 -40 -39 -45 -12 -4 -40 -27 -62 -50
-39 -41 -81 -65 -120 -72 -13 -2 -21 -12 -23 -28 -5 -33 -40 -70 -67 -70 -12
0 -46 -26 -85 -65 -65 -66 -108 -95 -140 -95 -9 0 -25 -9 -35 -20 -11 -12 -31
-20 -51 -20 -18 0 -36 -4 -39 -10 -3 -5 -26 -10 -50 -10 -24 0 -47 -4 -50 -10
-3 -5 -21 -10 -40 -10 -19 0 -36 -4 -39 -9 -7 -10 -56 9 -56 22 0 4 -7 7 -15
7 -8 0 -15 -4 -15 -10 0 -5 -15 -10 -34 -10 -19 0 -38 -5 -41 -10 -5 -8 -12
-7 -23 2 -12 10 -16 10 -19 1 -6 -16 -89 -18 -98 -3 -3 6 -21 10 -40 10 -19 0
-37 -4 -40 -10 -3 -5 -15 -10 -26 -10 -14 0 -19 -7 -19 -28 0 -36 46 -82 83
-82 14 0 42 -9 62 -20 30 -17 54 -20 165 -20 75 0 131 4 135 10 3 6 21 10 38
11 39 1 88 28 103 58 11 22 11 22 17 2 8 -30 54 -27 122 9 31 17 63 30 71 30
8 0 14 9 14 20 0 15 7 20 24 20 14 0 28 5 31 10 3 6 14 10 24 10 19 0 100 39
126 60 8 7 15 23 15 36 0 21 5 24 33 24 21 0 41 8 52 20 10 11 24 20 32 20 15
0 18 -26 3 -35 -5 -3 -10 -17 -10 -30 0 -13 -4 -27 -10 -30 -5 -3 -10 -30 -10
-60 0 -30 -4 -57 -10 -60 -5 -3 -10 -22 -10 -41 0 -27 -4 -34 -20 -34 -17 0
-20 -7 -20 -45 0 -26 -8 -59 -20 -80 -22 -39 -27 -124 -9 -142 8 -8 8 -13 0
-17 -6 -4 -11 -18 -11 -32 0 -13 -4 -24 -10 -24 -21 0 -9 -30 13 -31 l22 0
-22 -9 c-15 -6 -23 -18 -23 -34 0 -14 -4 -28 -10 -31 -15 -9 -13 -201 3 -226
10 -17 10 -23 0 -26 -19 -7 -16 -33 4 -33 9 0 27 -10 40 -22 20 -19 27 -20 43
-10 24 15 57 16 65 2 3 -5 24 -10 46 -10 32 0 39 3 39 19 0 11 5 23 10 26 6 3
10 28 10 54 0 49 -19 99 -45 121 -8 7 -15 23 -15 36 0 12 -4 26 -10 29 -6 3
-10 48 -10 100 0 52 -4 97 -10 100 -17 10 -11 62 10 100 23 40 26 85 8 103
-10 10 -10 17 0 32 6 11 12 30 12 43 0 14 18 59 40 102 22 43 40 86 40 96 0
10 5 21 10 24 6 3 10 23 10 44 0 40 21 91 45 111 8 7 15 20 15 28 0 35 45 109
73 122 27 12 31 10 71 -29 23 -22 46 -41 52 -41 14 0 134 -123 134 -138 0 -7
18 -20 40 -29 22 -10 40 -23 40 -29 0 -6 9 -19 20 -29 11 -10 20 -23 20 -30 0
-6 13 -23 28 -38 20 -19 39 -27 65 -27 21 0 46 -5 57 -12 15 -10 23 -9 39 6
15 14 18 22 10 32 -7 8 -7 14 1 19 5 3 10 21 10 39 0 17 6 38 12 44 10 10 10
17 0 32 -6 11 -12 30 -12 43 0 13 -7 38 -16 55 -14 28 -20 32 -58 32 -30 0
-48 -6 -61 -20 -13 -14 -22 -17 -29 -10 -5 5 -20 10 -31 10 -12 0 -34 14 -50
30 -16 17 -34 30 -41 30 -6 0 -14 9 -17 20 -3 11 -12 20 -21 20 -9 0 -16 6
-16 13 0 18 -48 61 -85 77 -43 18 -59 54 -34 76 11 10 19 30 19 49 0 21 9 39
26 56 14 13 30 34 35 47 5 12 20 27 34 32 14 5 25 16 25 23 0 16 37 51 63 60
9 4 17 13 17 21 0 7 9 16 20 19 15 4 20 14 20 40 0 20 -4 39 -10 42 -5 3 -10
21 -10 39 0 39 -26 66 -62 66 -34 0 -88 -28 -88 -46 0 -8 -6 -14 -13 -14 -18
0 -47 -32 -47 -52 0 -20 -27 -73 -45 -88 -8 -7 -15 -17 -15 -23 0 -15 -81 -97
-95 -97 -16 0 -65 -53 -65 -70 0 -8 -20 6 -45 30 -25 24 -45 50 -45 57 0 7
-19 21 -42 32 -24 11 -54 31 -67 45 -14 14 -30 26 -38 26 -7 0 -13 7 -13 15 0
9 -11 20 -25 25 -14 5 -30 21 -35 35 -5 14 -15 25 -23 25 -7 0 -35 23 -62 50
-54 55 -65 59 -86 33z"/>
<path d="M1247 6942 c-9 -10 -17 -29 -17 -42 0 -19 -3 -21 -12 -12 -7 7 -26
12 -43 12 -17 0 -36 5 -42 11 -8 8 -16 1 -28 -26 -13 -27 -15 -39 -6 -48 6 -6
11 -22 11 -35 0 -15 7 -26 20 -29 14 -4 20 -14 20 -34 0 -16 5 -38 12 -49 10
-16 9 -23 -10 -43 -24 -26 -28 -57 -10 -75 9 -9 9 -12 -3 -12 -25 0 -49 -34
-49 -68 0 -17 -4 -34 -10 -37 -5 -3 -10 -29 -10 -57 0 -39 -5 -57 -22 -75
l-22 -23 -23 22 c-20 19 -27 20 -43 10 -17 -10 -20 -10 -20 3 0 8 -18 23 -40
32 -22 10 -40 23 -40 30 0 38 -64 16 -118 -40 -41 -43 -41 -80 -1 -85 15 -2
35 -12 45 -23 10 -11 30 -19 50 -19 18 0 36 -4 39 -10 3 -5 30 -10 58 -10 49
0 53 -2 66 -31 12 -27 11 -33 -5 -52 -31 -36 -44 -65 -44 -96 0 -17 -4 -33
-10 -36 -5 -3 -10 -17 -10 -30 0 -13 -4 -27 -10 -30 -5 -3 -10 -15 -10 -25 0
-11 -9 -36 -21 -57 -16 -28 -19 -41 -11 -54 9 -13 7 -18 -9 -22 -13 -4 -19
-14 -19 -36 0 -17 -9 -46 -20 -66 -11 -20 -20 -44 -20 -55 0 -10 -4 -22 -10
-25 -20 -12 -9 -34 25 -51 35 -16 37 -16 59 5 12 11 27 21 33 21 22 0 43 38
43 79 0 34 -4 44 -20 48 -11 3 -20 11 -20 18 0 7 9 15 20 18 13 3 20 14 20 30
0 16 7 26 20 30 29 8 28 82 -2 114 l-21 23 27 0 c30 0 44 23 27 44 -8 10 -8
16 3 25 10 8 16 9 21 1 3 -6 10 -8 15 -5 6 4 4 14 -2 25 -10 16 -9 23 10 43
28 30 29 67 2 74 -22 6 -28 33 -7 33 8 0 22 -9 32 -20 13 -14 21 -17 31 -9 8
7 14 7 19 -1 3 -5 21 -10 39 -10 20 0 40 -8 51 -20 11 -12 31 -20 52 -20 28 0
33 -4 33 -23 0 -33 36 -64 58 -51 25 16 50 66 51 101 1 17 6 35 11 38 14 8 13
41 -2 65 -10 16 -9 23 7 42 40 47 46 64 25 83 -26 24 -64 16 -68 -14 -2 -13
-12 -39 -23 -58 -10 -18 -19 -42 -19 -53 0 -28 -60 -28 -84 -1 -15 16 -22 18
-37 8 -16 -10 -24 -6 -52 21 -26 25 -36 29 -45 20 -19 -19 -15 6 8 47 11 20
20 49 20 65 0 16 5 32 10 35 6 3 10 17 10 30 0 13 5 27 10 30 6 3 10 17 10 30
0 13 5 27 10 30 6 3 10 17 10 30 0 13 5 27 10 30 6 3 10 17 10 29 0 13 7 29
15 36 28 23 45 73 45 130 0 45 4 61 20 75 15 14 20 29 18 54 -3 33 -6 36 -39
39 -24 2 -40 -3 -52 -16z"/>
<path d="M1480 6744 c-14 -7 -36 -24 -50 -39 l-24 -25 22 -41 c12 -22 22 -49
22 -59 0 -11 4 -22 10 -25 6 -4 5 -13 -2 -25 -10 -15 -10 -22 0 -32 6 -6 12
-18 12 -26 0 -12 -3 -12 -15 -2 -24 20 -45 4 -45 -33 0 -37 32 -78 45 -57 5 8
11 8 19 1 16 -14 26 -4 26 25 0 13 5 26 10 29 6 3 10 17 10 30 0 13 5 27 10
30 8 5 8 11 0 20 -12 14 -8 17 37 41 18 10 25 9 39 -7 13 -14 31 -19 69 -19
44 0 54 -3 58 -20 3 -12 14 -20 26 -20 11 0 36 -9 56 -20 20 -11 53 -20 75
-20 21 0 42 -4 45 -10 3 -5 15 -10 25 -10 11 0 35 -9 55 -20 22 -12 54 -20 84
-20 53 0 79 -18 59 -38 -7 -7 -25 -12 -40 -12 -28 0 -58 -13 -90 -39 -22 -17
-23 -54 -3 -71 28 -23 45 -73 45 -132 0 -46 -3 -58 -16 -58 -9 0 -18 -9 -21
-20 -3 -12 -14 -20 -27 -20 -12 0 -27 -5 -32 -10 -7 -7 -16 -4 -29 10 -10 11
-23 20 -30 20 -7 0 -20 9 -30 20 -10 11 -24 20 -32 20 -21 0 -15 27 7 33 16 4
20 14 20 49 0 24 -5 49 -12 56 -9 9 -6 12 14 12 20 0 31 8 42 32 9 17 16 39
16 49 0 10 5 21 11 25 8 4 8 9 0 17 -7 7 -7 14 0 24 6 7 8 20 5 29 -6 15 -9
15 -29 -4 -16 -15 -38 -22 -77 -24 l-55 -3 -3 -54 c-3 -43 1 -58 18 -76 l20
-22 -20 -18 c-12 -11 -20 -31 -20 -51 0 -18 -4 -36 -10 -39 -5 -3 -10 -31 -10
-62 0 -49 -2 -54 -16 -43 -13 11 -16 10 -21 -8 -6 -23 -46 -31 -58 -12 -3 6
-17 10 -30 10 -13 0 -27 5 -30 10 -17 28 -85 -4 -85 -40 0 -11 -3 -11 -12 -2
-19 19 -73 14 -93 -8 -22 -24 -105 -29 -105 -7 0 18 -34 49 -43 40 -4 -3 -7
-17 -7 -29 0 -13 -4 -26 -10 -29 -16 -10 -12 -55 6 -62 8 -3 20 -1 26 5 7 7
16 7 29 -1 14 -9 21 -9 31 1 9 9 17 7 35 -10 20 -19 27 -20 43 -10 11 7 29 12
39 12 11 0 23 5 26 10 3 6 21 10 39 10 20 0 40 8 51 20 17 19 19 19 37 3 11
-10 36 -25 56 -35 20 -10 30 -17 21 -18 -28 0 -49 -34 -49 -78 0 -22 -4 -43
-9 -46 -5 -4 -3 -19 6 -36 22 -45 67 -42 116 8 33 34 37 43 37 89 0 29 -4 55
-10 58 -17 10 -11 32 10 38 13 3 20 14 20 30 0 14 5 29 10 32 6 3 10 17 10 31
0 15 6 24 15 24 18 0 20 -21 4 -37 -21 -21 -2 -43 35 -43 19 0 38 5 41 10 3 6
13 10 21 10 11 0 14 -15 14 -64 0 -36 -4 -68 -10 -71 -5 -3 -10 -19 -10 -34 0
-38 -21 -79 -45 -85 -16 -4 -17 -8 -7 -18 6 -6 12 -31 12 -53 0 -58 28 -84 68
-65 54 27 62 40 62 95 0 46 3 53 22 59 18 4 20 8 10 18 -6 6 -12 22 -12 34 0
13 -4 26 -10 29 -18 11 -10 30 17 43 32 15 79 16 88 2 3 -5 14 -10 24 -10 26
0 71 -24 71 -38 0 -18 28 -26 45 -12 22 19 59 8 73 -22 13 -28 36 -36 47 -18
5 8 11 8 20 0 7 -6 37 -10 67 -8 42 2 54 7 56 21 5 24 -46 127 -63 127 -7 0
-15 9 -18 20 -5 21 -31 27 -42 10 -3 -5 -31 -10 -61 -10 -40 0 -54 4 -54 14 0
18 -54 46 -87 46 -45 0 -113 51 -113 85 0 12 9 30 20 40 11 10 20 24 20 30 0
7 7 18 15 25 24 20 45 71 45 111 0 21 5 41 10 44 6 3 10 22 10 41 0 33 20 48
35 24 3 -5 16 -10 29 -10 13 0 31 -9 41 -20 13 -14 21 -17 31 -9 8 7 14 7 19
-1 3 -5 14 -10 24 -10 37 0 71 -24 71 -51 0 -30 -23 -81 -45 -99 -8 -7 -15
-23 -15 -36 0 -12 -4 -26 -10 -29 -6 -4 -5 -13 2 -25 10 -15 10 -22 0 -32 -6
-6 -12 -16 -12 -20 0 -13 68 -9 93 5 33 18 77 59 77 72 0 6 10 21 23 33 19 18
35 22 90 22 61 0 82 9 57 25 -5 3 -10 30 -10 59 0 40 -5 57 -20 71 -11 10 -20
28 -20 40 0 37 -63 79 -92 61 -13 -8 -23 -6 -40 9 -37 32 -66 45 -97 45 -17 0
-33 5 -36 10 -3 6 -21 10 -40 10 -19 0 -37 5 -40 10 -3 6 -17 10 -30 10 -13 0
-27 5 -30 10 -11 17 -37 11 -42 -11 -5 -20 -6 -20 -17 3 -11 22 -145 98 -172
98 -7 0 -29 9 -49 20 -20 11 -44 20 -55 20 -10 0 -22 5 -25 10 -3 6 -21 10
-40 10 -19 0 -37 5 -40 10 -3 6 -33 10 -65 10 -41 0 -71 6 -95 20 -20 11 -44
20 -53 20 -10 0 -31 14 -47 30 -32 33 -71 38 -115 14z"/>
<path d="M4567 6522 c-12 -13 -17 -37 -17 -80 0 -33 -4 -64 -10 -67 -5 -3 -10
-39 -10 -80 0 -41 5 -77 10 -80 6 -3 10 -30 10 -59 0 -40 -5 -57 -20 -71 -21
-19 -28 -79 -10 -90 6 -3 10 -30 10 -59 0 -28 6 -58 12 -64 10 -10 10 -17 0
-32 -7 -12 -12 -58 -12 -118 0 -64 -4 -102 -12 -110 -10 -10 -10 -17 0 -32 6
-11 12 -32 12 -48 0 -15 5 -33 11 -39 8 -8 8 -13 0 -17 -15 -10 -14 -89 1
-104 9 -9 6 -12 -14 -12 -15 0 -30 -5 -33 -10 -5 -8 -11 -8 -20 0 -9 8 -15 8
-20 0 -3 -5 -24 -10 -45 -10 -22 0 -55 -9 -75 -20 -24 -14 -54 -20 -94 -20
-45 0 -62 -4 -76 -20 -10 -11 -28 -20 -41 -20 -13 0 -26 -4 -29 -10 -3 -5 -15
-10 -25 -10 -11 0 -35 -9 -54 -19 -25 -15 -37 -16 -45 -8 -9 9 -16 8 -31 -1
-11 -6 -29 -12 -39 -12 -11 0 -23 -4 -26 -10 -3 -5 -35 -10 -69 -10 -44 0 -67
-5 -76 -15 -24 -29 -73 -45 -136 -45 -46 0 -74 -6 -101 -21 -29 -16 -41 -19
-55 -10 -26 16 -28 14 -28 -26 0 -54 40 -93 95 -93 29 0 47 -6 60 -20 10 -11
24 -20 30 -20 7 0 15 -9 18 -20 5 -18 14 -20 81 -20 64 0 78 3 83 18 12 33 24
43 40 31 11 -10 10 -16 -7 -34 l-21 -23 32 -16 c18 -9 37 -16 44 -16 21 0 65
-25 65 -38 0 -18 28 -26 44 -13 10 8 16 9 21 1 3 -5 14 -10 24 -10 22 0 116
-47 131 -65 14 -17 56 -20 65 -4 5 7 14 4 29 -8 37 -32 65 -43 105 -43 22 0
43 -4 46 -10 3 -5 17 -10 30 -10 13 0 27 -5 30 -11 5 -7 16 -2 31 12 l24 22 0
-46 c0 -25 -4 -49 -10 -52 -5 -3 -10 -17 -10 -30 0 -13 5 -27 10 -30 6 -3 10
-17 10 -31 0 -28 25 -43 43 -25 6 6 22 11 35 11 15 0 26 7 29 20 3 11 12 20
21 20 12 0 13 -3 4 -12 -7 -7 -12 -21 -12 -32 0 -33 -79 -62 -96 -35 -4 7 -17
0 -35 -17 -20 -19 -26 -31 -19 -38 14 -14 13 -69 -2 -84 -10 -10 -10 -17 0
-32 14 -24 16 -96 2 -105 -5 -3 -10 -21 -10 -40 0 -19 5 -37 10 -40 6 -3 10
-36 10 -72 0 -56 3 -66 20 -70 13 -3 20 -14 20 -29 0 -22 -2 -23 -20 -12 -28
18 -50 -4 -32 -32 7 -12 8 -21 2 -25 -6 -3 -10 -21 -10 -40 0 -19 -4 -37 -10
-40 -6 -4 -10 -58 -10 -129 0 -106 2 -125 18 -139 25 -23 34 -22 67 13 16 17
35 30 42 30 8 0 16 8 20 18 3 9 17 29 30 43 14 15 35 47 47 72 l23 45 -21 21
-20 21 35 0 c27 0 43 8 72 38 20 21 37 42 37 48 0 6 14 23 30 39 17 16 30 35
30 42 0 7 6 13 14 13 16 0 46 53 46 82 0 10 7 18 15 18 9 0 20 12 25 26 6 14
19 28 30 31 22 6 76 106 65 122 -3 6 -13 11 -21 11 -18 0 -18 24 1 40 12 10
15 9 15 -4 0 -30 30 -30 61 0 29 27 38 67 19 79 -14 9 -13 48 2 63 10 10 10
17 0 32 -18 29 -15 38 16 42 20 2 28 9 30 27 2 13 -1 28 -7 34 -6 6 -11 21
-11 33 0 23 -46 54 -80 54 -23 0 -50 -32 -50 -58 0 -11 -4 -24 -10 -27 -5 -3
-10 -21 -10 -39 0 -25 -5 -35 -20 -39 -15 -4 -20 -14 -20 -41 0 -40 -5 -42
-45 -22 -15 8 -22 17 -16 21 6 3 11 16 11 29 0 12 5 27 11 33 23 23 2 44 -38
41 -35 -3 -39 -6 -44 -38 -9 -53 -20 -80 -34 -80 -6 0 -20 -9 -29 -19 -16 -17
-20 -18 -46 -4 -40 19 -43 27 -20 48 11 10 20 29 20 43 0 21 2 23 15 12 12
-10 12 -16 4 -26 -18 -22 -3 -46 28 -42 24 3 28 8 31 38 2 19 8 39 13 44 5 6
9 20 9 33 0 20 5 23 43 23 49 0 77 22 77 60 0 18 3 20 14 11 10 -9 16 -8 26 4
18 22 69 45 76 34 3 -5 16 -9 29 -9 13 0 27 -4 30 -10 3 -5 16 -10 29 -10 12
0 27 -5 33 -11 8 -8 13 -8 17 0 4 6 33 11 64 11 l57 0 -27 -27 c-25 -24 -30
-26 -52 -14 -30 16 -46 8 -46 -24 0 -13 -5 -27 -11 -30 -13 -9 18 -45 39 -45
12 0 12 -3 2 -15 -7 -8 -17 -15 -23 -15 -25 0 -67 -54 -67 -86 0 -34 14 -52
25 -34 9 14 108 13 123 -2 10 -10 17 -10 31 -1 16 10 20 9 24 -8 3 -12 14 -19
30 -19 14 0 29 -4 32 -10 3 -5 14 -10 25 -10 10 0 44 -14 76 -31 45 -23 63
-28 75 -20 13 7 21 5 35 -10 9 -10 22 -19 29 -19 7 0 20 -9 30 -20 10 -11 30
-20 45 -20 31 0 82 -23 100 -45 8 -10 32 -15 71 -15 39 0 70 -6 93 -19 19 -11
59 -21 88 -23 47 -3 54 -6 66 -31 14 -28 32 -28 32 0 0 13 5 12 24 -6 30 -28
89 -26 94 2 5 27 -42 118 -83 157 -19 18 -35 39 -35 45 0 7 -9 20 -20 30 -11
10 -20 26 -20 35 0 34 -30 76 -64 90 -19 7 -37 22 -40 33 -5 21 -26 14 -26 -9
0 -9 -10 -14 -27 -14 l-26 0 21 23 c31 33 28 77 -6 110 -15 15 -33 27 -40 27
-7 0 -12 13 -12 28 0 30 -24 87 -41 97 -5 4 -18 26 -29 51 -11 24 -26 44 -33
44 -7 0 -17 10 -22 23 -6 12 -19 26 -31 31 -11 5 -25 19 -30 30 -5 12 -18 25
-29 30 -11 5 -29 27 -40 50 -24 50 -14 86 23 86 15 0 26 7 29 20 3 11 11 20
17 20 14 0 146 132 146 146 0 6 9 19 20 29 11 10 20 23 20 30 0 6 14 24 30 40
17 16 30 34 30 39 0 6 10 16 23 21 13 6 35 36 52 72 17 34 34 63 39 63 5 0 18
7 28 17 10 9 28 21 40 27 13 6 38 42 58 80 22 43 44 72 58 77 12 5 22 14 22
22 0 7 12 24 26 38 57 53 72 141 25 147 -13 2 -28 -1 -34 -7 -14 -14 -54 -14
-62 -1 -3 5 -20 1 -41 -10 -19 -11 -52 -20 -74 -20 -21 0 -42 -4 -45 -10 -3
-5 -19 -10 -34 -10 -34 0 -91 -27 -91 -43 0 -14 -45 -37 -71 -37 -10 0 -21 -4
-24 -10 -3 -5 -16 -10 -29 -10 -25 0 -56 -28 -56 -50 0 -11 -3 -11 -12 -2 -18
18 -73 14 -91 -6 -20 -22 -22 -45 -5 -71 15 -25 -4 -51 -38 -51 -12 0 -26 -5
-29 -10 -5 -8 -11 -7 -21 1 -11 9 -11 15 -3 25 6 8 17 14 24 14 18 0 45 34 45
58 0 24 -15 38 -25 22 -3 -5 -17 -10 -29 -10 -24 0 -42 -16 -61 -53 -14 -29
-41 -33 -48 -7 -6 24 -32 26 -75 4 -24 -11 -32 -23 -33 -42 0 -26 -1 -26 -9
-4 -7 17 -17 22 -43 22 -39 0 -67 -25 -67 -60 0 -19 -2 -20 -15 -10 -8 7 -15
23 -15 36 0 12 -4 26 -10 29 -5 3 -10 17 -10 30 0 13 -4 27 -10 30 -5 3 -10
17 -10 31 0 17 -8 27 -25 34 -15 6 -32 27 -45 55 -20 44 -23 46 -58 43 -30 -2
-38 -7 -40 -27 -2 -13 1 -28 7 -34 19 -19 12 -37 -14 -37 -15 0 -28 -7 -32
-17 -13 -37 -46 -63 -79 -63 -18 0 -36 5 -39 10 -12 20 -71 11 -95 -15 -39
-42 -48 -66 -32 -97 12 -24 19 -28 57 -28 24 0 47 5 50 10 3 6 16 10 29 10 12
0 27 5 34 12 9 9 12 8 12 -5 0 -9 -6 -17 -13 -17 -8 0 -22 -9 -31 -19 -10 -11
-30 -21 -45 -23 -22 -3 -26 -8 -29 -41 -3 -32 0 -39 18 -44 l21 -6 -21 -22
c-20 -22 -20 -22 0 -40 22 -20 18 -32 -16 -45 -19 -8 -24 -17 -24 -45 0 -33
-2 -35 -35 -35 -24 0 -35 5 -35 15 0 9 9 15 24 15 32 0 44 20 17 27 -22 6 -30
46 -11 58 6 3 10 17 10 31 0 19 -9 28 -40 41 -36 16 -40 21 -39 53 0 28 2 31
9 15 4 -11 19 -30 33 -43 l25 -23 15 30 c14 27 13 31 -4 47 -10 9 -19 23 -19
31 0 25 -30 26 -56 2 -21 -19 -28 -21 -44 -11 -12 7 -21 8 -25 2 -3 -6 -14
-10 -23 -10 -12 0 -13 3 -5 11 9 9 9 16 0 30 -15 24 -1 36 23 21 43 -27 90 0
90 51 0 15 9 42 19 61 19 34 19 34 0 52 -21 19 -25 54 -7 72 9 9 9 17 0 34 -6
13 -12 32 -14 43 -2 12 -11 20 -23 20 -16 0 -21 -8 -23 -38 -3 -32 -6 -36 -18
-26 -16 13 -19 55 -4 64 6 3 10 16 10 29 0 13 9 31 20 41 12 11 20 31 20 51 0
18 5 36 10 39 6 3 10 21 10 40 0 19 -4 37 -10 40 -5 3 -10 17 -10 31 0 29 25
33 33 4 3 -11 12 -20 21 -20 9 0 16 -6 16 -14 0 -7 7 -19 15 -26 19 -15 45
-68 45 -90 0 -9 5 -21 12 -28 9 -9 4 -12 -23 -12 -31 0 -36 4 -52 40 -9 22
-19 40 -21 40 -11 0 -34 -60 -25 -66 5 -3 9 -20 9 -39 0 -19 5 -37 10 -40 6
-3 10 -15 10 -25 0 -11 9 -35 20 -54 11 -21 15 -38 10 -41 -6 -4 -10 -22 -10
-41 0 -37 22 -56 43 -35 6 6 20 11 32 11 12 0 26 5 32 11 17 17 42 4 53 -26
13 -34 30 -23 30 19 0 24 10 41 40 71 22 21 40 45 40 53 0 11 3 12 14 3 9 -8
16 -8 20 -2 4 5 2 12 -4 16 -5 3 -10 16 -10 29 0 13 -9 31 -20 41 -11 10 -20
23 -20 30 0 7 -9 20 -19 30 -11 9 -21 33 -23 54 -2 30 -7 37 -28 39 -20 3 -32
18 -62 80 -22 46 -55 95 -82 122 -26 24 -46 49 -46 56 0 20 -36 44 -66 44 -33
0 -54 15 -54 39 0 12 3 12 12 3 45 -45 36 42 -11 101 -18 22 -34 22 -54 -1z"/>
<path d="M8435 6530 c-4 -6 -14 -10 -24 -10 -10 0 -32 -7 -49 -16 -30 -14 -32
-19 -32 -68 0 -47 4 -55 38 -89 35 -35 42 -37 99 -37 34 0 65 4 68 10 4 6 13
5 25 -2 15 -10 22 -10 32 0 6 6 22 12 35 12 17 0 23 -6 23 -23 0 -13 5 -28 11
-34 7 -7 8 -13 0 -17 -7 -4 -3 -19 9 -42 11 -19 20 -41 20 -49 0 -8 9 -30 20
-50 14 -25 20 -54 20 -100 0 -46 6 -75 20 -100 11 -20 20 -52 20 -72 0 -24 8
-45 22 -60 19 -20 20 -27 10 -43 -7 -12 -8 -21 -2 -25 6 -3 10 -39 10 -80 0
-41 5 -77 10 -80 6 -3 10 -26 10 -50 0 -24 5 -47 10 -50 14 -9 13 -48 -2 -63
-14 -14 -94 -16 -103 -2 -10 16 -87 12 -106 -6 -15 -13 -16 -20 -6 -38 30 -53
86 -96 127 -96 9 0 29 -13 45 -30 16 -16 34 -30 40 -30 7 0 20 -9 30 -20 10
-11 28 -20 40 -20 12 0 30 9 40 20 10 11 28 20 40 20 27 0 55 29 55 57 0 12 8
23 20 26 18 5 18 7 5 33 -8 16 -37 52 -65 79 -56 55 -84 101 -68 111 5 4 1 15
-11 28 -16 17 -18 25 -9 34 10 10 10 17 0 32 -12 19 -9 20 41 20 41 0 58 -5
72 -20 14 -15 31 -20 71 -20 29 0 56 -4 59 -10 3 -5 17 -10 29 -10 15 0 26 -7
29 -20 3 -11 14 -20 24 -20 31 0 72 -24 77 -45 5 -18 6 -18 31 5 27 25 55 74
55 96 0 7 9 30 21 50 26 47 19 64 -25 64 -19 0 -38 5 -41 10 -9 14 -128 13
-143 -2 -10 -10 -17 -10 -32 0 -11 6 -29 12 -39 12 -11 0 -23 5 -26 10 -3 6
-35 10 -70 10 -35 0 -67 5 -70 10 -5 8 -11 8 -20 0 -9 -8 -15 -8 -20 0 -3 5
-16 10 -29 10 -27 0 -66 39 -66 65 0 10 -9 28 -20 40 -20 21 -20 22 -1 39 19
18 19 18 0 52 -10 19 -19 48 -19 64 0 16 -4 32 -10 35 -5 3 -10 35 -10 71 0
49 3 64 14 64 8 0 18 -4 21 -10 3 -5 16 -10 29 -10 12 0 28 -6 34 -12 10 -10
17 -10 32 0 11 6 33 12 48 12 16 0 37 9 47 20 10 11 23 20 30 20 13 0 85 72
85 86 0 5 18 28 40 49 39 38 41 42 38 95 -3 52 -4 55 -31 58 -35 4 -84 -18
-116 -52 -14 -14 -30 -26 -36 -26 -6 0 -22 -12 -36 -26 -13 -14 -43 -34 -66
-45 -24 -11 -43 -25 -43 -33 0 -7 -11 -23 -24 -35 -22 -21 -28 -22 -54 -10
-53 23 -70 112 -26 134 57 28 65 50 38 103 -13 28 -18 30 -34 19 -15 -9 -22
-9 -32 1 -6 6 -26 12 -43 12 -17 0 -37 -6 -43 -12 -10 -10 -17 -10 -32 0 -24
15 -57 16 -65 2 -5 -8 -11 -8 -20 0 -9 7 -15 8 -19 1 -4 -6 -20 -3 -41 9 -20
11 -37 15 -40 10z"/>
<path d="M7909 6423 c-39 -49 -51 -107 -28 -130 8 -8 7 -13 -1 -18 -8 -5 -5
-15 11 -31 20 -21 21 -28 11 -44 -18 -29 -15 -37 16 -52 26 -13 27 -17 30 -96
2 -60 8 -93 22 -118 11 -19 20 -46 20 -59 0 -13 9 -40 20 -60 12 -21 20 -53
19 -78 0 -35 -2 -38 -9 -19 -8 20 -16 22 -74 22 -36 0 -68 -4 -71 -10 -3 -5
-21 -10 -40 -10 -19 0 -37 -4 -40 -10 -3 -5 -31 -10 -61 -10 -53 0 -54 0 -54
30 0 17 -6 39 -12 50 -10 15 -10 22 0 32 18 18 15 53 -8 73 -11 10 -20 26 -20
37 0 19 -15 24 -25 8 -3 -5 -17 -10 -30 -10 -18 0 -29 -11 -49 -52 -14 -29
-26 -64 -26 -78 0 -15 -9 -35 -20 -45 -11 -10 -20 -28 -20 -41 0 -13 -4 -26
-10 -29 -5 -3 -10 -21 -10 -39 0 -24 9 -40 38 -66 20 -19 47 -41 59 -48 27
-14 179 -16 188 -2 3 6 30 10 60 10 30 0 57 5 60 10 3 6 14 10 24 10 22 0 116
47 132 66 10 13 15 12 36 -7 12 -13 23 -33 23 -45 0 -13 5 -26 10 -29 13 -8
13 -48 -1 -62 -8 -8 -8 -13 0 -17 6 -4 11 -34 11 -66 0 -41 6 -71 20 -95 22
-40 25 -66 9 -82 -8 -8 -8 -13 0 -17 6 -4 11 -27 11 -51 0 -24 5 -47 10 -50 6
-3 10 -20 10 -38 0 -31 42 -87 65 -87 6 0 24 14 40 30 16 17 35 30 42 30 7 0
22 20 33 44 11 25 24 48 30 51 16 10 42 73 35 84 -3 6 -12 11 -19 11 -8 0 -16
9 -19 19 -3 14 -15 21 -43 23 -29 2 -41 9 -55 33 -10 17 -18 40 -18 52 -1 12
-5 25 -11 28 -5 3 -10 21 -10 40 0 19 -4 37 -10 40 -5 3 -10 15 -10 25 0 11
-9 35 -20 55 -35 62 -22 95 36 95 18 0 35 4 38 9 11 17 56 -13 56 -37 0 -13 8
-25 18 -29 22 -8 122 -104 122 -118 0 -13 65 -74 96 -92 19 -10 26 -6 68 36
25 26 46 51 46 57 0 6 9 19 20 29 36 33 23 72 -34 100 -11 6 -23 21 -24 34 -2
13 -12 39 -23 58 -10 18 -19 47 -19 63 0 16 -4 32 -10 35 -5 3 -10 17 -10 30
0 13 -4 27 -10 30 -5 3 -10 21 -10 40 0 19 -4 37 -10 40 -5 3 -10 21 -10 39 0
17 -6 38 -12 44 -10 10 -10 17 0 32 20 33 14 61 -34 157 -49 100 -49 100 -106
54 -19 -15 -25 -76 -8 -86 6 -3 10 -19 10 -34 0 -27 34 -105 60 -136 10 -12
16 -13 26 -4 11 9 14 8 14 -4 0 -8 -9 -17 -21 -20 -28 -7 -15 -27 19 -28 20
-1 22 -2 7 -6 -44 -9 -49 -13 -37 -25 7 -7 12 -24 12 -40 0 -15 9 -43 20 -63
11 -20 20 -44 20 -55 0 -10 5 -22 10 -25 14 -9 13 -48 -2 -63 -17 -17 -53 -15
-68 3 -18 22 -69 45 -100 45 -39 0 -57 24 -40 54 20 38 6 46 -86 46 l-84 0 0
34 c0 19 -4 38 -10 41 -5 3 -10 30 -10 60 0 30 -4 57 -10 60 -13 8 -13 52 1
60 7 5 4 14 -8 29 -30 35 -43 64 -43 95 0 17 -4 33 -10 36 -5 3 -10 30 -10 60
0 30 -4 57 -10 60 -5 3 -10 16 -10 29 0 22 -47 76 -66 76 -6 0 -17 -8 -25 -17z"/>
<path d="M1615 6370 c-3 -5 -16 -10 -29 -10 -31 0 -56 -30 -56 -68 0 -17 -5
-34 -10 -37 -16 -10 -1 -25 26 -25 13 0 24 -6 24 -13 0 -16 48 -61 73 -71 11
-3 21 -15 24 -26 5 -17 53 -50 74 -50 4 0 14 14 23 31 15 29 14 31 -4 36 -15
4 -18 9 -10 18 7 8 4 17 -9 29 -12 11 -21 14 -26 7 -3 -6 -13 -11 -21 -11 -16
0 -19 45 -3 55 7 5 4 14 -8 29 -27 32 -43 63 -43 85 0 23 -16 36 -25 21z"/>
<path d="M1485 6300 c-10 -11 -15 -26 -11 -36 6 -15 8 -15 26 1 11 10 20 24
20 31 0 22 -17 24 -35 4z"/>
<path d="M9193 6141 c-3 -14 -14 -21 -28 -21 -23 0 -41 -16 -60 -54 -6 -11
-22 -23 -35 -24 -14 -2 -29 -8 -34 -13 -6 -5 -24 -9 -42 -9 -17 0 -38 -7 -45
-16 -7 -9 -23 -20 -36 -25 -19 -7 -23 -16 -23 -52 0 -58 38 -97 96 -97 22 0
46 6 52 12 10 10 17 10 31 1 22 -14 31 -8 31 22 0 15 10 25 35 35 20 8 43 22
52 32 9 10 21 18 28 18 17 0 65 54 65 73 0 9 9 33 21 53 11 20 19 46 17 58 -3
18 -11 21 -61 24 -52 3 -59 1 -64 -17z"/>
<path d="M1335 5970 c-8 -12 20 -24 35 -15 6 3 8 11 5 16 -8 12 -32 12 -40 -1z"/>
<path d="M1227 5822 c-10 -10 -17 -28 -17 -40 0 -11 -4 -24 -10 -27 -5 -3 -10
-18 -10 -32 0 -21 -2 -23 -15 -13 -12 10 -16 8 -24 -12 -5 -13 -16 -30 -25
-37 -9 -7 -16 -19 -16 -26 0 -21 35 -45 67 -45 17 0 36 -7 43 -15 7 -9 29 -23
49 -32 20 -9 46 -25 57 -35 14 -13 24 -16 29 -9 10 17 61 13 99 -9 21 -11 38
-15 41 -10 15 25 67 6 121 -43 20 -18 34 -25 38 -18 9 14 113 15 121 1 3 -5
17 -10 30 -10 13 0 27 -4 30 -10 3 -5 14 -10 24 -10 22 0 116 -47 131 -65 7
-8 23 -15 36 -15 12 0 26 -4 29 -10 3 -5 17 -10 30 -10 13 0 27 -4 30 -10 3
-5 17 -10 30 -10 13 0 27 -4 30 -10 3 -5 17 -10 30 -10 13 0 27 -4 30 -10 3
-5 21 -10 39 -10 17 0 37 -5 43 -11 5 -5 38 -9 74 -7 l64 3 3 46 c2 35 -2 49
-18 64 -11 10 -20 23 -20 30 0 7 -9 20 -21 31 -16 14 -24 16 -39 7 -14 -10
-21 -8 -36 8 -9 10 -25 19 -35 19 -10 0 -34 9 -54 20 -20 11 -44 20 -55 20
-10 0 -22 5 -25 10 -3 6 -26 10 -50 10 -24 0 -47 5 -50 10 -9 14 -68 13 -83
-2 -9 -9 -17 -9 -36 2 -20 10 -28 10 -40 1 -10 -9 -16 -9 -21 -1 -5 8 -11 8
-21 -1 -11 -9 -14 -7 -14 14 0 35 -13 41 -35 16 -18 -19 -19 -19 -37 21 -15
33 -23 40 -47 40 -16 0 -55 14 -86 30 -31 17 -68 30 -81 30 -13 0 -39 9 -59
20 -20 11 -49 20 -65 20 -16 0 -32 5 -35 10 -3 6 -14 10 -24 10 -9 0 -29 6
-44 13 -23 10 -27 18 -27 53 0 27 -6 47 -18 57 -24 22 -35 21 -55 -1z"/>
<path d="M2235 4670 c-27 -16 -64 -29 -81 -29 -17 -1 -37 -8 -44 -16 -17 -21
-69 -45 -96 -45 -13 0 -39 -9 -59 -20 -20 -11 -53 -20 -74 -20 -25 0 -44 -7
-56 -20 -11 -12 -31 -20 -51 -20 -18 0 -36 -4 -39 -10 -3 -5 -21 -10 -40 -10
-19 0 -37 -4 -40 -10 -3 -5 -16 -10 -29 -10 -13 0 -31 -9 -41 -20 -12 -14 -22
-17 -30 -10 -8 7 -20 1 -40 -20 -16 -17 -39 -30 -51 -30 -13 0 -26 -4 -29 -10
-3 -5 -27 -10 -52 -10 -36 0 -46 -4 -50 -20 -4 -16 -14 -20 -49 -20 -23 0 -46
5 -49 10 -10 17 -71 11 -88 -8 -10 -10 -17 -23 -17 -29 0 -5 -9 -18 -20 -28
-29 -26 -26 -73 7 -107 15 -15 36 -28 48 -28 44 0 109 -110 103 -175 -4 -47
-41 -73 -104 -74 -28 -1 -47 -8 -59 -21 -10 -11 -28 -20 -40 -20 -11 0 -26 -5
-32 -11 -19 -19 -69 10 -84 48 -7 18 -21 41 -31 50 -10 9 -18 21 -18 26 0 6
-10 21 -22 34 -17 19 -20 28 -12 41 8 13 6 25 -7 50 -11 18 -19 41 -19 52 0
10 -5 22 -10 25 -6 3 -10 16 -10 29 0 12 -13 35 -30 51 l-29 28 -10 -24 c-5
-14 -16 -31 -25 -38 -9 -7 -16 -23 -16 -35 0 -12 -14 -35 -30 -51 -16 -16 -30
-38 -30 -50 0 -25 29 -55 53 -55 10 0 26 -6 37 -12 15 -10 22 -10 31 -1 10 10
15 6 26 -14 7 -14 13 -37 13 -52 0 -15 5 -32 11 -38 8 -8 7 -13 -1 -18 -8 -5
-5 -14 11 -31 19 -21 21 -27 10 -47 -11 -20 -9 -29 8 -61 12 -20 21 -45 21
-55 0 -10 7 -24 15 -31 17 -14 45 -67 45 -86 0 -6 14 -38 30 -69 17 -31 30
-67 30 -80 0 -13 13 -49 30 -80 18 -35 30 -72 30 -95 0 -22 5 -42 10 -45 6 -3
10 -21 10 -39 0 -20 8 -40 20 -51 11 -10 20 -28 20 -41 0 -13 5 -26 10 -29 6
-3 10 -21 10 -39 0 -17 4 -36 9 -42 5 -5 11 -20 13 -34 3 -22 9 -25 47 -28 85
-6 106 59 51 163 -16 31 -30 65 -30 74 0 10 -9 26 -20 36 -11 10 -20 28 -20
40 0 13 -7 28 -15 35 -37 31 -62 130 -32 130 8 0 22 9 32 20 10 11 28 20 41
20 13 0 26 5 29 10 3 6 16 10 29 10 13 0 31 9 41 20 10 11 28 20 40 20 12 0
30 9 40 20 13 14 22 17 29 10 17 -17 41 -12 102 21 45 23 63 28 75 20 13 -7
21 -5 35 10 13 15 30 19 75 19 40 0 70 6 94 20 20 11 48 20 64 20 15 0 36 9
46 20 13 14 22 17 29 10 5 -5 19 -10 31 -10 12 0 26 -5 32 -11 8 -8 13 -8 17
0 4 6 22 11 40 11 17 0 37 -5 43 -11 8 -8 13 -8 17 0 11 17 42 13 81 -9 20
-11 46 -20 59 -20 13 0 37 -7 52 -15 l29 -15 -32 0 c-18 0 -48 -9 -68 -20 -20
-11 -44 -20 -55 -20 -10 0 -22 -4 -25 -10 -3 -5 -19 -10 -34 -10 -41 0 -173
-71 -188 -100 -10 -19 -13 -21 -13 -7 0 27 -24 30 -64 8 -20 -12 -45 -21 -56
-21 -10 0 -22 -4 -25 -10 -3 -5 -15 -10 -25 -10 -11 0 -35 -9 -55 -20 -20 -11
-44 -20 -55 -20 -10 0 -22 -5 -25 -11 -8 -13 -35 35 -35 62 0 10 -4 21 -10 24
-5 3 -10 21 -10 40 0 27 -6 36 -29 48 -27 13 -31 13 -45 -2 -11 -12 -13 -20
-5 -28 8 -8 8 -13 0 -17 -20 -13 -11 -52 19 -81 21 -21 27 -32 19 -41 -5 -7
-9 -45 -7 -86 l3 -73 54 -3 c30 -2 59 2 64 7 6 6 21 11 33 11 13 0 26 5 29 10
3 6 21 10 39 10 20 0 40 8 51 20 20 22 74 27 93 8 16 -16 28 -2 14 15 -15 17
3 37 33 37 12 0 30 9 40 20 13 14 22 17 29 10 5 -5 17 -10 26 -10 22 0 75 26
90 45 7 8 23 15 36 15 12 0 26 5 29 10 3 6 17 10 30 10 13 0 27 5 30 10 3 6
21 10 39 10 20 0 40 8 51 20 10 11 28 20 40 20 12 0 30 9 40 20 12 13 31 20
55 20 24 0 65 15 115 40 54 28 90 40 120 40 51 0 105 25 105 49 0 43 -70 135
-85 112 -3 -6 -16 -11 -29 -11 -13 0 -31 -9 -41 -20 -10 -11 -29 -20 -42 -20
-21 0 -23 5 -23 43 0 31 -6 49 -20 62 -13 12 -20 31 -20 56 0 21 -9 54 -20 74
-11 20 -20 44 -20 55 0 10 -4 22 -10 25 -5 3 -10 21 -10 40 0 19 -4 37 -10 40
-5 3 -10 16 -10 29 0 13 -9 31 -20 41 -13 12 -20 31 -20 56 0 21 -9 54 -20 74
-11 20 -20 49 -20 65 0 16 -4 32 -10 35 -5 3 -10 14 -10 24 0 23 -26 75 -45
91 -32 26 -12 80 30 80 12 0 25 4 31 9 5 5 20 11 34 13 41 5 37 56 -9 111 -23
28 -105 21 -166 -13z m-50 -200 c28 -31 65 -111 65 -141 0 -15 5 -31 10 -34 6
-3 10 -15 10 -25 0 -11 9 -35 20 -55 11 -20 20 -44 20 -54 0 -10 9 -26 19 -35
16 -15 18 -22 8 -37 -9 -15 -8 -23 8 -41 31 -36 46 -66 35 -73 -5 -3 -1 -21
10 -41 11 -19 20 -41 20 -48 0 -7 18 -48 40 -91 25 -49 40 -91 40 -114 0 -21
5 -42 12 -49 9 -9 9 -12 -3 -12 -9 0 -24 -9 -34 -20 -20 -22 -45 -27 -45 -8 0
21 -73 88 -96 88 -13 0 -24 8 -27 20 -4 17 -14 20 -70 20 -56 0 -65 3 -70 20
-5 21 -31 27 -42 10 -3 -5 -20 -1 -41 10 -19 11 -46 20 -59 20 -13 0 -40 -9
-59 -20 -21 -11 -38 -15 -41 -10 -8 13 -132 13 -140 0 -3 -5 -21 -10 -40 -10
-19 0 -37 -4 -40 -10 -3 -5 -19 -10 -35 -10 -15 0 -54 -13 -85 -30 -55 -29
-132 -43 -108 -19 13 13 -32 109 -51 109 -7 0 -21 -9 -31 -20 -17 -19 -17 -21
9 -74 15 -31 28 -59 28 -63 0 -4 -12 -15 -28 -24 -16 -8 -34 -26 -40 -38 -11
-22 -11 -22 -17 -2 -4 19 -13 21 -70 21 -45 0 -68 -5 -77 -15 -18 -22 -69 -45
-100 -45 -37 0 -50 17 -50 65 0 23 -5 46 -11 52 -32 32 23 91 88 92 17 1 35 6
38 11 3 6 24 10 46 10 40 0 68 11 105 43 20 17 21 16 39 -3 l18 -20 29 27 c15
15 28 33 28 40 0 8 12 13 28 13 32 0 84 23 102 45 7 8 27 15 46 15 18 0 36 5
39 10 3 6 22 10 42 10 26 0 36 5 40 20 5 17 14 20 69 20 34 0 66 5 69 10 3 6
14 10 24 10 21 0 78 27 87 41 3 6 17 14 30 19 16 7 24 17 24 34 0 14 5 28 10
31 6 3 10 17 10 30 0 13 -4 27 -10 30 -5 3 -10 15 -10 25 0 11 -9 35 -20 55
-11 20 -20 53 -20 75 0 21 -4 42 -10 45 -5 3 -10 17 -10 31 0 22 4 24 43 24
31 0 49 6 62 20 10 11 28 20 41 20 13 0 26 5 29 10 10 16 30 12 50 -10z m-387
-112 c7 -7 12 -22 12 -33 0 -12 14 -34 30 -50 17 -16 30 -38 30 -50 0 -11 5
-26 11 -32 18 -18 6 -76 -18 -89 -13 -6 -31 -18 -41 -27 -10 -10 -28 -17 -40
-17 -11 0 -24 -4 -27 -10 -3 -5 -28 -10 -54 -10 -49 0 -99 -19 -121 -45 -7 -8
-25 -15 -40 -15 -15 0 -54 -13 -85 -30 -31 -16 -70 -30 -86 -30 -26 0 -29 3
-29 33 0 21 -8 41 -20 52 -12 11 -20 31 -20 51 0 18 -4 36 -10 39 -24 15 -1
105 35 135 8 7 15 19 15 26 0 17 46 19 56 3 4 -8 9 -8 17 0 6 6 21 11 33 11
13 0 26 5 29 10 3 6 26 10 50 10 24 0 47 5 50 10 3 6 21 10 39 10 20 0 40 8
51 20 10 11 28 20 41 20 13 0 26 5 29 10 9 14 48 13 63 -2z"/>
<path d="M8455 4530 c-3 -5 -22 -10 -41 -10 -44 0 -51 -17 -25 -64 12 -20 21
-46 21 -57 0 -11 8 -22 18 -26 34 -12 43 -24 30 -40 -9 -11 -7 -15 10 -20 23
-6 29 -27 12 -38 -26 -16 6 -125 37 -125 8 0 17 9 20 19 3 11 13 21 24 24 13
4 19 14 19 32 0 22 3 25 13 16 17 -13 37 6 58 57 11 26 19 32 45 32 34 0 84
44 84 73 0 35 -45 97 -70 97 -55 0 -100 -54 -100 -121 0 -21 -5 -41 -10 -44
-7 -5 -8 -11 -1 -19 7 -8 1 -15 -20 -25 -47 -21 -59 -3 -59 89 0 49 -6 88 -15
107 -20 39 -41 58 -50 43z"/>
<path d="M8057 4412 c-22 -23 -27 -37 -27 -79 0 -29 -4 -55 -10 -58 -5 -3 -10
-15 -10 -25 0 -11 -9 -36 -21 -56 -17 -31 -19 -41 -9 -59 17 -32 9 -58 -23
-73 -15 -7 -27 -17 -27 -21 0 -16 30 -68 50 -86 24 -22 50 -71 50 -96 0 -10 5
-21 10 -24 6 -3 10 -21 10 -40 0 -19 5 -37 10 -40 6 -3 10 -21 10 -40 0 -19 5
-37 10 -40 13 -8 13 -72 1 -80 -6 -3 3 -31 20 -61 16 -31 29 -62 29 -70 0 -7
9 -29 20 -49 11 -20 20 -53 20 -75 0 -21 5 -42 10 -45 6 -3 10 -15 10 -26 0
-41 44 -99 76 -99 35 0 72 88 44 105 -5 3 -10 19 -10 34 0 31 -23 83 -45 101
-20 16 -21 100 -1 100 7 0 19 7 26 15 22 26 72 45 122 45 l48 0 0 -83 c0 -74
-3 -86 -23 -105 -13 -12 -33 -22 -45 -22 -13 0 -25 -7 -29 -15 -6 -17 23 -55
42 -55 7 0 20 -9 30 -20 10 -11 28 -20 40 -20 11 0 26 -5 31 -10 7 -7 16 -4
29 10 10 11 24 20 31 20 36 0 61 144 29 170 -19 16 -45 68 -45 90 0 9 -9 25
-20 35 -23 20 -26 55 -8 73 10 10 10 17 1 31 -8 12 -8 22 -1 29 6 6 6 12 -1
16 -6 4 -11 17 -11 30 0 13 -9 31 -19 41 -11 9 -21 33 -23 54 -3 31 -7 36 -30
39 -24 3 -26 6 -16 22 9 14 9 22 0 33 -9 11 -8 18 8 32 24 22 15 37 -37 62
-34 16 -35 16 -66 -16 -27 -27 -30 -34 -20 -51 8 -12 9 -21 3 -25 -6 -4 -8
-11 -4 -16 4 -6 16 -1 30 12 l24 22 0 -56 c0 -31 -4 -59 -10 -62 -15 -9 -12
-51 5 -65 22 -18 45 -69 45 -100 0 -34 -21 -55 -38 -38 -9 9 -18 8 -36 -2 -19
-10 -29 -10 -39 -2 -10 9 -16 9 -25 0 -16 -16 -38 -4 -56 33 -24 48 -21 67 12
71 19 2 27 9 27 23 0 16 -8 21 -37 23 -23 2 -38 8 -38 16 0 7 -9 21 -20 31
-31 28 -25 45 14 45 19 0 38 5 41 10 3 6 21 10 40 10 44 0 51 13 30 56 l-17
36 -22 -21 c-12 -12 -32 -21 -44 -21 -11 0 -24 -4 -27 -10 -3 -5 -26 -10 -51
-10 l-44 0 0 45 c0 32 4 45 14 45 7 0 19 7 26 15 18 22 69 45 100 45 15 0 34
8 44 18 15 18 15 20 -2 35 -24 22 -44 21 -87 -3 -20 -11 -44 -20 -53 -20 -10
0 -23 -5 -30 -12 -9 -9 -12 -4 -12 23 0 23 7 42 20 54 12 11 20 31 20 49 0 22
6 34 22 41 29 13 56 62 57 103 1 25 -4 34 -22 41 -13 5 -29 16 -36 25 -19 23
-33 20 -64 -12z"/>
<path d="M8797 4313 c-11 -10 -8 -51 3 -58 6 -3 10 -26 10 -50 0 -24 5 -47 11
-50 12 -8 -34 -35 -60 -35 -24 0 -71 -52 -71 -78 0 -32 27 -39 52 -14 17 16
24 18 39 9 15 -9 23 -7 42 11 13 12 28 22 33 22 6 0 27 17 47 38 37 38 37 38
17 57 -13 11 -20 31 -20 52 0 26 -5 36 -20 40 -11 3 -20 11 -20 18 0 14 -32
45 -47 45 -5 0 -13 -3 -16 -7z"/>
<path d="M8210 4297 c0 -2 7 -18 16 -36 17 -34 46 -39 52 -9 2 10 -9 22 -29
32 -33 17 -39 18 -39 13z"/>
<path d="M8273 4204 c-3 -9 6 -28 26 -48 17 -17 31 -37 31 -44 0 -14 66 -46
79 -37 14 8 14 52 1 60 -6 4 -5 13 2 25 23 37 -47 81 -79 49 -8 -8 -13 -8 -17
0 -10 16 -36 13 -43 -5z"/>
<path d="M7533 4160 c-3 -11 -11 -20 -18 -20 -7 0 -18 -7 -25 -15 -32 -38
-131 -60 -157 -34 -6 6 -21 9 -34 7 -21 -3 -24 -9 -27 -57 -2 -40 1 -59 15
-75 26 -31 43 -63 43 -84 0 -10 4 -22 8 -27 5 -6 4 -20 -3 -32 l-12 -23 -28
30 c-16 17 -38 30 -50 30 -49 0 -75 -79 -37 -113 21 -19 73 -22 89 -6 8 8 13
8 17 0 4 -6 18 -11 32 -11 21 0 24 -5 24 -34 0 -19 5 -38 10 -41 6 -3 10 -19
10 -34 0 -34 27 -91 43 -91 24 0 67 54 67 84 0 39 38 58 107 54 41 -3 50 -7
61 -32 l14 -28 39 38 c33 32 39 44 39 80 0 26 -6 47 -16 55 -9 7 -20 23 -25
36 -5 13 -15 23 -23 23 -7 0 -16 10 -19 22 -6 21 -7 21 -27 3 -12 -11 -20 -31
-20 -49 0 -27 -7 -34 -45 -52 -31 -15 -47 -18 -55 -10 -7 7 -16 7 -30 -2 -31
-19 -40 -14 -40 21 0 21 -8 41 -20 52 -14 13 -20 31 -20 60 0 22 -5 46 -11 52
-8 8 -8 19 2 42 14 31 32 40 44 21 11 -17 37 -11 42 10 12 45 53 10 97 -83 27
-56 29 -58 47 -41 17 15 19 32 19 139 0 141 -7 155 -79 155 -34 0 -44 -4 -48
-20z"/>
<path d="M8537 4133 c-4 -3 -7 -17 -7 -29 0 -13 -4 -26 -10 -29 -10 -6 2 -33
29 -67 10 -14 17 -15 32 -5 14 9 21 9 31 -1 20 -20 36 -14 53 22 22 45 14 56
-41 56 -30 0 -44 4 -44 13 0 18 -34 49 -43 40z"/>
<path d="M6833 4063 c-3 -10 -15 -28 -26 -41 l-21 -22 22 -41 c23 -42 30 -113
12 -124 -10 -6 -14 -107 -4 -117 3 -3 18 1 35 9 23 12 29 21 29 47 0 38 19 58
85 91 l45 23 0 -52 c0 -29 5 -57 11 -63 16 -16 4 -42 -26 -53 -25 -10 -33 -34
-15 -45 6 -3 10 -17 10 -30 0 -13 5 -27 10 -30 6 -3 10 -37 10 -74 0 -77 -37
-166 -74 -181 -34 -12 -48 -36 -44 -72 2 -27 8 -34 28 -36 31 -3 97 60 102 98
2 13 13 29 24 35 43 21 54 37 55 79 1 47 27 99 53 104 9 2 48 -11 87 -30 73
-35 83 -53 39 -75 -13 -6 -28 -21 -32 -33 -11 -30 -37 -36 -60 -13 -18 19 -23
19 -48 7 -43 -22 -56 -42 -42 -65 7 -10 12 -34 12 -54 0 -19 9 -50 20 -70 11
-20 20 -49 20 -65 0 -16 5 -32 10 -35 6 -3 10 -26 10 -50 0 -24 5 -47 10 -50
6 -3 10 -21 10 -39 0 -36 32 -76 45 -56 5 8 11 8 21 -1 20 -17 44 -3 44 26 0
24 2 25 64 25 36 0 68 5 71 10 3 6 17 10 30 10 13 0 27 5 30 10 3 6 22 10 42
10 26 0 36 5 40 20 3 12 14 20 27 20 12 0 27 5 33 11 17 17 56 6 68 -17 16
-33 36 -54 50 -54 13 0 65 93 65 117 0 7 -9 28 -20 48 -11 20 -20 46 -20 59 0
31 -24 77 -55 106 -27 25 -32 59 -13 78 9 9 8 17 -2 37 -10 20 -11 28 -2 37
30 30 -1 88 -46 88 -13 0 -22 6 -22 15 0 9 -7 18 -15 22 -17 6 -55 -23 -55
-42 0 -7 -9 -20 -20 -30 -15 -14 -20 -29 -18 -54 3 -31 7 -36 31 -39 20 -3 27
-9 27 -26 0 -12 5 -27 11 -33 7 -7 9 -18 6 -26 -8 -20 -64 -47 -98 -47 -15 0
-31 -4 -34 -10 -3 -5 -15 -10 -25 -10 -11 0 -35 -9 -55 -20 -20 -11 -53 -20
-73 -20 -21 0 -43 -5 -49 -11 -17 -17 -39 -5 -57 32 -23 46 -21 89 4 89 11 0
35 9 54 19 22 13 37 16 44 9 6 -6 12 -6 16 1 4 6 18 11 31 11 13 0 27 5 30 10
3 6 18 10 32 10 17 0 27 7 30 20 4 16 8 18 19 9 11 -9 15 -8 20 4 17 46 -29
75 -67 41 -15 -14 -17 -20 -7 -32 10 -12 9 -14 -7 -11 -24 5 -53 56 -54 96 -1
28 -7 35 -44 52 -24 11 -50 27 -57 36 -7 8 -20 15 -29 15 -25 0 -71 23 -71 36
0 5 5 15 11 21 24 24 2 43 -48 43 -36 0 -44 3 -35 12 7 7 12 39 12 75 0 54 3
63 18 63 10 0 41 12 70 26 40 20 52 31 52 48 0 31 -58 76 -98 76 -20 0 -58
-36 -76 -72 -6 -13 -23 -25 -36 -26 -14 -2 -29 -8 -34 -13 -6 -5 -25 -9 -43
-9 -28 0 -33 4 -33 24 0 15 7 26 20 29 13 3 20 14 20 30 0 46 -112 80 -127 40z
m745 -805 c10 -10 17 -10 31 -1 28 18 41 -3 41 -64 l0 -53 -40 0 c-22 0 -55
-9 -75 -20 -20 -11 -49 -20 -65 -20 -16 0 -32 -5 -35 -10 -5 -8 -11 -8 -19 -1
-9 8 -20 3 -41 -19 -21 -22 -32 -27 -41 -19 -8 7 -14 7 -19 -1 -8 -13 -55 73
-55 100 0 24 21 42 35 30 8 -7 18 -4 30 10 13 14 31 20 61 20 24 0 46 5 49 10
3 6 16 10 28 11 12 0 36 9 52 19 36 22 47 24 63 8z"/>
<path d="M8838 3951 c-35 -40 -48 -67 -48 -104 0 -18 -5 -44 -12 -58 -13 -28
-55 -53 -64 -38 -4 6 -11 6 -19 -1 -21 -17 -34 10 -37 80 -3 61 -5 65 -28 68
-14 2 -30 8 -36 13 -14 12 -24 1 -24 -27 0 -13 -5 -26 -10 -29 -6 -4 -8 -11
-5 -16 11 -17 36 -9 45 14 7 18 9 13 9 -25 1 -26 -3 -50 -9 -53 -5 -3 -10 -17
-10 -30 0 -13 5 -27 10 -30 6 -3 10 -21 10 -40 0 -19 5 -37 10 -40 6 -3 10
-17 10 -30 0 -13 5 -27 10 -30 6 -3 10 -21 10 -40 0 -19 5 -37 10 -40 6 -3 10
-26 10 -50 0 -39 3 -45 32 -59 35 -18 203 -23 213 -6 3 6 17 10 30 10 13 0 27
5 30 10 3 6 17 10 30 10 13 0 27 5 30 10 3 6 16 10 29 10 27 0 56 29 56 56 0
11 5 25 11 31 8 8 8 13 0 17 -6 4 -11 23 -11 43 0 26 -5 36 -20 40 -16 4 -20
15 -22 62 l-3 56 -35 3 c-19 2 -39 8 -44 13 -6 5 -20 -1 -37 -17 -25 -24 -26
-27 -12 -55 8 -16 21 -29 29 -29 10 0 14 -12 14 -38 0 -53 -20 -92 -47 -92
-12 0 -25 -4 -28 -10 -3 -5 -19 -10 -36 -10 -16 0 -37 -5 -47 -11 -25 -16 -86
19 -90 52 -2 13 -8 28 -13 33 -17 18 -9 52 16 76 28 27 55 74 55 99 0 9 19 25
43 36 23 11 46 30 52 42 5 12 17 24 27 26 36 10 11 88 -35 112 -23 12 -27 10
-49 -14z"/>
<path d="M8254 3785 c-9 -22 9 -37 37 -33 16 2 24 10 24 23 0 26 -52 35 -61
10z"/>
<path d="M5767 3722 c-10 -10 -17 -27 -17 -38 0 -11 -5 -25 -11 -31 -8 -8 -8
-13 0 -17 6 -4 11 -18 11 -31 0 -13 5 -27 10 -30 6 -3 10 -21 10 -40 0 -19 5
-37 10 -40 6 -3 10 -17 10 -30 0 -13 5 -27 11 -31 8 -4 8 -9 0 -17 -18 -18
-13 -41 29 -122 44 -85 46 -96 28 -125 -11 -17 -9 -24 19 -51 l31 -32 55 27
c30 14 60 33 67 41 7 8 23 15 36 15 12 0 26 5 29 10 3 6 17 10 30 10 13 0 27
5 30 10 3 6 27 10 52 10 36 0 46 4 50 19 4 17 8 18 24 8 16 -10 23 -8 40 10
21 21 21 23 5 57 -16 34 -36 41 -36 13 0 -20 -50 -37 -107 -37 -34 0 -65 -7
-88 -20 -20 -11 -44 -20 -55 -20 -10 0 -22 -4 -25 -10 -3 -5 -22 -10 -41 -10
l-34 0 0 93 c0 59 4 97 12 105 7 7 31 12 54 12 24 0 46 5 49 10 3 6 21 10 40
10 19 0 37 5 40 10 3 6 17 10 30 10 13 0 27 5 30 10 3 6 19 10 34 10 36 0 91
28 91 46 0 12 4 12 20 2 17 -11 24 -8 53 20 24 23 36 29 44 21 8 -8 13 -8 17
0 4 6 17 11 30 11 13 0 30 8 39 18 16 17 14 21 -23 57 -43 42 -63 42 -85 -2
-18 -35 -36 -53 -70 -69 -28 -13 -37 -13 -54 -2 -16 10 -23 10 -33 0 -6 -6
-33 -12 -59 -12 -33 0 -64 -9 -104 -30 -31 -16 -65 -30 -75 -30 -11 0 -22 -4
-25 -10 -3 -5 -16 -10 -29 -10 -12 0 -27 -5 -34 -12 -9 -9 -12 -4 -12 23 0 23
-7 42 -20 54 -21 19 -27 60 -10 70 19 12 10 51 -18 78 -33 32 -81 36 -105 9z"/>
<path d="M6809 3682 c-34 -42 -39 -59 -21 -73 43 -35 59 -39 78 -18 9 10 26
19 37 19 11 0 29 8 39 17 18 16 18 17 -9 45 -27 28 -66 37 -78 18 -5 -8 -11
-8 -19 -1 -9 8 -17 6 -27 -7z"/>
<path d="M5158 3513 c-27 -13 -48 -31 -48 -39 0 -10 -12 -14 -38 -14 -22 0
-53 -7 -71 -16 -31 -15 -31 -17 -15 -35 13 -14 31 -19 70 -19 29 0 56 5 59 10
3 6 25 10 48 10 36 0 44 -4 55 -27 6 -15 12 -35 12 -44 0 -10 4 -20 9 -23 16
-10 -11 -52 -42 -66 -21 -9 -32 -9 -40 -1 -23 23 -66 9 -120 -38 l-27 -25 27
-28 c15 -15 33 -28 40 -28 7 0 13 -8 13 -18 0 -29 48 -116 67 -124 13 -5 9 -7
-14 -7 -18 -1 -48 -10 -68 -21 -42 -23 -52 -24 -88 -7 -23 10 -26 19 -29 67
-3 50 -5 55 -28 58 -14 2 -30 8 -36 13 -6 5 -14 6 -17 2 -10 -10 -8 -51 2 -57
12 -7 -10 -56 -25 -56 -13 0 -53 -42 -68 -72 -14 -28 -66 -38 -66 -13 0 18
-24 30 -40 20 -8 -5 -8 -11 -1 -19 8 -9 6 -18 -8 -30 -17 -16 -18 -20 -4 -47
17 -34 33 -37 58 -9 13 14 22 17 29 10 18 -18 52 -10 81 20 32 33 55 27 55
-16 0 -12 5 -26 10 -29 6 -3 10 -17 10 -30 0 -13 5 -27 10 -30 8 -5 7 -11 -1
-21 -10 -12 -8 -16 9 -21 24 -6 28 -23 10 -41 -9 -9 -6 -13 12 -20 15 -6 19
-11 12 -16 -7 -4 -12 -22 -12 -41 0 -19 -4 -37 -10 -40 -5 -3 -10 -17 -10 -30
0 -13 -4 -27 -10 -30 -5 -3 -10 -18 -10 -32 0 -25 0 -26 -20 -8 -36 32 -69
116 -72 180 l-3 60 -33 3 c-72 7 -98 -69 -42 -123 20 -19 27 -32 20 -39 -7 -7
-2 -18 12 -33 19 -20 20 -27 10 -43 -7 -12 -8 -21 -2 -25 14 -9 12 -91 -3
-103 -7 -6 -33 -12 -57 -14 -57 -4 -66 -29 -19 -52 18 -9 40 -16 49 -16 9 0
25 -9 35 -20 24 -27 36 -25 70 10 29 30 29 30 37 9 8 -21 9 -21 28 -4 14 13
20 31 20 62 0 31 4 43 14 43 33 0 46 58 46 200 0 79 -4 140 -10 146 -7 7 -4
16 10 29 21 19 28 79 10 90 -5 3 -10 22 -10 41 0 29 3 34 24 34 14 0 28 5 31
10 3 6 21 10 40 10 19 0 37 5 40 10 15 25 35 -13 35 -66 0 -29 5 -56 10 -59 6
-3 10 -17 10 -31 0 -22 -2 -23 -20 -12 -15 10 -22 10 -32 0 -6 -6 -31 -12 -54
-12 -43 0 -64 -13 -44 -25 8 -5 7 -11 -1 -21 -15 -18 35 -124 59 -124 12 0 13
-3 4 -12 -20 -20 -13 -53 18 -83 35 -34 37 -46 11 -69 -17 -15 -18 -22 -8 -40
18 -33 59 -76 72 -76 24 0 45 37 45 78 0 38 2 42 24 42 27 0 42 15 26 25 -8 5
-8 11 -1 19 16 19 3 26 -44 26 -46 0 -65 13 -65 46 0 13 -4 26 -10 29 -6 4 -5
13 2 25 10 15 10 22 0 32 -31 31 5 78 59 78 10 0 21 5 24 10 3 6 17 10 30 10
13 0 27 5 30 10 5 8 11 8 20 0 9 -8 15 -8 20 0 3 5 17 10 31 10 17 0 24 -6 24
-19 0 -10 12 -43 28 -72 31 -61 25 -99 -14 -99 -12 0 -28 -7 -35 -16 -7 -9
-23 -20 -36 -25 -13 -5 -23 -15 -23 -22 0 -20 36 -51 45 -38 3 6 22 11 41 11
27 0 37 5 44 23 5 14 9 16 9 6 1 -17 51 -69 67 -69 6 0 19 9 30 21 15 16 16
24 6 39 -7 11 -12 33 -12 49 0 17 -4 33 -10 36 -5 3 -10 21 -10 40 0 19 -4 37
-10 40 -5 3 -10 26 -10 50 0 24 -5 47 -10 50 -8 5 -8 11 0 20 8 9 8 15 0 20
-5 3 -10 21 -10 39 0 36 -25 66 -56 66 -11 0 -33 -13 -49 -30 -23 -24 -37 -30
-72 -30 -39 0 -43 2 -43 24 0 14 -4 28 -10 31 -5 3 -10 26 -10 51 0 40 2 44
23 44 13 0 32 9 42 20 10 11 30 20 45 20 14 0 50 12 79 26 l53 27 -38 38 c-32
33 -39 36 -58 26 -41 -23 -56 -40 -56 -64 0 -23 -23 -32 -35 -13 -11 17 -37
11 -42 -10 -3 -11 -11 -20 -18 -20 -6 0 -20 9 -30 20 -10 11 -25 20 -33 20
-12 0 -10 5 6 23 23 24 30 81 12 92 -17 11 -11 30 14 41 21 10 25 9 29 -7 7
-25 49 -25 70 -1 19 20 23 97 7 107 -5 3 -10 21 -10 39 0 17 -6 38 -12 44 -10
10 -10 17 0 32 7 12 8 21 2 25 -6 3 -10 14 -10 24 0 10 -7 32 -16 49 -13 26
-21 32 -47 31 -18 -1 -53 -12 -79 -26z"/>
<path d="M4766 3401 c-12 -13 -14 -21 -6 -26 8 -5 8 -11 -1 -21 -13 -16 -5
-44 13 -44 16 0 38 -46 38 -80 0 -14 4 -30 9 -35 5 -6 11 -26 13 -45 2 -28 8
-36 26 -38 13 -2 29 1 36 7 9 7 16 7 24 -1 8 -8 20 -6 47 7 l37 17 -28 29
c-19 20 -31 26 -38 19 -5 -5 -20 -10 -33 -10 -17 0 -23 6 -23 23 0 13 -5 28
-11 34 -8 8 -8 13 0 17 6 4 11 23 11 42 0 22 5 34 14 34 7 0 20 7 27 16 7 9
24 20 38 25 l25 10 -22 22 c-19 18 -25 20 -42 9 -24 -14 -96 -16 -105 -2 -10
16 -30 12 -49 -9z"/>
<path d="M6467 3402 c-10 -10 -17 -23 -17 -29 0 -17 -44 -51 -70 -55 -17 -2
-25 -9 -25 -23 0 -17 8 -21 50 -25 39 -4 52 -10 61 -28 6 -13 24 -37 40 -53
24 -25 26 -33 17 -48 -9 -14 -9 -21 0 -30 9 -9 9 -16 -1 -31 -15 -24 -16 -57
-2 -65 6 -3 10 -25 10 -49 0 -23 5 -47 12 -54 9 -9 9 -17 0 -34 -6 -13 -12
-32 -14 -43 -2 -11 -16 -26 -31 -33 -15 -7 -27 -20 -27 -28 0 -16 -26 -19 -35
-4 -10 16 -51 11 -69 -8 -15 -18 -15 -20 2 -35 10 -10 30 -17 45 -17 15 0 42
-9 62 -20 47 -26 73 -25 84 3 5 12 25 38 45 56 36 35 45 68 25 88 -8 8 -8 13
0 17 7 5 11 46 11 106 0 89 -3 103 -29 154 -17 30 -26 58 -20 61 12 8 12 52
-1 60 -5 3 -10 17 -10 30 0 13 5 27 10 30 17 10 11 71 -7 86 -53 42 -91 49
-116 21z"/>
<path d="M4517 3333 c-16 -15 -5 -51 22 -77 25 -24 28 -31 18 -47 -9 -14 -9
-21 1 -31 6 -6 12 -20 12 -30 0 -10 5 -27 12 -37 16 -27 -5 -51 -46 -52 -35
-1 -84 -26 -100 -51 -13 -21 21 -65 38 -48 5 5 25 10 44 10 25 0 35 5 39 19 4
17 7 18 35 4 16 -8 33 -26 38 -39 5 -13 16 -24 23 -24 23 0 47 35 47 67 0 17
8 38 20 48 11 10 20 25 20 33 0 11 3 12 14 2 25 -20 61 -8 64 21 2 21 -3 30
-27 42 -26 13 -32 13 -42 1 -41 -50 -109 -42 -109 13 0 17 -4 35 -10 38 -18
11 -11 71 10 90 19 17 19 19 4 37 -23 25 -64 24 -71 -3 l-6 -20 -22 21 c-12
11 -25 17 -28 13z"/>
<path d="M3827 3162 c-19 -21 -22 -53 -6 -69 8 -8 8 -13 0 -17 -14 -9 -15
-188 -1 -202 18 -18 -17 -41 -41 -26 -27 17 -29 16 -29 -17 0 -17 -5 -33 -10
-36 -17 -10 -1 -25 27 -25 17 0 27 7 30 20 4 16 8 18 19 9 16 -13 19 -55 4
-64 -5 -3 -10 -27 -10 -52 l0 -46 -22 19 c-40 34 -77 49 -90 36 -30 -30 -75
-4 -107 59 -11 22 -11 30 0 47 12 18 10 24 -8 44 -19 20 -23 37 -25 118 -3 93
-4 95 -28 98 -14 2 -29 7 -33 12 -5 4 -22 1 -38 -7 -23 -12 -29 -21 -29 -47 0
-20 8 -40 20 -51 11 -10 20 -28 20 -41 0 -13 5 -26 10 -29 6 -3 10 -17 10 -30
0 -13 5 -27 10 -30 6 -3 10 -30 10 -59 0 -50 -12 -76 -35 -76 -12 0 -35 47
-35 71 0 10 -5 21 -10 24 -8 5 -8 11 0 20 8 9 8 15 0 20 -5 3 -10 16 -10 29 0
12 -13 35 -29 50 -24 23 -36 27 -72 24 -43 -3 -44 -4 -47 -41 -3 -29 1 -39 15
-43 10 -4 37 -25 61 -47 33 -32 42 -48 42 -74 0 -32 -1 -33 -42 -33 -23 0 -49
-7 -59 -16 -15 -14 -15 -18 -2 -45 18 -36 55 -39 108 -9 20 11 45 20 55 20 17
0 18 -3 8 -19 -9 -15 -9 -23 1 -34 8 -10 9 -17 1 -22 -5 -3 -10 -16 -10 -29 0
-13 -9 -31 -20 -41 -11 -10 -20 -23 -20 -30 0 -7 -9 -20 -20 -30 -11 -10 -20
-23 -20 -30 0 -7 -9 -20 -20 -30 -24 -22 -26 -63 -4 -72 20 -7 99 69 121 117
9 19 24 44 33 55 10 11 23 35 31 53 11 26 20 32 44 33 16 0 43 8 60 18 33 19
70 9 79 -21 3 -14 15 -18 50 -18 42 0 46 -2 46 -23 0 -37 11 -40 42 -10 22 21
28 36 28 70 0 48 15 56 45 23 17 -19 19 -19 37 -4 19 18 24 59 8 69 -5 3 -10
17 -10 30 0 13 -4 27 -10 30 -5 3 -10 21 -10 38 0 25 6 35 27 45 15 6 35 12
44 12 10 0 21 5 25 11 10 16 74 -51 74 -77 0 -13 -4 -26 -10 -29 -5 -3 -10
-26 -10 -50 0 -24 5 -47 10 -50 6 -3 10 -21 10 -40 0 -19 5 -37 10 -40 6 -3
10 -17 10 -30 0 -13 -4 -27 -10 -30 -5 -3 -10 -17 -10 -30 0 -21 -2 -22 -25
-12 -18 9 -25 20 -25 42 0 23 -11 41 -38 68 l-38 38 -19 -21 c-16 -17 -17 -25
-7 -40 7 -11 12 -28 12 -38 0 -11 9 -27 20 -37 11 -10 20 -28 20 -40 0 -12 9
-30 20 -40 11 -10 20 -28 20 -40 0 -12 9 -30 20 -40 29 -27 25 -79 -12 -157
-30 -61 -58 -88 -58 -55 0 25 -55 67 -86 67 -17 0 -35 5 -42 12 -20 20 -15
123 9 164 23 41 19 64 -11 64 -11 0 -29 6 -40 12 -17 11 -24 8 -53 -20 -23
-22 -42 -32 -65 -32 -31 0 -32 2 -32 40 0 22 -6 50 -12 63 -30 52 -58 73 -58
42 0 -8 -9 -30 -20 -49 -11 -21 -15 -38 -10 -41 19 -12 11 -91 -10 -110 -25
-23 -25 -37 -1 -59 19 -18 19 -18 0 -52 -28 -50 -24 -70 15 -89 28 -14 38 -14
54 -4 31 19 52 -4 52 -56 0 -29 -6 -47 -20 -60 -11 -10 -20 -24 -20 -32 0 -15
-26 -18 -35 -3 -12 20 -25 9 -25 -20 0 -18 -5 -30 -13 -30 -13 0 -87 -70 -87
-83 0 -4 12 -7 28 -6 41 1 125 51 140 82 8 16 25 32 38 37 17 7 24 17 24 35 0
19 5 25 22 25 24 0 78 46 78 67 0 7 4 13 8 13 18 0 114 -54 119 -67 3 -8 -8
-29 -27 -48 -20 -21 -30 -40 -27 -49 10 -26 51 -18 82 14 16 17 35 30 42 30 7
0 17 10 22 23 5 12 21 33 35 46 14 14 26 30 26 36 0 7 9 20 20 30 12 11 20 31
20 49 0 60 88 60 110 0 5 -13 16 -24 23 -24 8 0 22 -9 32 -20 10 -11 28 -20
41 -20 13 0 26 -4 29 -10 3 -5 17 -10 30 -10 13 0 27 -5 30 -10 4 -6 11 -8 16
-5 12 8 11 52 -2 60 -7 5 -4 14 8 29 26 31 43 63 36 70 -4 3 -18 6 -33 6 -15
0 -62 18 -105 40 -43 22 -85 40 -94 40 -10 0 -22 5 -29 12 -14 14 -16 94 -2
103 6 3 10 26 10 50 0 24 -4 47 -10 50 -13 8 -13 68 1 82 8 8 8 13 0 17 -6 4
-11 22 -11 41 0 19 -4 37 -10 40 -5 3 -10 26 -10 50 0 24 -4 47 -10 50 -5 3
-10 26 -10 51 0 43 0 44 34 44 28 0 37 5 49 29 14 28 13 30 -22 65 -20 20 -46
36 -57 36 -25 0 -54 -30 -54 -56 0 -22 -41 -44 -81 -44 -15 0 -31 -4 -34 -10
-3 -5 -31 -10 -61 -10 l-54 0 0 64 c0 36 5 68 10 71 6 3 10 19 10 36 0 16 5
38 12 48 14 24 1 43 -45 66 -38 19 -40 19 -60 -3z m-66 -864 c14 -6 30 -22 36
-34 9 -19 7 -23 -8 -27 -12 -3 -19 -14 -19 -29 0 -45 -32 -59 -83 -35 -24 11
-27 17 -27 63 0 27 5 55 12 62 15 15 57 15 89 0z"/>
<path d="M6328 3083 c-8 -10 -21 -32 -29 -50 -10 -23 -17 -29 -25 -22 -8 7
-14 6 -19 -1 -3 -5 -15 -10 -25 -10 -11 0 -35 -9 -55 -20 -27 -15 -54 -20
-115 -20 -43 0 -82 -4 -85 -10 -3 -5 -19 -10 -34 -10 -33 0 -169 -68 -185 -92
-8 -13 -6 -22 8 -37 23 -25 51 -26 91 -1 l30 18 32 -31 c32 -30 58 -32 34 -3
-9 11 -9 16 1 23 31 19 61 33 77 34 26 1 75 34 86 57 8 19 18 22 62 22 28 0
55 5 58 10 3 6 17 10 30 10 13 0 27 4 30 10 4 6 13 5 25 -2 16 -10 23 -9 44
11 15 14 26 19 31 12 10 -17 50 -13 68 7 24 26 21 52 -9 83 -22 23 -29 26 -45
16 -14 -9 -21 -9 -31 1 -17 17 -32 15 -50 -5z"/>
<path d="M3635 3050 c-17 -17 -23 -30 -16 -34 6 -4 11 -39 11 -81 0 -42 5 -77
11 -80 7 -5 3 -16 -12 -31 -23 -24 -20 -54 5 -54 7 0 16 -9 19 -21 8 -31 61
-23 65 10 2 13 -1 28 -7 34 -6 6 -11 19 -11 29 0 10 -6 27 -12 38 -10 15 -10
22 0 32 6 6 12 22 12 34 0 13 8 24 20 27 26 7 28 68 3 88 -48 38 -59 39 -88 9z"/>
<path d="M7235 2910 c-8 -12 20 -24 35 -15 6 3 8 11 5 16 -8 12 -32 12 -40 -1z"/>
<path d="M7667 2882 c-21 -23 -21 -36 -2 -52 20 -16 45 -68 45 -93 0 -15 -3
-17 -13 -8 -11 8 -18 6 -31 -8 -11 -12 -14 -21 -7 -26 6 -3 11 -17 11 -30 0
-26 15 -41 25 -25 3 5 23 10 45 10 23 0 60 12 93 29 36 19 58 26 65 19 6 -6
12 -6 16 1 13 20 36 12 36 -13 0 -14 5 -28 10 -31 20 -13 9 -31 -30 -48 -31
-13 -40 -22 -40 -42 0 -20 -5 -25 -24 -25 -14 0 -28 -4 -31 -10 -3 -5 -21 -10
-40 -10 -19 0 -37 -4 -40 -10 -3 -5 -26 -10 -50 -10 -38 0 -45 -4 -58 -29 -14
-27 -13 -31 5 -47 16 -15 23 -16 38 -6 11 7 29 12 39 12 11 0 23 5 26 10 3 6
21 10 39 10 20 0 40 8 51 20 13 14 31 20 60 20 22 0 45 4 51 9 5 5 20 11 34
13 27 3 40 42 21 61 -17 17 -13 52 9 72 11 10 20 24 20 32 0 7 6 13 14 13 38
0 64 134 29 147 -10 3 -28 15 -40 26 -21 19 -24 19 -58 3 -26 -13 -35 -23 -35
-41 0 -18 -5 -25 -20 -25 -11 0 -35 -9 -55 -20 -44 -25 -55 -25 -55 -1 0 47
-53 101 -99 101 -9 0 -22 5 -27 10 -7 7 -16 5 -27 -8z"/>
<path d="M2446 2761 c-11 -12 -14 -21 -7 -26 6 -3 11 -21 11 -40 0 -19 5 -37
10 -40 6 -3 10 -21 10 -39 0 -20 8 -40 20 -51 15 -14 20 -31 20 -71 0 -29 5
-56 10 -59 6 -3 10 -13 10 -21 0 -17 -33 -18 -60 -2 -16 10 -23 9 -43 -10 -13
-13 -36 -22 -54 -22 -17 0 -37 -8 -48 -20 -13 -14 -31 -20 -61 -20 -24 0 -46
-4 -49 -10 -3 -5 -21 -10 -40 -10 -27 0 -36 -6 -48 -29 -13 -27 -13 -31 2 -45
20 -18 76 -22 86 -6 3 6 15 10 25 10 11 0 36 9 57 21 29 16 41 19 55 10 11 -7
19 -7 23 -1 3 6 19 10 35 10 15 0 54 14 85 30 69 36 75 37 75 7 0 -13 6 -29
12 -35 10 -10 10 -17 1 -31 -8 -12 -8 -22 -1 -29 6 -6 6 -12 -1 -16 -14 -9
-15 -232 -1 -241 16 -10 12 -41 -10 -80 -22 -39 -26 -70 -10 -80 16 -10 12
-35 -5 -35 -9 0 -19 -10 -24 -23 -5 -13 -16 -29 -25 -36 -9 -7 -16 -23 -16
-35 0 -12 -13 -35 -30 -51 -16 -16 -30 -35 -30 -42 0 -7 -6 -13 -13 -13 -7 0
-30 -17 -50 -38 -46 -47 -49 -84 -10 -124 25 -26 28 -27 45 -11 10 9 18 21 18
28 0 6 14 24 30 40 17 16 30 34 30 39 0 6 10 16 22 21 13 6 28 20 34 32 6 13
18 31 27 41 10 10 17 23 17 29 0 6 9 13 20 16 16 4 20 14 20 50 0 31 6 49 20
62 11 10 20 28 20 40 0 11 6 27 12 33 10 10 10 17 0 32 -7 12 -8 21 -2 25 6 3
10 30 10 60 0 30 5 57 10 60 6 3 10 35 10 71 0 50 3 64 15 64 8 0 15 -6 15
-13 0 -7 23 -35 50 -62 28 -27 50 -54 50 -59 0 -6 16 -27 36 -47 20 -20 41
-48 48 -60 6 -13 21 -28 33 -34 33 -17 54 -37 64 -62 5 -13 17 -23 28 -23 10
0 45 -13 76 -30 66 -35 132 -41 142 -12 3 9 15 27 25 38 13 15 18 33 16 55 -3
30 -7 34 -36 37 -18 2 -40 -2 -48 -9 -11 -9 -14 -8 -14 5 0 9 -17 23 -39 33
-22 10 -42 25 -44 35 -5 19 -32 24 -42 8 -9 -15 -55 -12 -55 3 0 15 -71 87
-86 87 -5 0 -54 45 -109 100 -68 68 -107 100 -122 100 -20 0 -23 5 -23 43 0
31 -6 49 -20 62 -11 10 -17 21 -15 26 11 17 70 39 106 39 21 0 41 5 44 10 3 6
15 10 25 10 11 0 35 9 55 20 20 11 47 20 60 20 14 0 34 6 45 12 15 10 22 10
31 1 21 -21 89 27 89 62 0 26 -15 40 -75 71 -50 25 -53 23 -89 -49 -18 -35
-27 -43 -54 -45 -18 -2 -58 -17 -88 -33 -60 -31 -84 -35 -101 -18 -8 8 -13 8
-17 0 -4 -6 -18 -11 -32 -11 -21 0 -24 5 -24 33 0 24 -8 41 -30 62 -20 19 -27
32 -20 39 5 5 10 42 10 81 0 57 -4 75 -18 88 -26 24 -94 22 -116 -2z"/>
<path d="M4671 2756 c-6 -14 -26 -32 -48 -42 -41 -19 -113 -81 -113 -99 0 -6
22 -32 48 -58 l48 -47 24 27 c40 45 50 70 50 124 0 44 2 50 14 39 8 -6 25 -10
38 -8 20 3 23 9 23 43 0 39 -1 40 -38 43 -32 3 -38 0 -46 -22z"/>
<path d="M7357 2773 c-4 -3 -7 -17 -7 -30 0 -13 -6 -23 -13 -23 -8 0 -22 -9
-32 -20 -12 -14 -33 -20 -74 -22 l-56 -3 -3 -55 c-2 -30 -8 -60 -14 -68 -9
-10 -6 -14 10 -19 17 -4 22 -13 22 -38 0 -19 8 -39 20 -50 15 -13 20 -31 20
-66 0 -30 8 -62 20 -84 12 -22 20 -54 20 -85 0 -27 5 -52 10 -55 6 -3 10 -27
10 -52 0 -36 4 -46 20 -50 17 -5 20 -14 20 -69 0 -34 5 -66 10 -69 6 -3 10
-21 10 -40 0 -19 5 -37 10 -40 6 -3 10 -17 10 -30 0 -13 5 -27 10 -30 6 -3 10
-17 10 -30 0 -13 5 -27 10 -30 6 -3 10 -17 10 -30 0 -13 5 -27 10 -30 6 -3 10
-16 10 -29 0 -22 47 -76 66 -76 6 0 18 8 27 18 19 21 24 117 7 127 -5 3 -10
21 -10 40 0 19 -4 37 -10 40 -5 3 -10 21 -10 39 0 20 -8 40 -20 51 -27 25 -25
57 4 71 22 10 28 8 52 -17 15 -16 33 -29 39 -29 6 0 28 17 48 38 l37 38 0 91
c0 55 -4 95 -11 98 -7 5 -2 16 12 31 30 31 79 32 105 2 31 -37 45 -66 34 -73
-13 -8 -13 -72 0 -80 6 -3 10 -17 10 -30 0 -13 -4 -27 -10 -30 -5 -3 -10 -15
-10 -25 0 -11 -9 -35 -20 -55 -11 -20 -20 -48 -20 -64 0 -15 -9 -36 -20 -46
-11 -10 -20 -23 -20 -30 0 -6 -14 -24 -30 -40 -43 -42 -39 -79 10 -83 28 -2
41 3 65 28 16 16 34 30 41 30 7 0 27 29 44 65 17 35 35 67 40 70 15 9 40 67
40 92 0 24 -14 54 -39 85 -11 14 -17 15 -28 7 -10 -9 -13 -8 -13 5 0 10 8 16
23 16 13 0 31 8 41 18 15 18 15 20 -4 37 -17 15 -20 31 -20 92 0 53 4 73 13
73 22 0 37 -23 37 -56 0 -18 5 -36 10 -39 6 -3 10 -14 10 -25 0 -10 14 -44 30
-75 21 -41 30 -71 30 -105 0 -27 5 -52 10 -55 6 -3 10 -21 10 -39 0 -34 30
-70 81 -95 30 -15 52 -6 105 42 20 18 34 25 38 18 13 -20 56 -12 65 12 5 12
21 33 35 46 20 19 23 27 14 38 -8 10 -8 20 2 38 15 28 5 47 -39 68 -18 8 -27
21 -29 42 -1 17 -7 39 -12 50 -5 11 -10 29 -12 40 -4 26 -44 32 -69 9 -20 -18
-26 -78 -9 -89 6 -3 10 -17 10 -30 0 -13 5 -27 10 -30 6 -3 10 -16 10 -28 0
-27 -39 -47 -92 -47 -34 0 -38 3 -38 26 0 17 -6 28 -20 31 -13 3 -20 14 -20
29 0 12 -4 26 -10 29 -5 3 -10 33 -10 65 0 41 -6 71 -20 96 -18 31 -19 40 -8
65 10 23 19 29 43 29 17 0 37 -6 43 -12 10 -10 14 -8 18 10 4 14 14 22 29 22
12 0 30 9 40 19 15 18 16 24 4 51 -14 31 -57 60 -90 60 -11 0 -26 -17 -41 -47
l-23 -48 -56 -3 c-40 -2 -62 -8 -74 -22 -13 -14 -21 -16 -34 -8 -13 8 -26 5
-54 -11 -21 -12 -46 -21 -55 -21 -10 0 -31 -13 -47 -30 -31 -32 -80 -41 -103
-18 -10 10 -17 10 -32 0 -17 -10 -20 -10 -20 3 0 9 -11 20 -25 25 -14 5 -29
20 -34 32 -5 13 -21 34 -35 47 -26 25 -35 65 -16 76 6 3 10 24 10 45 0 22 9
56 21 77 16 29 19 41 10 55 -14 23 -14 44 1 68 11 17 8 24 -17 50 -16 16 -39
30 -51 30 -13 0 -26 5 -29 10 -7 11 -28 13 -38 3z m-7 -227 c0 -49 5 -88 10
-91 8 -5 7 -11 -1 -21 -10 -12 -8 -16 9 -21 16 -4 22 -13 22 -34 0 -45 57
-129 87 -129 7 0 13 -6 13 -13 0 -8 9 -22 20 -32 11 -10 20 -28 20 -41 0 -13
5 -26 10 -29 6 -3 10 -30 10 -58 0 -48 -2 -53 -30 -65 -45 -20 -81 -12 -101
23 -10 17 -18 40 -18 52 -1 12 -5 25 -11 28 -5 3 -10 15 -10 25 0 11 -9 35
-20 54 -12 23 -16 38 -9 42 8 4 7 10 0 17 -6 6 -11 32 -11 57 0 48 -19 98 -45
120 -10 8 -15 32 -15 71 0 33 -5 68 -12 78 -17 27 5 51 48 51 l34 0 0 -84z"/>
<path d="M7537 2713 c-4 -3 -7 -16 -7 -28 0 -11 -5 -26 -11 -32 -8 -8 -8 -13
0 -17 14 -9 14 -49 0 -63 -5 -5 -9 -30 -7 -54 l3 -44 50 0 50 0 3 76 c2 66 5
78 22 82 18 5 19 7 6 32 -21 40 -88 70 -109 48z"/>
<path d="M6637 2593 c-11 -10 -8 -111 2 -118 6 -3 -3 -31 -20 -61 -24 -46 -29
-68 -29 -124 0 -46 -5 -71 -14 -79 -10 -8 -16 -9 -21 -1 -3 5 -17 10 -31 10
-22 0 -24 3 -24 54 0 30 -4 58 -10 61 -5 3 -10 16 -10 29 0 12 -12 33 -26 47
-14 13 -30 34 -35 47 -5 14 -17 22 -32 22 -13 0 -28 5 -34 11 -19 19 -58 6
-61 -20 -2 -13 1 -28 7 -34 6 -6 11 -20 11 -32 0 -29 89 -115 120 -115 19 0
21 -3 12 -12 -7 -7 -12 -31 -12 -55 0 -29 -4 -43 -13 -43 -21 0 -50 -37 -44
-55 6 -13 10 -13 39 3 25 14 37 16 50 8 13 -8 22 -5 41 12 19 18 35 22 84 22
42 0 64 5 73 15 17 20 68 43 105 47 22 2 30 8 30 23 0 23 -40 34 -58 16 -6 -6
-20 -11 -32 -11 -12 0 -26 -5 -33 -12 -9 -9 -12 -6 -12 14 0 15 5 30 10 33 6
3 10 25 10 49 0 30 6 48 20 61 14 13 20 31 20 60 0 22 5 46 11 52 6 6 9 21 7
34 -2 19 -10 25 -38 27 -19 2 -40 8 -46 13 -6 5 -14 6 -17 2z"/>
<path d="M6075 2389 c-8 -12 18 -71 40 -89 8 -7 15 -18 15 -25 0 -6 9 -20 20
-30 11 -10 20 -23 20 -30 0 -6 14 -24 30 -40 17 -16 30 -39 30 -52 0 -25 -19
-30 -38 -11 -10 10 -17 10 -34 -1 -17 -10 -25 -11 -44 0 -20 10 -27 10 -44 -6
-16 -15 -20 -31 -20 -90 0 -40 -5 -76 -11 -82 -9 -9 -5 -26 16 -68 20 -41 30
-54 38 -46 6 6 22 11 35 11 15 0 26 7 29 19 3 11 13 21 24 24 22 6 27 65 7 85
-10 10 -10 17 0 33 12 18 11 21 -7 26 -12 3 -18 9 -16 14 10 15 68 39 95 39
14 0 30 4 36 9 5 5 20 11 34 13 19 2 26 10 28 30 3 22 -2 30 -23 38 -29 11
-43 36 -28 51 7 7 3 25 -12 56 -31 61 -65 96 -80 83 -9 -7 -16 -6 -25 5 -29
34 -102 56 -115 34z"/>
<path d="M6880 2353 c-48 -54 -62 -97 -39 -120 8 -8 8 -13 0 -17 -6 -4 -11
-27 -11 -52 l0 -44 -53 0 c-49 0 -56 -3 -92 -40 -33 -34 -45 -40 -81 -40 -24
0 -46 -4 -49 -10 -3 -5 -16 -10 -29 -10 -24 0 -81 -52 -69 -63 3 -4 15 -7 25
-7 10 0 27 -5 38 -12 16 -10 23 -9 43 10 13 12 33 22 45 22 19 0 22 -5 22 -45
0 -41 -2 -45 -25 -45 -33 0 -63 -58 -44 -88 16 -26 -2 -52 -37 -52 -12 0 -26
-4 -29 -10 -3 -5 -24 -10 -45 -10 -22 0 -55 -9 -75 -20 -20 -11 -49 -20 -65
-20 -16 0 -32 -4 -35 -10 -9 -14 -68 -13 -83 2 -8 8 -14 5 -21 -16 -6 -14 -22
-31 -36 -36 -48 -18 -30 -66 37 -100 25 -12 30 -11 48 5 11 10 20 24 20 32 0
15 41 18 56 3 7 -7 20 0 39 20 23 24 37 30 71 30 24 0 45 -4 48 -9 8 -12 66
17 66 33 0 7 11 23 25 36 36 33 59 18 63 -41 2 -24 7 -48 12 -53 5 -5 4 -16
-3 -26 -8 -13 -8 -22 0 -32 14 -17 -16 -72 -43 -76 -10 -2 -33 -10 -51 -18
-31 -14 -31 -15 -16 -44 8 -18 22 -30 33 -30 11 0 35 -9 55 -20 54 -30 85 -26
128 18 33 34 37 43 37 89 0 29 -4 55 -10 58 -5 3 -10 17 -10 30 0 13 -4 27
-10 30 -5 3 -10 17 -10 31 0 17 -8 27 -24 34 -29 11 -40 26 -26 35 5 3 10 27
10 52 0 37 3 43 13 34 8 -6 17 -8 20 -4 14 14 6 34 -17 43 -21 8 -56 59 -56
82 0 4 10 8 23 8 27 0 67 40 91 92 9 20 29 43 44 50 15 7 36 32 48 56 12 23
29 51 38 60 9 10 16 28 16 40 0 12 6 22 14 22 17 0 71 104 61 119 -3 6 -12 11
-20 11 -7 0 -15 12 -17 27 -4 37 -28 40 -58 6z"/>
<path d="M3474 2289 c-3 -5 -15 -9 -28 -9 -23 0 -56 -28 -56 -47 0 -5 9 -18
20 -28 19 -17 21 -17 75 9 30 15 55 34 55 41 0 17 -58 47 -66 34z"/>
<path d="M5615 2250 c-3 -5 -18 -10 -32 -10 -16 0 -27 -7 -30 -20 -4 -15 -14
-20 -42 -20 -21 0 -66 -15 -109 -36 -70 -35 -72 -37 -56 -55 18 -20 59 -26 69
-9 3 6 26 10 50 10 24 0 47 5 50 10 9 14 48 13 63 -2 7 -7 12 -36 12 -64 0
-29 5 -56 10 -59 6 -3 10 -17 10 -30 0 -13 5 -27 10 -30 8 -5 7 -11 -1 -21
-19 -23 13 -77 55 -94 42 -16 48 -46 16 -75 -11 -10 -20 -24 -20 -32 0 -16
-46 -18 -55 -2 -5 7 -15 4 -29 -9 -11 -10 -38 -26 -58 -36 -21 -9 -38 -23 -38
-30 0 -25 37 -48 72 -44 28 2 34 7 36 31 3 23 8 27 37 27 19 0 37 5 40 10 3 6
25 10 49 10 23 0 46 4 52 9 5 5 20 11 34 13 17 2 26 10 28 26 4 29 -17 54 -63
72 l-35 14 0 72 c0 40 -4 76 -10 79 -5 3 -10 17 -10 30 0 13 -4 27 -10 30 -5
3 -10 15 -10 25 0 11 -9 36 -21 57 -16 29 -19 41 -10 55 6 10 11 31 11 46 0
42 -48 80 -65 52z"/>
<path d="M5043 2125 c-13 -6 -31 -19 -40 -27 -10 -8 -26 -18 -35 -21 -10 -4
-18 -17 -18 -30 0 -29 -17 -47 -45 -47 -12 0 -34 -13 -50 -30 -16 -16 -38 -30
-50 -30 -27 0 -59 -34 -52 -55 7 -17 52 -21 62 -5 3 6 15 10 25 10 11 0 34 8
53 19 l33 19 17 -39 c9 -22 24 -39 32 -39 12 0 15 -14 15 -62 0 -59 -2 -64
-27 -75 -15 -7 -36 -13 -48 -13 -30 0 -125 -49 -125 -64 0 -17 33 -46 52 -46
9 0 41 13 72 29 l56 30 0 -23 c0 -13 9 -31 20 -41 21 -19 28 -79 10 -90 -5 -3
-10 -17 -10 -30 0 -13 -4 -27 -10 -30 -6 -3 -10 -52 -10 -110 0 -58 -4 -107
-10 -110 -5 -3 -10 -44 -10 -91 0 -67 3 -86 15 -91 21 -8 55 25 55 53 0 13 5
26 10 29 6 3 10 26 10 50 0 24 5 47 10 50 6 3 10 31 10 61 0 38 4 54 13 54 22
0 37 -23 37 -56 0 -18 5 -36 10 -39 6 -3 10 -21 10 -39 0 -20 8 -40 20 -51 11
-10 20 -31 20 -46 0 -16 9 -45 21 -66 16 -29 19 -41 10 -55 -16 -26 -13 -53 7
-71 25 -23 34 -22 67 13 25 26 28 33 17 50 -7 11 -12 26 -12 33 0 23 -31 77
-43 77 -16 0 -38 48 -26 56 17 10 10 121 -10 156 -13 25 -15 37 -7 50 8 13 5
22 -12 41 -16 17 -22 36 -22 67 l0 44 33 -32 c43 -41 71 -41 91 0 9 17 16 39
16 50 0 10 6 18 13 18 8 0 22 9 32 20 10 11 26 20 35 20 9 0 31 7 49 16 31 15
31 17 15 35 -18 20 -59 26 -69 9 -3 -5 -27 -10 -52 -10 -36 0 -46 -4 -50 -20
-6 -21 -42 -27 -59 -10 -7 7 -19 1 -38 -19 -26 -27 -29 -28 -57 -14 -34 17
-43 29 -29 38 5 3 10 21 10 39 0 37 34 76 67 76 14 0 27 11 36 29 14 28 13 31
-15 57 -36 35 -51 29 -85 -35 -1 -2 -16 3 -32 10 -21 9 -31 21 -31 35 0 11 -9
29 -20 39 -14 13 -17 22 -10 29 5 5 10 28 10 51 0 39 1 41 60 68 48 22 60 32
60 51 0 24 -28 56 -48 56 -7 0 -12 6 -12 14 0 21 -12 24 -37 11z"/>
<path d="M5255 2130 c-3 -5 -16 -10 -29 -10 -27 0 -63 -35 -47 -45 6 -3 11
-19 11 -35 0 -16 9 -45 20 -65 11 -20 20 -44 20 -55 0 -10 5 -22 10 -25 6 -3
10 -33 10 -66 0 -121 79 -188 117 -99 13 29 24 40 40 40 12 0 25 5 28 10 3 6
17 10 30 10 13 0 27 5 30 10 3 6 19 10 34 10 15 0 43 7 61 16 l32 17 -31 30
-30 31 -42 -22 c-22 -12 -53 -22 -68 -22 -15 0 -32 -5 -38 -11 -29 -29 -90 22
-92 78 -1 12 -5 25 -11 28 -18 11 -12 90 9 109 17 16 18 20 4 47 -15 29 -55
41 -68 19z"/>
<path d="M6245 1926 c-21 -43 -14 -56 29 -56 43 0 47 5 30 40 -26 51 -40 55
-59 16z"/>
<path d="M6334 1945 c-9 -22 9 -37 37 -33 16 2 24 10 24 23 0 26 -52 35 -61
10z"/>
<path d="M6958 1943 c-16 -8 -28 -20 -28 -27 0 -7 -9 -21 -20 -31 -11 -10 -20
-24 -20 -32 0 -7 -10 -13 -23 -13 -13 0 -27 -4 -32 -9 -6 -5 -26 -11 -45 -13
-29 -2 -36 -7 -38 -29 -2 -15 5 -32 16 -42 18 -16 20 -16 37 3 20 22 93 28
112 9 8 -8 13 -8 17 0 4 6 22 11 41 11 19 0 37 5 40 10 3 6 16 10 29 10 34 0
56 31 56 77 0 40 -10 54 -57 81 -28 15 -50 14 -85 -5z"/>
<path d="M4337 1853 c-4 -3 -7 -21 -7 -38 0 -46 -62 -95 -119 -95 -17 0 -33
-4 -36 -10 -8 -13 -48 -13 -61 0 -7 7 -16 4 -29 -10 -10 -11 -23 -20 -30 -20
-32 0 -60 -69 -35 -85 6 -3 10 -21 10 -40 0 -19 5 -37 10 -40 6 -3 10 -39 10
-80 0 -41 5 -77 10 -80 6 -3 10 -14 10 -25 0 -10 14 -44 30 -75 17 -31 30 -70
30 -85 0 -16 5 -32 10 -35 6 -3 10 -32 10 -63 0 -49 7 -72 51 -159 64 -128 62
-133 -56 -133 -69 0 -85 -3 -100 -20 -14 -16 -21 -17 -32 -8 -11 9 -15 7 -20
-10 -4 -18 -13 -22 -49 -22 -23 0 -46 -4 -49 -10 -3 -5 -16 -10 -29 -10 -30 0
-58 -32 -54 -62 2 -19 10 -23 47 -26 46 -3 81 17 81 47 0 12 3 12 12 3 7 -7
26 -12 44 -12 24 0 33 -5 37 -21 6 -21 27 -18 27 4 0 19 50 37 103 37 38 0 50
4 53 18 5 18 47 42 75 42 10 0 21 4 24 10 3 5 16 10 29 10 12 0 27 5 34 12 9
9 17 8 37 -2 20 -10 28 -11 37 -2 7 7 22 12 34 12 13 0 26 5 29 10 3 6 25 10
49 10 30 0 48 6 61 20 10 11 28 20 41 20 13 0 26 5 29 10 3 6 14 10 24 10 10
0 32 7 49 16 44 21 41 51 -7 98 -34 33 -43 37 -82 34 -40 -3 -44 -6 -49 -33
-4 -23 -16 -35 -55 -56 -28 -15 -64 -28 -82 -28 -17 -1 -35 -6 -38 -11 -3 -6
-17 -10 -30 -10 -13 0 -27 -4 -30 -10 -8 -13 -72 -13 -80 0 -5 8 -11 7 -21 -1
-11 -9 -14 -8 -14 4 0 9 5 19 10 22 6 3 10 35 10 70 0 35 -4 67 -10 70 -5 3
-10 23 -10 44 0 25 -14 66 -40 117 -36 69 -39 81 -29 101 10 18 10 26 1 35 -7
7 -12 27 -12 44 0 18 -5 36 -10 39 -8 5 -8 11 0 20 7 9 6 16 -6 26 -9 7 -20
23 -25 36 -6 16 -17 23 -34 23 -20 0 -25 5 -25 24 0 14 5 28 10 31 6 3 10 22
10 41 0 29 3 34 24 34 14 0 28 5 31 10 3 6 30 10 60 10 30 0 57 5 60 10 5 8
11 8 20 0 9 -8 15 -8 20 0 3 5 24 10 46 10 72 0 119 38 119 95 0 42 -9 55 -57
83 -24 13 -95 17 -106 5z"/>
<path d="M3931 1638 c-12 -31 -31 -46 -31 -23 0 28 -25 27 -84 -5 -41 -21 -72
-30 -105 -30 -40 0 -52 -5 -76 -30 -34 -35 -29 -53 22 -81 30 -17 31 -17 59
12 15 16 36 29 46 29 9 0 33 9 52 20 21 11 38 15 41 10 12 -19 57 -11 62 10 4
15 14 20 39 20 49 0 55 24 16 63 l-31 31 -10 -26z"/>
<path d="M5132 1589 c2 -6 8 -10 13 -10 5 0 11 4 13 10 2 6 -4 11 -13 11 -9 0
-15 -5 -13 -11z"/>
<path d="M5546 1528 c-21 -40 -20 -50 4 -93 11 -20 20 -51 20 -69 0 -40 26
-96 46 -96 16 0 19 -45 4 -55 -8 -5 -7 -11 1 -21 6 -7 9 -20 6 -28 -6 -16 -62
-46 -85 -46 -9 0 -26 -10 -39 -22 -19 -18 -27 -20 -42 -11 -10 6 -22 8 -27 3
-5 -5 -20 -10 -34 -12 -33 -4 -39 -46 -11 -72 19 -18 22 -18 56 -2 19 9 35 23
35 31 0 11 13 15 50 15 31 0 63 7 84 20 21 11 38 15 41 10 13 -21 87 1 115 35
7 8 27 15 46 15 18 0 36 5 39 10 3 6 24 10 46 10 38 0 66 11 102 39 24 19 22
73 -3 96 -11 10 -20 24 -20 32 0 7 -7 16 -15 20 -17 6 -55 -23 -55 -42 0 -7
-9 -15 -20 -18 -11 -3 -20 -12 -20 -21 0 -9 -7 -16 -16 -16 -9 0 -18 -8 -21
-18 -2 -10 -18 -24 -34 -31 -26 -12 -32 -11 -50 5 -29 26 -49 73 -49 115 0 21
-4 41 -10 44 -15 9 -12 55 3 55 7 0 19 -6 25 -12 10 -10 17 -10 32 0 11 6 31
12 45 12 25 0 55 13 87 39 14 11 15 17 5 35 -24 43 -41 56 -71 56 -30 0 -86
-42 -86 -64 0 -10 -45 -36 -62 -36 -4 0 -8 9 -8 20 0 21 -15 52 -39 83 -23 28
-57 21 -75 -15z"/>
<path d="M5514 1391 c-5 -5 -20 -11 -34 -13 -26 -3 -37 -27 -26 -55 5 -13 9
-14 18 -5 7 7 22 12 33 12 12 0 29 8 39 18 15 18 15 20 -2 35 -11 10 -22 13
-28 8z"/>
<path d="M5387 1342 c-20 -21 -13 -32 19 -32 31 0 37 14 15 34 -16 15 -19 15
-34 -2z"/>
</g>
</svg>
