<?xml version="1.0" encoding="UTF-8" standalone="no"?>
<svg
   width="200"
   height="200"
   viewBox="-0.2 0 200 200"
   version="1.1"
   id="svg20"
   sodipodi:docname="swfulogo-emblem-ink.svg"
   inkscape:version="1.2.2 (b0a8486541, 2022-12-01)"
   xmlns:inkscape="http://www.inkscape.org/namespaces/inkscape"
   xmlns:sodipodi="http://sodipodi.sourceforge.net/DTD/sodipodi-0.dtd"
   xmlns="http://www.w3.org/2000/svg"
   xmlns:svg="http://www.w3.org/2000/svg">
  <defs
     id="defs24" />
  <sodipodi:namedview
     id="namedview22"
     pagecolor="#ffffff"
     bordercolor="#000000"
     borderopacity="0.25"
     inkscape:showpageshadow="2"
     inkscape:pageopacity="0.0"
     inkscape:pagecheckerboard="0"
     inkscape:deskcolor="#d1d1d1"
     showgrid="false"
     inkscape:zoom="4.13"
     inkscape:cx="100.12107"
     inkscape:cy="100"
     inkscape:window-width="1914"
     inkscape:window-height="1074"
     inkscape:window-x="0"
     inkscape:window-y="0"
     inkscape:window-maximized="1"
     inkscape:current-layer="svg20" />
  <path
     d="M 99.962,196.211 C 56.887209,197.10117 16.00309,165.05236 6.3121598,123.10387 -3.3032698,85.268406 12.616257,42.489943 45.152757,20.7045 77.190317,-1.6739396 122.94395,-1.931125 154.79515,20.963558 c 30.4253,20.9845 46.90749,60.237137 39.69928,96.614802 -6.85403,38.22078 -38.72694,70.55514 -77.14801,77.03445 -5.73032,1.05635 -11.55648,1.59316 -17.38342,1.59819 M 99.637,0.001 C 55.338053,-0.74652911 13.315896,31.957555 2.8822384,74.983584 -7.3842972,113.7333 8.1580671,157.79912 40.999445,180.98793 73.624938,205.01092 121.01241,206.50551 154.66813,183.6845 186.65182,162.8989 204.92155,123.01428 198.7928,85.228991 193.2017,46.315804 162.86066,12.229082 124.4888,3.0735808 116.37747,1.014502 108.00703,-0.02660093 99.638,0"
     fill="#00923a"
     id="path881"
     style="display:inline"
     inkscape:label="ring" />
  <path
     id="path893"
     style="display:inline;fill:#008000"
     d="m 124.224,16.07 c -0.766,0.403 -0.945,0.987 -1.53,0.804 0,0 -0.403,-0.765 0.361,-1.167 0.766,-0.403 1.933,-0.04 1.17,0.363 m -1.054,5.941 c 0.62,0.781 -2.932,2.486 -2.733,1.25 -0.047,-0.872 2.704,-1.705 2.733,-1.25 m 6.211,-3.167 c -1.079,-0.296 -2.9,-0.674 -4.094,-1.045 1.091,-0.662 2.893,-1.064 4.1,-0.903 0.699,0.094 1.27,-0.054 1.453,-0.79 0.178,-0.714 -0.174,-1.211 -0.872,-1.404 -0.637,-0.174 -1.338,-0.408 -1.15,-1.047 0.083,-0.3 0.584,-0.767 0.533,-1.08 -0.078,-0.473 0.009,-0.67 -0.36,-1.396 -0.618,-0.223 -0.713,0.687 -0.937,1.102 -0.621,1.157 -1.354,2.162 -2.72,2.458 -0.317,0.068 -1.236,-0.01 -1.574,-0.039 0.032,-0.369 0.3,-0.968 0.43,-1.296 0.592,-1.467 0.476,-2.065 -1.085,-2.361 -0.262,-0.051 -0.753,0.188 -0.86,0.423 -0.327,0.702 -0.515,1.47 -0.758,2.212 -0.228,0.689 -0.631,1.115 -1.431,1.052 -1.158,-0.094 -2.175,0.004 -3.336,-0.045 -0.268,-0.012 -0.813,-0.153 -0.916,0.01 -0.145,0.225 -0.2,0.714 -0.054,0.875 0.394,0.437 0.906,1.051 1.383,1.065 0.819,0.022 1.683,-0.272 2.446,-0.614 0.425,-0.19 0.698,-0.383 0.945,0.084 0.275,0.533 -0.741,2.202 -1.34,2.306 -2.04,0.355 -4.064,0.538 -6.014,-0.419 a 1.515,1.515 0 0 0 -0.47,-0.123 c -0.708,-0.096 -1.119,0.295 -0.87,0.915 0.559,1.391 1.47,2.125 2.666,1.929 1.212,-0.2 2.78,-0.57 4.007,-0.658 0.758,-0.056 0.571,0.577 0.275,1.288 -0.195,0.464 -0.352,1.104 -0.184,1.528 0.412,1.028 0.479,0.959 -0.625,1.35 -0.303,0.108 -0.589,0.484 -0.708,0.804 -0.054,0.145 0.244,0.531 0.498,0.676 0.526,0.307 0.707,0.071 0.804,0.605 -2.453,0.235 -2.478,0.51 -2.637,0.56 -0.266,0.08 -0.525,0.453 -0.528,0.635 -0.008,0.34 0.16,0.77 0.403,1.004 0.26,0.249 0.77,0.187 1.147,0.269 0.297,0.063 0.743,-0.382 1.152,0.304 -1.257,1.065 -2.26,1.433 -3.352,1.66 -1.044,0.219 -1.987,0.327 -3.005,0.63 -0.355,0.106 -0.656,0.78 -0.745,1.218 -0.05,0.225 0.308,0.381 0.614,0.568 0.795,0.488 1.598,-0.04 2.313,-0.436 0.673,-0.37 1.118,-0.728 1.86,-0.97 0.67,0.69 1.162,0.44 0.89,2.425 -0.124,0.698 0.043,1.155 0.861,1.33 0.672,0.144 1.44,-0.242 1.65,-0.973 0.334,-1.146 0.438,-1.483 0.643,-3.007 0.545,-3.964 0.554,-3.333 3.29,-3.115 0.284,0.023 0.723,-0.22 0.85,-0.465 0.128,-0.245 -0.34,-0.956 -0.495,-1.221 -0.194,-0.33 -1.405,-0.22 -1.752,-0.545 0.381,-0.175 1.89,-0.386 2.114,-0.622 0.305,-0.325 0.823,-0.745 0.78,-1.106 -0.093,-0.769 0.331,-0.99 0.86,-1.192 1.095,-0.42 1.568,-1.095 1.443,-2.206 -0.023,-0.2 -0.229,-0.494 -0.41,-0.544 -0.907,-0.253 -1.817,-0.47 -2.75,0.036 -0.475,0.258 -1.037,0.401 -1.574,0.488 -0.256,0.041 -0.556,-0.173 -0.832,-0.272 -0.334,-0.562 -0.2,-0.888 0.079,-0.984 0.443,-0.15 0.963,-0.108 1.451,-0.101 1.436,0.02 3.103,-0.704 4.803,0.833 0.5,0.451 1.028,0.873 1.553,1.294 0.706,0.568 1.243,0.172 1.415,-0.638 0.268,-1.253 -0.056,-1.983 -1.273,-2.319 m -8.018,12.292 c 1.454,0.413 2.564,0.495 2.872,1.985 0.082,0.39 0.154,0.398 0.014,0.764 -0.12,0.317 -0.488,1.038 -0.797,1.154 -0.145,0.054 -0.445,-0.115 -0.594,-0.386 a 37.313,37.313 0 0 1 -1.267,-2.506 c -0.112,-0.24 -0.123,-0.528 -0.228,-1.011 M 44.727,41.175 c 0.536,-0.168 0.858,-0.363 1.162,-0.338 0.3,0.026 0.77,0.218 0.836,0.437 0.202,0.667 0.35,1.386 0.322,2.078 -0.041,1.04 0.434,2.265 1.376,2.452 1.265,0.252 2.651,0.686 3.733,-0.568 0.169,-0.195 0.386,-0.358 0.609,-0.488 1.655,-0.967 1.588,-1.354 0.32,-2.8 -1.787,-2.042 -3.65,-4.018 -5.468,-6.036 -0.798,-0.886 -1.206,-0.866 -1.627,0.278 -0.474,1.29 -0.834,2.626 -1.217,3.95 -0.076,0.26 -0.03,0.557 -0.046,1.035 m -3.66,-6.163 c 0.19,-0.499 0.283,-0.792 0.411,-1.072 0.153,-0.332 0.258,-0.756 0.522,-0.95 0.33,-0.243 0.902,-0.509 1.195,-0.378 0.724,0.325 0.516,1.006 0.37,1.659 -0.35,1.578 -0.682,3.163 -0.904,4.763 -0.066,0.475 0.253,1.005 0.397,1.51 l 0.367,-0.011 c 0.284,-1.085 0.551,-2.174 0.854,-3.253 0.482,-1.716 0.777,-3.483 1.967,-4.95 0.704,-0.866 1.362,-0.919 2.043,-0.215 1.348,1.393 2.624,2.855 3.907,4.31 1.458,1.65 2.872,3.337 4.337,4.98 1.098,1.232 0.993,2.597 -0.396,3.479 -1.55,0.986 -3.181,1.81 -5.063,1.967 -0.147,0.012 -0.315,0.02 -0.435,0.092 -0.264,0.16 -0.505,0.36 -0.755,0.542 0.22,0.252 0.398,0.627 0.674,0.73 0.819,0.303 1.297,0.79 1.081,1.677 -0.196,0.806 -1.323,1.351 -2.158,1.137 -0.357,-0.091 -0.758,-0.09 -1.07,-0.26 -0.254,-0.137 -0.43,-0.45 -0.59,-0.716 -0.102,-0.165 -0.113,-0.384 -0.165,-0.58 -0.186,0.072 -0.376,0.137 -0.556,0.223 -0.272,0.13 -0.537,0.274 -0.803,0.413 -0.062,-0.343 -0.144,-0.681 -0.18,-1.026 -0.152,-1.473 -0.277,-2.946 -0.453,-4.415 -0.03,-0.257 -0.244,-0.493 -0.412,-0.814 -0.693,0.554 -0.77,1.078 -0.443,1.746 0.718,1.465 0.521,1.847 -0.992,2.34 -0.349,0.117 -0.65,0.44 -0.923,0.716 -0.293,0.293 -0.53,0.64 -0.789,0.965 -0.094,-0.045 -0.187,-0.091 -0.28,-0.138 0.217,-1.028 0.467,-2.05 0.637,-3.088 0.167,-1.01 0.372,-2.06 -0.423,-2.723 -0.85,1.334 -1.655,2.683 -2.563,3.958 -0.23,0.323 -0.783,0.52 -1.21,0.562 -0.342,0.036 -0.891,-0.16 -1.03,-0.421 -0.13,-0.247 0.047,-0.817 0.279,-1.067 1.507,-1.626 1.975,-3.6 2.256,-5.726 0.204,-1.547 -0.669,-2.45 -1.51,-3.416 -0.612,-0.7 -1.339,-1.3 -1.995,-1.96 -0.459,-0.46 -0.374,-0.894 0.05,-1.37 1.284,-1.437 2.933,-1.42 4.095,0.07 0.135,0.17 0.295,0.322 0.655,0.71 m 0.854,17.46 c 1.404,0.096 2.783,0.074 4.11,0.318 0.865,0.16 1.048,0.978 0.82,1.802 -0.29,1.065 -1.055,1.654 -1.892,1.48 -0.795,-0.166 -2.875,-2.491 -3.037,-3.6 m 137.373,22.47 c -0.087,0.189 -0.17,0.377 -0.26,0.566 0.442,0.257 0.862,0.599 1.334,0.74 0.249,0.072 0.6,-0.214 0.906,-0.339 -0.01,-0.114 -0.018,-0.23 -0.029,-0.346 l -1.951,-0.62 m -1.004,1.588 c -0.815,-0.838 -1.606,-1.698 -2.446,-2.509 a 98.019,98.019 0 0 0 -3.334,-3.07 c -0.198,-0.177 -0.583,-0.126 -0.843,-0.255 -0.427,-0.215 -0.817,-0.491 -1.219,-0.741 0.216,-0.353 0.36,-0.8 0.666,-1.04 1.198,-0.94 2.17,-0.833 2.828,0.405 0.457,0.86 1.064,0.916 1.808,0.687 0.874,-0.269 1.722,-0.62 2.585,-0.925 0.197,-0.07 0.41,-0.11 0.62,-0.163 0.417,0.889 -0.352,1.12 -0.738,1.47 -0.362,0.328 -0.78,0.463 -0.49,1.12 0.086,0.196 -0.408,0.649 -0.65,0.998 0.577,0.651 0.665,0.639 1.868,-0.23 0.47,0.51 0.869,1.07 1.394,1.459 0.29,0.214 0.793,0.145 1.306,0.054 -0.905,-0.914 -1.819,-1.745 -1.79,-3.304 0.27,-0.365 0.788,-1.081 1.466,-0.67 0.285,0.172 0.017,1.256 -0.003,2.175 0.625,0.622 0.764,0.59 2.32,-0.885 0.091,0.124 0.232,0.23 0.258,0.362 0.32,1.474 0.911,1.985 2.429,2.056 0.376,0.017 0.755,0.022 1.135,0.019 0.34,-0.003 0.679,-0.023 1.03,-0.037 0.236,0.785 0.285,1.55 -0.44,1.905 -0.448,0.22 -1.126,0.133 -1.65,-0.003 -0.599,-0.155 -1.142,-0.519 -1.71,-0.788 -0.772,-0.366 -1.168,-0.117 -1.152,0.757 -0.352,0.126 -0.721,0.256 -1.085,0.387 0.812,0.133 1.604,0.897 2.4,-0.027 0.112,-0.13 0.808,0.242 1.234,0.381 -0.213,0.249 -0.398,0.67 -0.65,0.712 -0.607,0.097 -1.244,-0.013 -1.865,0.018 -0.78,0.04 -1.558,0.136 -2.34,0.209 -0.004,0.105 -0.008,0.211 -0.015,0.318 0.13,0.11 0.24,0.278 0.39,0.326 1.772,0.566 3.552,1.117 5.33,1.667 0.21,0.065 0.436,0.153 0.646,0.134 0.335,-0.032 0.78,-0.046 0.953,-0.254 0.128,-0.156 -0.057,-0.626 -0.181,-0.922 -0.18,-0.437 -0.446,-0.839 -0.64,-1.27 -0.06,-0.141 -0.002,-0.334 0.002,-0.504 0.164,0.038 0.408,0.021 0.473,0.122 0.614,0.937 1.303,1.845 1.761,2.858 0.371,0.812 0.04,1.233 -0.847,1.215 a 13.27,13.27 0 0 1 -2.79,-0.34 c -1.316,-0.318 -2.594,-0.778 -3.895,-1.155 -0.183,-0.054 -0.4,0.017 -0.604,0.031 0.03,0.204 0.01,0.437 0.099,0.608 0.254,0.468 0.528,0.936 0.846,1.36 0.48,0.638 0.478,1.5 -0.054,1.93 -0.672,0.549 -1.811,0.458 -2.291,-0.202 -1.524,-2.075 -3.034,-4.156 -4.561,-6.23 -0.062,-0.084 -0.196,-0.117 -0.5,-0.284 0.078,0.48 0.179,0.79 0.17,1.097 -0.022,0.458 -0.121,0.914 -0.184,1.37 -0.417,-0.143 -0.86,-0.239 -1.242,-0.446 -0.392,-0.211 -0.727,-0.532 -1.084,-0.806 l -0.31,0.206 c 0.318,0.715 0.593,1.451 0.963,2.137 0.42,0.775 0.936,1.496 1.384,2.257 0.122,0.211 0.262,0.523 0.19,0.709 a 1.877,1.877 0 0 1 -0.652,0.83 c -0.083,0.057 -0.539,-0.245 -0.671,-0.472 a 101.242,101.242 0 0 1 -2.389,-4.19 c -0.244,-0.453 -0.506,-0.6 -0.977,-0.428 -0.948,0.346 -1.887,0.735 -2.858,1.005 -0.81,0.227 -1.66,0.338 -2.5,0.434 -0.137,0.017 -0.441,-0.297 -0.449,-0.468 -0.025,-0.527 -0.012,-1.072 0.105,-1.584 0.262,-1.192 0.591,-2.37 0.906,-3.553 0.062,-0.231 0.18,-0.45 0.269,-0.673 0.113,-0.015 0.227,-0.032 0.338,-0.048 0.09,0.338 0.236,0.673 0.249,1.015 0.026,0.691 -0.037,1.385 -0.04,2.076 -0.004,0.632 0.291,0.927 0.958,0.818 0.683,-0.11 1.374,-0.165 2.06,-0.26 0.877,-0.124 1.062,-0.589 0.551,-1.302 -0.749,-1.047 -1.482,-2.104 -2.226,-3.153 a 1.802,1.802 0 0 0 -0.312,-0.346 c -1.103,-0.89 -1.215,-1.534 -0.612,-2.762 0.33,-0.67 0.746,-0.724 1.12,-0.177 a 47.825,47.825 0 0 1 2.237,3.579 c 0.508,0.901 0.845,1.9 1.366,2.794 0.172,0.292 0.684,0.383 1.043,0.565 0.077,-0.344 0.176,-0.687 0.23,-1.036 0.066,-0.435 0.098,-0.877 0.143,-1.315 0.49,0.106 1.055,0.096 1.456,0.346 0.852,0.528 1.6,1.222 2.432,1.786 0.302,0.204 0.72,0.229 1.085,0.337 0.065,-0.093 0.127,-0.186 0.187,-0.277 m 2.508,-8.199 c 2.13,0.16 3.998,0.28 5.858,0.48 0.19,0.02 0.491,0.553 0.459,0.814 -0.082,0.647 -1.157,1.348 -1.748,1.113 -1.394,-0.559 -2.753,-1.213 -4.12,-1.845 -0.121,-0.055 -0.188,-0.228 -0.449,-0.562 M 77.772,26.85 c 1.274,-1.73 2.464,-3.198 3.462,-4.79 0.29,-0.462 0.145,-1.293 0.006,-1.913 -0.647,-2.883 -1.393,-5.745 -2.029,-8.63 -0.157,-0.714 -0.637,-1.667 0.41,-2.116 0.415,-0.178 1.16,-0.18 1.452,0.08 0.602,0.536 1.493,1.02 1.175,2.142 -0.128,0.454 -0.179,0.978 -0.085,1.432 0.233,1.144 0.562,2.268 0.866,3.397 0.092,0.332 0.235,0.653 0.353,0.977 0.137,0.019 0.273,0.034 0.409,0.051 0.376,-1.11 0.752,-2.22 1.113,-3.293 0.718,0.437 1.145,1.683 0.764,2.85 -0.26,0.792 -0.56,1.592 -0.985,2.305 -1.34,2.242 -0.752,4.279 0.309,6.448 0.727,1.49 1.493,1.873 3.03,1.286 0.543,-0.208 1.372,0.082 1.97,0.363 0.359,0.17 0.524,0.756 0.777,1.155 -0.426,0.211 -0.85,0.59 -1.28,0.599 -0.755,0.015 -1.513,-0.212 -2.272,-0.307 -1.273,-0.16 -1.41,0.01 -1.103,1.293 0.223,0.925 0.485,1.84 0.643,2.776 0.046,0.264 -0.16,0.783 -0.343,0.833 -0.394,0.105 -1.066,0.14 -1.237,-0.087 -0.4,-0.53 -0.597,-1.221 -0.829,-1.868 -0.273,-0.758 -0.576,-1.297 -1.478,-0.652 -0.287,0.206 -0.667,0.314 -1.019,0.38 -0.409,0.077 -0.835,0.057 -1.255,0.082 0.033,-0.49 -0.08,-1.053 0.125,-1.453 0.445,-0.87 1.047,-1.661 1.592,-2.48 0.647,-0.967 0.432,-1.974 0.051,-2.933 -0.312,-0.78 -0.91,-0.546 -1.286,-0.082 -0.547,0.678 -0.987,1.442 -1.439,2.19 -0.34,0.56 -0.528,1.24 -0.953,1.715 -0.955,1.073 -0.676,2.123 -0.18,3.244 0.231,0.528 0.51,1.098 0.503,1.646 -0.003,0.403 -0.354,1.006 -0.696,1.14 -0.289,0.113 -0.817,-0.285 -1.19,-0.532 -0.218,-0.142 -0.339,-0.43 -0.62,-0.814 -0.315,0.663 -0.522,1.198 -0.813,1.683 -0.328,0.55 -0.658,1.129 -1.115,1.561 -0.683,0.646 -1.417,0.463 -1.87,-0.401 -0.499,-0.953 -0.599,-1.91 -0.05,-2.924 0.694,-1.282 1.325,-2.597 1.94,-3.92 0.72,-1.541 0.624,-2.321 -0.37,-3.315 -0.424,0.302 -0.828,0.677 -1.304,0.91 -0.74,0.362 -1.511,0.683 -2.303,0.905 -0.275,0.077 -0.783,-0.097 -0.934,-0.324 -0.125,-0.187 0.018,-0.707 0.214,-0.928 0.553,-0.62 1.149,-1.218 1.805,-1.72 1.431,-1.095 2.064,-2.351 1.317,-4.16 -0.486,-1.176 -0.746,-2.443 -1.167,-3.65 -0.284,-0.807 -0.034,-1.25 0.744,-1.497 1.927,-0.608 3.05,0.068 3.326,2.044 0.106,0.765 0.305,1.177 1.068,0.496 0.58,-0.517 0.832,-0.104 1.011,0.401 0.442,1.243 0.008,2.397 -0.495,3.482 -0.732,1.575 -0.635,3.063 0.265,4.924 m 76.763,17.521 c -0.714,0.15 -1.2,0.168 -1.617,0.352 -2.144,0.95 -4.2,0.457 -6.139,-0.49 -0.97,-0.474 -1.77,-1.324 -2.592,-2.066 -0.191,-0.171 -0.16,-0.59 -0.231,-0.897 0.308,-0.023 0.65,-0.146 0.914,-0.05 1.263,0.458 2.475,1.056 3.755,1.441 0.767,0.234 1.627,0.172 2.442,0.243 0.022,-0.125 0.037,-0.252 0.057,-0.377 -1.093,-0.441 -2.368,-0.664 -3.227,-1.383 -0.906,-0.758 -0.894,-2.097 -0.889,-3.58 1.17,0.71 2.07,1.338 3.046,1.823 1.096,0.548 2.225,1.082 3.403,1.39 0.587,0.154 1.488,0.004 1.935,-0.376 1.582,-1.348 3.029,-2.86 4.539,-4.292 0.228,-0.213 0.61,-0.531 0.787,-0.462 0.281,0.108 0.555,0.473 0.65,0.785 0.656,2.144 0.306,3.196 -1.463,4.543 -0.419,0.315 -0.887,0.562 -1.319,0.856 -0.66,0.446 -0.536,0.838 0.127,1.12 0.375,0.158 0.832,0.163 1.167,0.37 0.517,0.32 1.078,0.682 1.394,1.172 0.198,0.305 -0.017,0.878 -0.05,1.332 -0.418,-0.07 -0.87,-0.056 -1.25,-0.22 -1.254,-0.546 -2.467,-1.185 -3.722,-1.725 -0.669,-0.289 -1.129,-0.014 -1.08,0.76 0.116,1.824 0.237,3.65 0.425,5.468 0.133,1.285 1.073,2.089 1.94,2.92 0.3,0.285 0.564,0.61 0.762,1.019 -2.017,-0.189 -3.676,-1.157 -5.233,-2.255 -0.396,-0.279 -0.6,-1.191 -0.497,-1.74 0.18,-0.972 0.677,-1.885 1.015,-2.831 0.307,-0.862 0.582,-1.737 0.95,-2.85 M 25.666,76.07 c 0.383,1.097 0.805,2.068 1.046,3.082 0.125,0.53 -0.014,1.15 -0.148,1.702 -0.06,0.236 -0.396,0.538 -0.63,0.562 -0.204,0.023 -0.598,-0.285 -0.64,-0.495 -0.386,-2.002 -1.737,-2.712 -3.59,-2.853 -0.192,-0.014 -0.365,-0.315 -0.546,-0.483 0.202,-0.2 0.405,-0.403 0.612,-0.6 0.017,-0.018 0.067,0.002 0.1,-0.007 0.704,-0.174 2.018,-0.367 2.013,-0.526 -0.028,-1.042 -0.11,-2.213 -0.619,-3.08 -0.567,-0.967 -1.61,-1.653 -2.435,-2.474 -0.275,-0.273 -0.51,-0.585 -0.762,-0.878 0.443,-0.314 0.85,-0.723 1.341,-0.908 0.388,-0.145 0.88,-0.017 1.44,-0.008 1.512,1.752 3.123,3.628 4.76,5.481 0.127,0.145 0.44,0.128 0.635,0.178 0.338,-0.522 0.544,-1.157 0.976,-1.42 0.42,-0.256 1.072,-0.13 1.698,-0.35 -3.29,-2.027 -5.054,-5.703 -8.53,-7.632 0.05,-0.816 0.39,-1.144 1.235,-0.72 a 65.854,65.854 0 0 1 5.219,2.896 c 1.52,0.942 2.98,1.993 4.397,3.085 0.437,0.336 0.886,0.963 0.892,1.463 0.007,0.423 -0.528,1.021 -0.972,1.257 -2.461,1.308 -2.478,1.277 -2.292,4.014 0.017,0.241 0.005,0.491 0.065,0.721 0.192,0.73 0.201,1.41 -0.6,1.76 -0.584,0.257 -1.66,-0.36 -2.103,-0.972 -0.662,-0.917 -1.413,-1.768 -2.14,-2.634 -0.071,-0.088 -0.24,-0.096 -0.422,-0.16 m -8.533,2.084 c -0.173,-0.521 -0.417,-1.032 -0.51,-1.57 -0.359,-2.069 -0.805,-4.138 -0.963,-6.225 -0.159,-2.078 -0.094,-4.186 0.042,-6.268 0.062,-0.962 1.39,-1.804 2.358,-1.744 0.802,0.051 0.64,0.721 0.63,1.19 -0.022,0.958 -0.25,1.921 -0.184,2.87 0.114,1.64 0.42,3.263 0.591,4.9 0.22,2.11 0.284,4.204 -1.189,5.987 -0.106,0.13 -0.143,0.315 -0.225,0.468 -0.063,0.118 -0.145,0.223 -0.22,0.334 z m 8.899,6.823 c 2.09,-0.39 3.926,0.456 6.173,0.03 -0.454,-0.366 -0.907,-0.732 -1.36,-1.095 0.208,-0.162 0.418,-0.32 0.625,-0.483 0.749,0.585 1.516,1.148 2.22,1.78 0.093,0.082 -0.056,0.678 -0.228,0.766 -0.714,0.355 -1.523,0.928 -2.222,0.838 -1.549,-0.196 -3.056,-0.733 -4.57,-1.164 -0.186,-0.056 -0.31,-0.318 -0.638,-0.672 m 158.598,19.244 -4.225,-0.545 -6.239,3.1 0.204,-1.598 3.258,-1.582 a 28.14,28.14 0 0 1 1.818,-0.795 31.647,31.647 0 0 1 -1.627,-1.317 l -2.676,-2.307 0.19,-1.535 5.24,4.71 4.22,0.55 z M 18.155,98.507 18.384,99.75 c -0.499,0.105 -0.892,0.278 -1.192,0.527 -0.304,0.247 -0.528,0.604 -0.687,1.08 -0.153,0.472 -0.2,0.99 -0.153,1.562 a 3.7,3.7 0 0 0 0.348,1.321 c 0.194,0.37 0.42,0.638 0.694,0.806 0.278,0.16 0.575,0.229 0.883,0.202 0.32,-0.032 0.583,-0.146 0.802,-0.347 0.213,-0.208 0.392,-0.533 0.506,-0.959 0.08,-0.28 0.187,-0.892 0.323,-1.83 0.131,-0.935 0.287,-1.605 0.438,-1.986 0.207,-0.502 0.488,-0.89 0.84,-1.158 0.35,-0.27 0.75,-0.423 1.21,-0.468 a 2.6,2.6 0 0 1 1.457,0.296 c 0.472,0.252 0.843,0.638 1.12,1.164 0.285,0.528 0.445,1.134 0.513,1.808 0.074,0.743 0.011,1.404 -0.18,1.992 a 2.874,2.874 0 0 1 -0.933,1.414 3.078,3.078 0 0 1 -1.532,0.635 l -0.214,-1.262 c 0.633,-0.13 1.079,-0.404 1.375,-0.829 0.29,-0.42 0.391,-1.019 0.317,-1.792 -0.068,-0.798 -0.272,-1.367 -0.6,-1.706 -0.326,-0.338 -0.702,-0.491 -1.112,-0.45 a 1.14,1.14 0 0 0 -0.853,0.47 c -0.206,0.28 -0.386,0.963 -0.523,2.066 -0.15,1.097 -0.286,1.855 -0.44,2.274 -0.212,0.61 -0.516,1.071 -0.897,1.388 a 2.5,2.5 0 0 1 -1.38,0.548 2.746,2.746 0 0 1 -1.552,-0.321 c -0.497,-0.263 -0.905,-0.666 -1.22,-1.21 -0.315,-0.544 -0.505,-1.177 -0.576,-1.895 -0.078,-0.903 -0.021,-1.674 0.19,-2.313 a 3.156,3.156 0 0 1 1.061,-1.552 c 0.482,-0.395 1.068,-0.637 1.738,-0.718 m 2.763,10.446 c -1.19,0.216 -2.066,0.71 -2.642,1.48 -0.557,0.764 -0.758,1.634 -0.584,2.602 0.187,0.984 0.672,1.733 1.492,2.235 0.812,0.506 1.854,0.645 3.122,0.409 0.806,-0.144 1.477,-0.417 2.03,-0.798 0.55,-0.379 0.947,-0.864 1.173,-1.443 0.241,-0.592 0.298,-1.207 0.183,-1.857 -0.178,-0.928 -0.643,-1.666 -1.402,-2.214 -0.763,-0.554 -1.884,-0.692 -3.372,-0.414 m -0.226,-1.354 c 1.642,-0.307 3,-0.102 4.101,0.61 1.085,0.71 1.754,1.759 2.02,3.153 0.163,0.912 0.1,1.774 -0.204,2.592 a 4.342,4.342 0 0 1 -1.516,2.01 c -0.708,0.53 -1.561,0.885 -2.548,1.069 -0.996,0.187 -1.928,0.145 -2.796,-0.113 -0.86,-0.255 -1.576,-0.72 -2.114,-1.385 a 4.965,4.965 0 0 1 -1.057,-2.29 4.776,4.776 0 0 1 0.213,-2.615 4.398,4.398 0 0 1 1.531,-2.007 c 0.71,-0.527 1.5,-0.86 2.37,-1.024 m 8.941,15.77 0.367,1.283 -5.569,1.637 c -0.971,0.282 -1.774,0.401 -2.407,0.347 -0.638,-0.046 -1.214,-0.31 -1.742,-0.775 -0.535,-0.465 -0.932,-1.169 -1.202,-2.094 -0.258,-0.907 -0.323,-1.693 -0.182,-2.359 a 2.765,2.765 0 0 1 0.99,-1.63 c 0.518,-0.414 1.287,-0.777 2.31,-1.073 l 5.574,-1.64 0.377,1.277 -5.572,1.635 c -0.834,0.245 -1.425,0.503 -1.78,0.78 a 1.783,1.783 0 0 0 -0.683,1.07 c -0.106,0.44 -0.076,0.935 0.088,1.483 0.275,0.94 0.681,1.554 1.228,1.825 0.546,0.274 1.422,0.229 2.632,-0.125 z m -7.461,8.837 8.214,-3.347 -1.244,-3.077 1.099,-0.445 3.01,7.382 -1.108,0.454 -1.257,-3.082 -8.215,3.349 z m 2.474,5.834 8.852,-4.782 0.63,1.174 -3.633,1.957 2.484,4.603 3.64,-1.964 0.618,1.173 -8.836,4.779 -0.64,-1.169 4.176,-2.26 -2.481,-4.592 -4.167,2.25 z m 6.051,10.538 6.475,-8.139 0.819,1.093 -4.38,5.16 c -0.456,0.544 -0.922,1.07 -1.4,1.57 1.01,-0.435 1.605,-0.682 1.76,-0.748 l 6.6,-2.51 0.952,1.289 -3.223,4.188 a 26.716,26.716 0 0 1 -2.387,2.753 41.99,41.99 0 0 1 2.048,-0.905 l 6.13,-2.586 0.792,1.075 -9.718,3.783 -0.762,-1.032 4.89,-6.267 c 0.405,-0.53 0.663,-0.847 0.765,-0.955 -0.441,0.188 -0.809,0.34 -1.136,0.461 l -7.42,2.863 z m 7.301,9.289 7.114,-7.096 5.134,5.149 -0.84,0.837 -4.193,-4.207 -2.177,2.175 3.921,3.942 -0.834,0.829 -3.927,-3.939 -2.423,2.412 4.359,4.377 -0.839,0.835 z m 8.523,3.885 1.06,0.688 c -0.266,0.432 -0.408,0.843 -0.44,1.23 -0.029,0.388 0.076,0.806 0.316,1.235 0.242,0.442 0.58,0.837 1.037,1.19 a 3.82,3.82 0 0 0 1.186,0.654 c 0.41,0.119 0.761,0.131 1.073,0.043 0.309,-0.09 0.56,-0.256 0.753,-0.503 0.203,-0.246 0.29,-0.516 0.295,-0.813 0.003,-0.302 -0.12,-0.653 -0.346,-1.032 -0.15,-0.247 -0.518,-0.748 -1.111,-1.489 -0.585,-0.742 -0.964,-1.304 -1.14,-1.69 -0.216,-0.494 -0.308,-0.962 -0.27,-1.402 0.053,-0.443 0.212,-0.845 0.502,-1.203 0.307,-0.398 0.715,-0.68 1.215,-0.854 0.5,-0.167 1.04,-0.171 1.61,-0.01 0.58,0.163 1.134,0.45 1.67,0.873 0.585,0.453 1.026,0.954 1.327,1.495 0.301,0.54 0.431,1.09 0.378,1.644 a 2.994,2.994 0 0 1 -0.59,1.55 l -1.065,-0.707 c 0.345,-0.545 0.464,-1.067 0.35,-1.567 -0.113,-0.494 -0.473,-0.988 -1.08,-1.462 -0.634,-0.494 -1.187,-0.741 -1.661,-0.737 -0.471,0.003 -0.835,0.17 -1.098,0.5 a 1.159,1.159 0 0 0 -0.238,0.94 c 0.057,0.342 0.437,0.946 1.141,1.801 0.698,0.865 1.152,1.49 1.35,1.882 0.3,0.571 0.427,1.107 0.387,1.601 -0.026,0.497 -0.216,0.964 -0.546,1.388 a 2.78,2.78 0 0 1 -1.296,0.905 c -0.53,0.184 -1.111,0.202 -1.724,0.057 -0.612,-0.148 -1.201,-0.441 -1.77,-0.89 -0.713,-0.56 -1.229,-1.13 -1.55,-1.718 -0.316,-0.59 -0.454,-1.205 -0.4,-1.84 0.05,-0.633 0.275,-1.221 0.675,-1.759 m 8.258,9.98 4.618,-7.567 -2.825,-1.727 0.616,-1.013 6.804,4.15 -0.615,1.014 -2.842,-1.737 -4.615,7.577 z m 9.521,5.127 3.755,-9.327 6.292,2.526 -0.445,1.102 -5.051,-2.04 -1.163,2.89 4.374,1.762 -0.435,1.101 -4.382,-1.758 -1.703,4.236 z m 10.656,-1.179 c -0.309,1.175 -0.238,2.183 0.216,3.02 0.443,0.84 1.15,1.386 2.112,1.64 0.956,0.25 1.842,0.121 2.648,-0.397 0.8,-0.511 1.374,-1.4 1.71,-2.65 0.2,-0.795 0.248,-1.518 0.137,-2.18 -0.118,-0.662 -0.385,-1.221 -0.813,-1.68 a 3.287,3.287 0 0 0 -1.605,-0.945 c -0.91,-0.248 -1.776,-0.13 -2.597,0.315 -0.818,0.456 -1.431,1.415 -1.808,2.877 m -1.323,-0.368 c 0.424,-1.613 1.185,-2.762 2.292,-3.447 1.109,-0.69 2.346,-0.846 3.721,-0.49 a 4.904,4.904 0 0 1 2.26,1.282 c 0.608,0.619 0.997,1.366 1.173,2.23 0.179,0.865 0.14,1.789 -0.115,2.764 -0.256,0.984 -0.693,1.813 -1.298,2.483 a 4.14,4.14 0 0 1 -2.155,1.325 4.961,4.961 0 0 1 -2.525,-0.022 c -0.91,-0.236 -1.672,-0.676 -2.282,-1.308 a 4.261,4.261 0 0 1 -1.153,-2.237 5.582,5.582 0 0 1 0.082,-2.58 m 12.36,2.158 2.842,0.36 c 0.602,0.078 1.08,0.075 1.436,-0.007 0.352,-0.086 0.648,-0.25 0.85,-0.502 0.221,-0.251 0.339,-0.539 0.38,-0.858 0.056,-0.473 -0.054,-0.885 -0.36,-1.237 -0.31,-0.343 -0.828,-0.56 -1.573,-0.66 l -3.159,-0.393 z m -2.023,5.411 1.266,-9.979 4.419,0.558 c 0.892,0.117 1.558,0.289 2,0.526 0.43,0.237 0.762,0.6 0.978,1.092 0.22,0.488 0.3,1.003 0.229,1.555 a 2.533,2.533 0 0 1 -0.91,1.704 c -0.522,0.425 -1.267,0.646 -2.238,0.653 0.325,0.212 0.57,0.41 0.734,0.596 0.34,0.406 0.65,0.89 0.92,1.47 l 1.4,2.938 -1.659,-0.217 -1.057,-2.244 c -0.321,-0.64 -0.575,-1.14 -0.785,-1.49 -0.207,-0.35 -0.41,-0.6 -0.588,-0.752 a 2.038,2.038 0 0 0 -0.567,-0.34 c -0.146,-0.053 -0.389,-0.098 -0.733,-0.143 l -1.531,-0.19 -0.558,4.428 z m 10.636,1.155 0.056,-10.06 7.272,0.04 -0.003,1.187 -5.946,-0.033 -0.018,3.082 5.564,0.026 -0.005,1.183 -5.56,-0.03 -0.024,3.417 6.18,0.044 -0.009,1.18 z m 9.104,-3.271 1.242,-0.245 c 0.117,0.497 0.291,0.892 0.534,1.181 0.262,0.304 0.628,0.523 1.102,0.67 0.474,0.154 1.004,0.193 1.564,0.128 0.505,-0.054 0.942,-0.179 1.32,-0.37 0.362,-0.187 0.621,-0.433 0.79,-0.709 0.157,-0.284 0.223,-0.579 0.178,-0.888 a 1.15,1.15 0 0 0 -0.36,-0.789 c -0.197,-0.216 -0.526,-0.378 -0.963,-0.492 -0.278,-0.079 -0.883,-0.18 -1.823,-0.287 -0.945,-0.125 -1.61,-0.266 -2.007,-0.419 -0.504,-0.197 -0.89,-0.466 -1.17,-0.817 a 2.227,2.227 0 0 1 -0.478,-1.198 c -0.063,-0.51 0.033,-0.992 0.266,-1.463 a 2.72,2.72 0 0 1 1.153,-1.14 c 0.522,-0.285 1.118,-0.463 1.787,-0.542 0.747,-0.075 1.412,-0.034 1.999,0.144 0.593,0.18 1.075,0.478 1.427,0.91 0.355,0.428 0.572,0.936 0.667,1.517 l -1.27,0.24 c -0.128,-0.626 -0.413,-1.072 -0.84,-1.353 -0.432,-0.284 -1.028,-0.382 -1.803,-0.294 -0.789,0.084 -1.36,0.297 -1.689,0.632 -0.34,0.335 -0.474,0.702 -0.434,1.115 0.034,0.362 0.204,0.64 0.48,0.843 0.288,0.207 0.968,0.373 2.079,0.495 1.102,0.13 1.857,0.258 2.278,0.397 0.606,0.2 1.08,0.497 1.398,0.875 0.324,0.383 0.518,0.84 0.577,1.376 0.05,0.527 -0.04,1.048 -0.285,1.547 -0.261,0.507 -0.66,0.923 -1.2,1.246 -0.545,0.327 -1.174,0.53 -1.888,0.604 -0.905,0.102 -1.677,0.055 -2.305,-0.147 a 3.204,3.204 0 0 1 -1.58,-1.03 3.5,3.5 0 0 1 -0.746,-1.737 m 12.888,1.407 -1.902,-8.658 -3.24,0.713 -0.253,-1.164 7.777,-1.712 0.253,1.164 -3.248,0.71 1.908,8.659 z m 5.585,-7.202 2.708,-0.922 c 0.574,-0.198 1.01,-0.41 1.294,-0.638 0.287,-0.235 0.467,-0.508 0.545,-0.827 a 1.653,1.653 0 0 0 -0.04,-0.94 c -0.161,-0.447 -0.44,-0.765 -0.868,-0.94 -0.43,-0.179 -0.998,-0.143 -1.69,0.09 l -3.013,1.03 z m 0.556,5.75 -3.244,-9.518 4.218,-1.442 c 0.844,-0.289 1.517,-0.421 2.022,-0.404 0.5,0.02 0.955,0.202 1.37,0.548 0.409,0.336 0.707,0.769 0.883,1.297 0.227,0.676 0.208,1.318 -0.071,1.933 -0.283,0.611 -0.854,1.131 -1.725,1.57 0.397,0.046 0.697,0.122 0.917,0.216 0.493,0.21 0.98,0.513 1.476,0.91 l 2.545,2.028 -1.581,0.536 -1.933,-1.549 a 19.052,19.052 0 0 0 -1.36,-1 c -0.338,-0.22 -0.632,-0.364 -0.86,-0.418 a 1.837,1.837 0 0 0 -0.656,-0.051 c -0.152,0.012 -0.397,0.075 -0.722,0.185 l -1.463,0.506 1.45,4.218 z m 12.128,-4.64 -1.838,-3.851 -5.988,-3.567 1.462,-0.688 3.088,1.883 c 0.578,0.348 1.132,0.718 1.655,1.096 0.048,-0.606 0.122,-1.295 0.233,-2.08 l 0.485,-3.504 1.404,-0.67 -1.134,6.958 1.829,3.853 z m 9.296,-17.238 1.082,-0.767 3.355,4.745 c 0.582,0.824 0.951,1.548 1.113,2.166 0.15,0.613 0.096,1.246 -0.179,1.897 -0.264,0.643 -0.804,1.254 -1.602,1.813 -0.757,0.54 -1.486,0.852 -2.159,0.93 a 2.782,2.782 0 0 1 -1.866,-0.411 c -0.558,-0.35 -1.148,-0.958 -1.767,-1.838 l -3.344,-4.74 1.08,-0.765 3.354,4.732 c 0.499,0.718 0.937,1.196 1.314,1.436 0.363,0.247 0.774,0.346 1.235,0.304 0.445,-0.048 0.905,-0.235 1.373,-0.56 0.806,-0.572 1.241,-1.157 1.325,-1.754 0.092,-0.596 -0.234,-1.42 -0.96,-2.448 z m 8.837,5.878 -6.78,-7.422 1.004,-0.919 9.223,2.264 -5.322,-5.829 0.945,-0.86 6.775,7.422 -0.999,0.922 -9.23,-2.27 5.33,5.83 z m 7.695,-7.394 -7.403,-6.802 0.896,-0.978 7.403,6.808 z m 4.438,-5.162 -10.326,-3.098 0.878,-1.138 7.374,2.424 c 0.582,0.2 1.132,0.394 1.62,0.593 -0.34,-0.454 -0.653,-0.937 -0.959,-1.436 l -4.11,-6.625 0.848,-1.076 5.51,9.285 z m 4.083,-5.477 -8.577,-5.251 3.792,-6.2 1.014,0.618 -3.098,5.07 2.623,1.613 2.902,-4.753 1.01,0.621 -2.904,4.742 2.913,1.79 3.229,-5.267 1.008,0.616 z m 0.399,-11.863 1.218,-2.586 c 0.261,-0.553 0.402,-1.009 0.436,-1.373 0.025,-0.37 -0.04,-0.693 -0.216,-0.963 a 1.589,1.589 0 0 0 -0.697,-0.633 c -0.44,-0.197 -0.861,-0.207 -1.277,-0.022 -0.433,0.182 -0.805,0.608 -1.117,1.284 l -1.357,2.881 z m 4.527,3.594 -9.11,-4.272 1.901,-4.04 c 0.376,-0.808 0.75,-1.389 1.114,-1.731 0.36,-0.352 0.806,-0.544 1.34,-0.61 a 2.876,2.876 0 0 1 1.547,0.265 2.535,2.535 0 0 1 1.343,1.394 c 0.25,0.626 0.224,1.407 -0.07,2.336 0.303,-0.25 0.572,-0.421 0.802,-0.514 0.477,-0.199 1.036,-0.34 1.673,-0.429 l 3.223,-0.418 -0.714,1.508 -2.458,0.314 c -0.71,0.101 -1.269,0.19 -1.666,0.287 -0.39,0.09 -0.691,0.196 -0.893,0.322 -0.2,0.127 -0.368,0.27 -0.5,0.439 -0.096,0.12 -0.206,0.338 -0.354,0.644 l -0.66,1.399 4.046,1.899 z m 1.081,-10.128 0.318,-1.222 c 0.49,0.108 0.92,0.118 1.298,0.013 0.372,-0.1 0.732,-0.328 1.07,-0.699 0.343,-0.367 0.6,-0.814 0.786,-1.36 0.17,-0.476 0.25,-0.927 0.229,-1.342 -0.013,-0.412 -0.118,-0.753 -0.295,-1.019 a 1.478,1.478 0 0 0 -0.726,-0.556 1.317,1.317 0 0 0 -0.868,-0.006 c -0.278,0.091 -0.574,0.31 -0.857,0.661 -0.186,0.22 -0.54,0.732 -1.051,1.525 -0.514,0.8 -0.931,1.344 -1.232,1.628 -0.388,0.367 -0.804,0.608 -1.237,0.704 a 2.184,2.184 0 0 1 -1.292,-0.08 2.557,2.557 0 0 1 -1.209,-0.871 c -0.32,-0.417 -0.497,-0.925 -0.525,-1.524 -0.043,-0.592 0.053,-1.215 0.281,-1.856 0.244,-0.701 0.576,-1.282 0.982,-1.742 0.417,-0.46 0.886,-0.756 1.43,-0.889 a 2.969,2.969 0 0 1 1.66,0.056 l -0.331,1.23 c -0.616,-0.14 -1.147,-0.074 -1.586,0.185 -0.44,0.268 -0.776,0.765 -1.03,1.495 -0.263,0.761 -0.325,1.365 -0.158,1.805 0.152,0.446 0.426,0.735 0.82,0.874 0.348,0.114 0.668,0.094 0.967,-0.074 0.305,-0.167 0.757,-0.72 1.34,-1.662 0.586,-0.941 1.034,-1.573 1.331,-1.893 0.448,-0.464 0.92,-0.756 1.398,-0.881 a 2.52,2.52 0 0 1 1.49,0.07 c 0.503,0.177 0.93,0.487 1.275,0.933 0.343,0.444 0.542,0.978 0.605,1.614 0.059,0.625 -0.026,1.277 -0.265,1.953 -0.298,0.857 -0.664,1.538 -1.123,2.026 -0.45,0.498 -0.986,0.82 -1.602,0.972 -0.613,0.158 -1.243,0.135 -1.893,-0.068 m 6.267,-8.757 -9.703,-2.664 0.344,-1.28 9.714,2.658 z m 1.564,-6.314 -8.682,-1.827 -0.68,3.244 -1.159,-0.245 1.635,-7.799 1.168,0.247 -0.684,3.255 8.68,1.819 z"
     inkscape:label="words" />
  <g
     id="g829"
     style="display:inline"
     inkscape:label="core">
    <path
       id="pie"
       style="display:inline;fill:#008000"
       d="M 99.923,36.518 C 69.176823,35.887199 40.406708,60.868051 36.74486,91.42036 c -3.874974,26.53074 10.616065,54.79627 35.043755,66.2532 22.94129,11.38435 52.667775,7.61025 71.347745,-10.17442 18.68387,-16.94407 26.06361,-45.37071 16.90691,-69.042322 C 151.7248,55.473189 129.47095,38.136594 104.92786,36.700754 103.26285,36.573938 101.59283,36.512701 99.923,36.518 Z" />
    <path
       id="path905"
       style="display:inline;fill:#ffffff;fill-opacity:1"
       d="m 131.627,90.525 c -6.57,-2.776 -23.015,-8.008 -28.617,-1.402 6.125,-4.06 15.514,-2.661 28.049,1.977 l 3.088,3.085 c -10.715,-4 -30.868,-10.33 -32.184,1.372 l -4.355,0.006 C 96.258,83.866 76.122,90.269 65.421,94.297 l 3.085,-3.092 c 12.523,-4.682 21.902,-6.114 28.033,-2.07 -5.623,-6.586 -22.042,-1.3 -28.607,1.495 l -5.75,5.782 c 14.644,-6.27 34.134,-10.9 34.493,0.005 l 3.116,-0.008 h 3.113 c 0.322,-10.903 19.824,-6.345 34.505,-0.126 z M 111.755,63.581 c -0.242,-3.101 -3.892,-6.257 -7.073,-5.005 -1.289,-3.156 -3.166,-4.504 -4.962,-4.529 -1.8,0.033 -3.671,1.385 -4.948,4.549 -3.187,-1.246 -6.823,1.922 -7.06,5.029 -5.193,0.324 -11.722,4.903 -13.767,12.8 4.362,-2.068 15.982,-6.072 23.757,-1.404 -3.587,-4.19 -15.385,-3.037 -22.001,-0.419 1.304,-4.982 6.778,-9.6 12.304,-10.388 1.47,-3.472 3.81,-5.843 7.012,-4.706 1.436,-2.918 3.097,-4.188 4.714,-4.184 1.606,-0.009 3.262,1.254 4.706,4.17 3.211,-1.15 5.56,1.211 7.034,4.682 5.527,0.766 11.02,5.367 12.327,10.347 -6.61,-2.596 -18.413,-3.711 -21.981,0.485 7.741,-4.689 19.387,-0.725 23.752,1.334 -2.063,-7.89 -8.623,-12.452 -13.814,-12.76 M 90.96,147.988 h -5.933 v -1.13 h 2.316 v -7.853 l -2.377,0.687 v -1.203 l 3.68,-1.071 v 9.44 h 2.313 z m 2.819,-7.204 c 0,0.69 0.176,1.243 0.532,1.649 0.359,0.404 0.848,0.613 1.476,0.613 0.544,0 1.002,-0.187 1.37,-0.558 0.367,-0.375 0.557,-0.827 0.557,-1.354 0,-0.745 -0.185,-1.36 -0.556,-1.85 a 1.727,1.727 0 0 0 -1.45,-0.728 c -0.557,0 -1.02,0.21 -1.383,0.633 -0.366,0.424 -0.546,0.956 -0.546,1.595 m -0.755,5.799 a 3.588,3.588 0 0 0 1.84,0.497 c 0.93,0 1.646,-0.37 2.157,-1.098 0.511,-0.728 0.763,-1.766 0.763,-3.11 -0.006,0.007 -0.017,0.007 -0.025,0 -0.455,0.864 -1.218,1.292 -2.294,1.292 -0.865,0 -1.586,-0.295 -2.157,-0.893 -0.567,-0.593 -0.852,-1.37 -0.852,-2.327 0,-1.014 0.31,-1.846 0.934,-2.5 0.62,-0.654 1.432,-0.977 2.42,-0.977 1.032,0 1.836,0.4 2.415,1.212 0.58,0.805 0.868,1.984 0.868,3.531 0,1.909 -0.374,3.377 -1.12,4.408 -0.75,1.029 -1.784,1.541 -3.109,1.541 -0.726,0 -1.34,-0.117 -1.84,-0.352 z m 7.738,-0.326 c 0.712,0.548 1.51,0.823 2.4,0.823 0.716,0 1.274,-0.178 1.696,-0.522 0.414,-0.352 0.622,-0.82 0.622,-1.411 0,-1.308 -0.935,-1.96 -2.81,-1.96 h -0.863 v -1.085 h 0.822 c 1.662,0 2.491,-0.616 2.491,-1.846 0,-1.13 -0.634,-1.7 -1.905,-1.7 -0.727,0 -1.408,0.244 -2.052,0.735 v -1.236 c 0.678,-0.392 1.47,-0.588 2.373,-0.588 0.883,0 1.59,0.229 2.125,0.69 0.534,0.462 0.798,1.058 0.798,1.794 0,1.355 -0.684,2.225 -2.067,2.611 v 0.031 c 0.749,0.079 1.338,0.341 1.772,0.788 0.434,0.446 0.655,1.01 0.655,1.676 0,0.928 -0.338,1.677 -1.007,2.25 -0.668,0.567 -1.565,0.852 -2.677,0.852 -0.98,0 -1.77,-0.18 -2.373,-0.548 z m 12.694,-6.218 c 0,-0.468 -0.142,-0.83 -0.428,-1.095 -0.287,-0.271 -0.673,-0.404 -1.161,-0.404 -0.459,0 -0.848,0.136 -1.17,0.42 -0.32,0.276 -0.484,0.63 -0.484,1.064 0,0.866 0.538,1.52 1.608,1.973 1.088,-0.462 1.635,-1.117 1.635,-1.958 m -1.716,3.127 c -1.261,0.515 -1.894,1.258 -1.894,2.217 0,0.497 0.187,0.907 0.554,1.227 0.37,0.323 0.854,0.482 1.448,0.482 0.576,0 1.044,-0.16 1.405,-0.479 0.36,-0.32 0.538,-0.715 0.538,-1.192 0,-0.997 -0.68,-1.754 -2.05,-2.255 m -1.003,-0.624 c -1.218,-0.576 -1.83,-1.408 -1.83,-2.497 0,-0.763 0.29,-1.385 0.86,-1.863 0.572,-0.477 1.302,-0.715 2.189,-0.715 0.815,0 1.486,0.217 2.014,0.673 0.528,0.45 0.79,1.033 0.79,1.742 0,1.154 -0.632,2.033 -1.903,2.657 v 0.024 c 1.49,0.542 2.236,1.472 2.236,2.781 0,0.858 -0.309,1.544 -0.923,2.05 -0.613,0.513 -1.472,0.766 -2.57,0.766 -0.901,0 -1.635,-0.25 -2.204,-0.755 -0.567,-0.506 -0.851,-1.152 -0.851,-1.953 0,-1.321 0.73,-2.28 2.192,-2.882 z m 25.134,-43.255 c -6.56,-2.77 -25.854,-9.475 -32.34,-1.737 7.272,-5.311 19.046,-2.336 31.579,2.302 l 3.231,3.224 c -10.717,-3.996 -34.648,-11.44 -36.196,1.63 l -4.683,0.008 c -1.598,-13.068 -25.5,-5.541 -36.198,-1.508 l 3.22,-3.232 C 77.01,95.29 88.77,92.273 96.06,97.562 89.54,89.85 70.283,96.618 63.724,99.409 l -6.34,6.363 C 72.035,99.5 96.088,93.077 96.454,105.764 l 3.35,-0.008 3.357,-0.001 c 0.318,-12.689 24.391,-6.343 39.073,-0.125 z m -34.509,-12.854 -3.18,0.005 C 97.081,77.035 81.227,81.54 70.519,85.572 l 2.704,-2.71 c 9.748,-4.02 21.54,-5.8 26.548,0.6 4.98,-6.414 16.773,-4.68 26.536,-0.69 l 2.712,2.702 c -10.705,-3.995 -26.59,-8.447 -27.656,0.96 m 25.416,-4.316 c -5.336,-2.25 -20.21,-7.445 -27.014,0.202 -6.814,-7.625 -21.686,-2.378 -27.013,-0.11 l -5.521,5.528 c 14.658,-6.269 29.659,-9.133 30.014,-0.44 l 2.534,-0.014 h 2.527 c 0.324,-8.693 15.333,-5.873 30.008,0.343 z m 13.412,26.523 c -6.716,-2.626 -27.463,-10.647 -36.137,-1.951 9.17,-5.87 22.702,-1.96 35.228,2.68 l 3.525,3.517 c -10.706,-3.993 -38.225,-13.324 -40.208,1.898 l -5.556,0.009 C 95.008,99.581 67.521,108.998 56.827,113.028 l 3.52,-3.524 c 12.504,-4.683 26.035,-8.643 35.213,-2.797 -8.701,-8.673 -29.43,-0.58 -36.131,2.07 l -7.352,7.371 c 14.508,-6.412 43.33,-14.909 43.888,-0.301 l 3.852,-0.012 3.868,0.001 c 0.508,-14.612 29.355,-6.214 43.883,0.153 z m 5.256,10.409 c -6.711,-2.628 -31.198,-11.28 -41.14,-1.963 11.983,-6.542 28.05,-1.609 40.583,3.03 l 4.422,4.409 c -10.715,-3.993 -43.831,-15.798 -46.51,1.89 l -5.92,0.006 c -2.738,-17.67 -35.817,-5.756 -46.51,-1.734 l 4.404,-4.417 c 12.518,-4.68 28.562,-9.678 40.564,-3.165 -9.961,-9.289 -34.428,-0.549 -41.143,2.1 l -8.905,8.942 c 14.507,-6.42 49.108,-18.227 50.258,-0.323 l 4.298,-0.009 4.286,-0.002 c 1.094,-17.911 35.727,-6.222 50.262,0.146 z"
       inkscape:label="tree_1938" />
  </g>
</svg>
