<?xml version="1.0" encoding="UTF-8" standalone="no"?><svg xmlns="http://www.w3.org/2000/svg" width="200" height="200" viewBox="-0.2 0 200 200"><path d="M99.962 196.211c-53.135.09-96.28-42.914-96.368-96.05C3.503 47.018 46.509 3.875 99.639 3.786c53.135-.09 96.284 42.914 96.374 96.051.095 53.139-42.913 96.281-96.05 96.374M99.637.001C44.405.092-.291 44.94-.2 100.165-.106 155.395 44.75 200.091 99.97 200c55.222-.096 99.924-44.939 99.83-100.17C199.703 44.608 154.859-.091 99.638 0" fill="#00923a"/><path d="M18.155 98.507l.229 1.243c-.499.105-.892.278-1.192.527-.304.247-.528.604-.687 1.08-.153.472-.2.99-.153 1.562a3.7 3.7 0 0 0 .348 1.321c.194.37.42.638.694.806.278.16.575.229.883.202.32-.032.583-.146.802-.347.213-.208.392-.533.506-.959.08-.28.187-.892.323-1.83.131-.935.287-1.605.438-1.986.207-.502.488-.89.84-1.158.35-.27.75-.423 1.21-.468a2.6 2.6 0 0 1 1.457.296c.472.252.843.638 1.12 1.164.285.528.445 1.134.513 1.808.074.743.011 1.404-.18 1.992a2.874 2.874 0 0 1-.933 1.414 3.078 3.078 0 0 1-1.532.635l-.214-1.262c.633-.13 1.079-.404 1.375-.829.29-.42.391-1.019.317-1.792-.068-.798-.272-1.367-.6-1.706-.326-.338-.702-.491-1.112-.45a1.14 1.14 0 0 0-.853.47c-.206.28-.386.963-.523 2.066-.15 1.097-.286 1.855-.44 2.274-.212.61-.516 1.071-.897 1.388a2.5 2.5 0 0 1-1.38.548 2.746 2.746 0 0 1-1.552-.321c-.497-.263-.905-.666-1.22-1.21-.315-.544-.505-1.177-.576-1.895-.078-.903-.021-1.674.19-2.313a3.156 3.156 0 0 1 1.061-1.552c.482-.395 1.068-.637 1.738-.718M20.918 108.953c-1.19.216-2.066.71-2.642 1.48-.557.764-.758 1.634-.584 2.602.187.984.672 1.733 1.492 2.235.812.506 1.854.645 3.122.409.806-.144 1.477-.417 2.03-.798.55-.379.947-.864 1.173-1.443.241-.592.298-1.207.183-1.857-.178-.928-.643-1.666-1.402-2.214-.763-.554-1.884-.692-3.372-.414m-.226-1.354c1.642-.307 3-.102 4.101.61 1.085.71 1.754 1.759 2.02 3.153.163.912.1 1.774-.204 2.592a4.342 4.342 0 0 1-1.516 2.01c-.708.53-1.561.885-2.548 1.069-.996.187-1.928.145-2.796-.113-.86-.255-1.576-.72-2.114-1.385a4.965 4.965 0 0 1-1.057-2.29 4.776 4.776 0 0 1 .213-2.615 4.398 4.398 0 0 1 1.531-2.007c.71-.527 1.5-.86 2.37-1.024M29.633 123.369l.367 1.283-5.569 1.637c-.971.282-1.774.401-2.407.347-.638-.046-1.214-.31-1.742-.775-.535-.465-.932-1.169-1.202-2.094-.258-.907-.323-1.693-.182-2.359a2.765 2.765 0 0 1 .99-1.63c.518-.414 1.287-.777 2.31-1.073l5.574-1.64.377 1.277-5.572 1.635c-.834.245-1.425.503-1.78.78a1.783 1.783 0 0 0-.683 1.07c-.106.44-.076.935.088 1.483.275.94.681 1.554 1.228 1.825.546.274 1.422.229 2.632-.125zM22.172 132.206l8.214-3.347-1.244-3.077 1.099-.445 3.01 7.382-1.108.454-1.257-3.082-8.215 3.349zM24.646 138.04l8.852-4.782.63 1.174-3.633 1.957 2.484 4.603 3.64-1.964.618 1.173-8.836 4.779-.64-1.169 4.176-2.26-2.481-4.592-4.167 2.25zM30.697 148.578l6.475-8.139.819 1.093-4.38 5.16c-.456.544-.922 1.07-1.4 1.57 1.01-.435 1.605-.682 1.76-.748l6.6-2.51.952 1.289-3.223 4.188a26.716 26.716 0 0 1-2.387 2.753 41.99 41.99 0 0 1 2.048-.905l6.13-2.586.792 1.075-9.718 3.783-.762-1.032 4.89-6.267c.405-.53.663-.847.765-.955-.441.188-.809.34-1.136.461l-7.42 2.863zM37.998 157.867l7.114-7.096 5.134 5.149-.84.837-4.193-4.207-2.177 2.175 3.921 3.942-.834.829-3.927-3.939-2.423 2.412 4.359 4.377-.839.835zM46.521 161.752l1.06.688c-.266.432-.408.843-.44 1.23-.029.388.076.806.316 1.235.242.442.58.837 1.037 1.19a3.82 3.82 0 0 0 1.186.654c.41.119.761.131 1.073.043.309-.09.56-.256.753-.503.203-.246.29-.516.295-.813.003-.302-.12-.653-.346-1.032-.15-.247-.518-.748-1.111-1.489-.585-.742-.964-1.304-1.14-1.69-.216-.494-.308-.962-.27-1.402.053-.443.212-.845.502-1.203.307-.398.715-.68 1.215-.854.5-.167 1.04-.171 1.61-.01.58.163 1.134.45 1.67.873.585.453 1.026.954 1.327 1.495.301.54.431 1.09.378 1.644a2.994 2.994 0 0 1-.59 1.55l-1.065-.707c.345-.545.464-1.067.35-1.567-.113-.494-.473-.988-1.08-1.462-.634-.494-1.187-.741-1.661-.737-.471.003-.835.17-1.098.5a1.159 1.159 0 0 0-.238.94c.057.342.437.946 1.141 1.801.698.865 1.152 1.49 1.35 1.882.3.571.427 1.107.387 1.601-.026.497-.216.964-.546 1.388a2.78 2.78 0 0 1-1.296.905c-.53.184-1.111.202-1.724.057-.612-.148-1.201-.441-1.77-.89-.713-.56-1.229-1.13-1.55-1.718-.316-.59-.454-1.205-.4-1.84.05-.633.275-1.221.675-1.759M54.779 171.732l4.618-7.567-2.825-1.727.616-1.013 6.804 4.15-.615 1.014-2.842-1.737-4.615 7.577zM64.3 176.859l3.755-9.327 6.292 2.526-.445 1.102-5.051-2.04-1.163 2.89 4.374 1.762-.435 1.101-4.382-1.758-1.703 4.236zM74.956 175.68c-.309 1.175-.238 2.183.216 3.02.443.84 1.15 1.386 2.112 1.64.956.25 1.842.121 2.648-.397.8-.511 1.374-1.4 1.71-2.65.2-.795.248-1.518.137-2.18-.118-.662-.385-1.221-.813-1.68a3.287 3.287 0 0 0-1.605-.945c-.91-.248-1.776-.13-2.597.315-.818.456-1.431 1.415-1.808 2.877m-1.323-.368c.424-1.613 1.185-2.762 2.292-3.447 1.109-.69 2.346-.846 3.721-.49a4.904 4.904 0 0 1 2.26 1.282c.608.619.997 1.366 1.173 2.23.179.865.14 1.789-.115 2.764-.256.984-.693 1.813-1.298 2.483a4.14 4.14 0 0 1-2.155 1.325 4.961 4.961 0 0 1-2.525-.022c-.91-.236-1.672-.676-2.282-1.308a4.261 4.261 0 0 1-1.153-2.237 5.582 5.582 0 0 1 .082-2.58M85.993 177.47l2.842.36c.602.078 1.08.075 1.436-.007.352-.086.648-.25.85-.502.221-.251.339-.539.38-.858.056-.473-.054-.885-.36-1.237-.31-.343-.828-.56-1.573-.66l-3.159-.393zm-2.023 5.411l1.266-9.979 4.419.558c.892.117 1.558.289 2 .526.43.237.762.6.978 1.092.22.488.3 1.003.229 1.555a2.533 2.533 0 0 1-.91 1.704c-.522.425-1.267.646-2.238.653.325.212.57.41.734.596.34.406.65.89.92 1.47l1.4 2.938-1.659-.217-1.057-2.244c-.321-.64-.575-1.14-.785-1.49-.207-.35-.41-.6-.588-.752a2.038 2.038 0 0 0-.567-.34c-.146-.053-.389-.098-.733-.143l-1.531-.19-.558 4.428zM94.606 184.036l.056-10.06 7.272.04-.003 1.187-5.946-.033-.018 3.082 5.564.026-.005 1.183-5.56-.03-.024 3.417 6.18.044-.009 1.18zM103.71 180.765l1.242-.245c.117.497.291.892.534 1.181.262.304.628.523 1.102.67.474.154 1.004.193 1.564.128.505-.054.942-.179 1.32-.37.362-.187.621-.433.79-.709.157-.284.223-.579.178-.888a1.15 1.15 0 0 0-.36-.789c-.197-.216-.526-.378-.963-.492-.278-.079-.883-.18-1.823-.287-.945-.125-1.61-.266-2.007-.419-.504-.197-.89-.466-1.17-.817a2.227 2.227 0 0 1-.478-1.198c-.063-.51.033-.992.266-1.463a2.72 2.72 0 0 1 1.153-1.14c.522-.285 1.118-.463 1.787-.542.747-.075 1.412-.034 1.999.144.593.18 1.075.478 1.427.91.355.428.572.936.667 1.517l-1.27.24c-.128-.626-.413-1.072-.84-1.353-.432-.284-1.028-.382-1.803-.294-.789.084-1.36.297-1.689.632-.34.335-.474.702-.434 1.115.034.362.204.64.48.843.288.207.968.373 2.079.495 1.102.13 1.857.258 2.278.397.606.2 1.08.497 1.398.875.324.383.518.84.577 1.376.05.527-.04 1.048-.285 1.547-.261.507-.66.923-1.2 1.246-.545.327-1.174.53-1.888.604-.905.102-1.677.055-2.305-.147a3.204 3.204 0 0 1-1.58-1.03 3.5 3.5 0 0 1-.746-1.737M116.598 182.172l-1.902-8.658-3.24.713-.253-1.164 7.777-1.712.253 1.164-3.248.71 1.908 8.659zM122.183 174.97l2.708-.922c.574-.198 1.01-.41 1.294-.638.287-.235.467-.508.545-.827a1.653 1.653 0 0 0-.04-.94c-.161-.447-.44-.765-.868-.94-.43-.179-.998-.143-1.69.09l-3.013 1.03zm.556 5.75l-3.244-9.518 4.218-1.442c.844-.289 1.517-.421 2.022-.404.5.02.955.202 1.37.548.409.336.707.769.883 1.297.227.676.208 1.318-.071 1.933-.283.611-.854 1.131-1.725 1.57.397.046.697.122.917.216.493.21.98.513 1.476.91l2.545 2.028-1.581.536-1.933-1.549a19.052 19.052 0 0 0-1.36-1c-.338-.22-.632-.364-.86-.418a1.837 1.837 0 0 0-.656-.051c-.152.012-.397.075-.722.185l-1.463.506 1.45 4.218zM134.867 176.08l-1.838-3.851-5.988-3.567 1.462-.688 3.088 1.883c.578.348 1.132.718 1.655 1.096.048-.606.122-1.295.233-2.08l.485-3.504 1.404-.67-1.134 6.958 1.829 3.853zM144.163 158.842l1.082-.767 3.355 4.745c.582.824.951 1.548 1.113 2.166.15.613.096 1.246-.179 1.897-.264.643-.804 1.254-1.602 1.813-.757.54-1.486.852-2.159.93a2.782 2.782 0 0 1-1.866-.411c-.558-.35-1.148-.958-1.767-1.838l-3.344-4.74 1.08-.765 3.354 4.732c.499.718.937 1.196 1.314 1.436.363.247.774.346 1.235.304.445-.048.905-.235 1.373-.56.806-.572 1.241-1.157 1.325-1.754.092-.596-.234-1.42-.96-2.448zM153 164.72l-6.78-7.422 1.004-.919 9.223 2.264-5.322-5.829.945-.86 6.775 7.422-.999.922-9.23-2.27 5.33 5.83zM160.695 157.326l-7.403-6.802.896-.978 7.403 6.808zM165.133 152.164l-10.326-3.098.878-1.138 7.374 2.424c.582.2 1.132.394 1.62.593-.34-.454-.653-.937-.959-1.436l-4.11-6.625.848-1.076 5.51 9.285zM169.216 146.687l-8.577-5.251 3.792-6.2 1.014.618-3.098 5.07 2.623 1.613 2.902-4.753 1.01.621-2.904 4.742 2.913 1.79 3.229-5.267 1.008.616zM169.615 134.824l1.218-2.586c.261-.553.402-1.009.436-1.373.025-.37-.04-.693-.216-.963a1.589 1.589 0 0 0-.697-.633c-.44-.197-.861-.207-1.277-.022-.433.182-.805.608-1.117 1.284l-1.357 2.881zm4.527 3.594l-9.11-4.272 1.901-4.04c.376-.808.75-1.389 1.114-1.731.36-.352.806-.544 1.34-.61a2.876 2.876 0 0 1 1.547.265 2.535 2.535 0 0 1 1.343 1.394c.25.626.224 1.407-.07 2.336.303-.25.572-.421.802-.514.477-.199 1.036-.34 1.673-.429l3.223-.418-.714 1.508-2.458.314c-.71.101-1.269.19-1.666.287-.39.09-.691.196-.893.322-.2.127-.368.27-.5.439-.096.12-.206.338-.354.644l-.66 1.399 4.046 1.899zM175.223 128.29l.318-1.222c.49.108.92.118 1.298.013.372-.1.732-.328 1.07-.699.343-.367.6-.814.786-1.36.17-.476.25-.927.229-1.342-.013-.412-.118-.753-.295-1.019a1.478 1.478 0 0 0-.726-.556 1.317 1.317 0 0 0-.868-.006c-.278.091-.574.31-.857.661-.186.22-.54.732-1.051 1.525-.514.8-.931 1.344-1.232 1.628-.388.367-.804.608-1.237.704a2.184 2.184 0 0 1-1.292-.08 2.557 2.557 0 0 1-1.209-.871c-.32-.417-.497-.925-.525-1.524-.043-.592.053-1.215.281-1.856.244-.701.576-1.282.982-1.742.417-.46.886-.756 1.43-.889a2.969 2.969 0 0 1 1.66.056l-.331 1.23c-.616-.14-1.147-.074-1.586.185-.44.268-.776.765-1.03 1.495-.263.761-.325 1.365-.158 1.805.152.446.426.735.82.874.348.114.668.094.967-.074.305-.167.757-.72 1.34-1.662.586-.941 1.034-1.573 1.331-1.893.448-.464.92-.756 1.398-.881a2.52 2.52 0 0 1 1.49.07c.503.177.93.487 1.275.933.343.444.542.978.605 1.614.059.625-.026 1.277-.265 1.953-.298.857-.664 1.538-1.123 2.026-.45.498-.986.82-1.602.972-.613.158-1.243.135-1.893-.068M181.49 119.533l-9.703-2.664.344-1.28 9.714 2.658zM183.054 113.219l-8.682-1.827-.68 3.244-1.159-.245 1.635-7.799 1.168.247-.684 3.255 8.68 1.819z" fill="#00923a"/><path d="M184.63 104.222l-4.225-.545-6.239 3.1.204-1.598 3.258-1.582a28.14 28.14 0 0 1 1.818-.795 31.647 31.647 0 0 1-1.627-1.317l-2.676-2.307.19-1.535 5.24 4.71 4.22.55zM99.923 36.518c-35.248.06-63.791 28.687-63.733 63.947.067 35.256 28.693 63.791 63.947 63.73 35.263-.056 63.796-28.689 63.732-63.943-.055-35.263-28.685-63.792-63.946-63.734M77.772 26.85c1.274-1.73 2.464-3.198 3.462-4.79.29-.462.145-1.293.006-1.913-.647-2.883-1.393-5.745-2.029-8.63-.157-.714-.637-1.667.41-2.116.415-.178 1.16-.18 1.452.08.602.536 1.493 1.02 1.175 2.142-.128.454-.179.978-.085 1.432.233 1.144.562 2.268.866 3.397.092.332.235.653.353.977.137.019.273.034.409.051.376-1.11.752-2.22 1.113-3.293.718.437 1.145 1.683.764 2.85-.26.792-.56 1.592-.985 2.305-1.34 2.242-.752 4.279.309 6.448.727 1.49 1.493 1.873 3.03 1.286.543-.208 1.372.082 1.97.363.359.17.524.756.777 1.155-.426.211-.85.59-1.28.599-.755.015-1.513-.212-2.272-.307-1.273-.16-1.41.01-1.103 1.293.223.925.485 1.84.643 2.776.046.264-.16.783-.343.833-.394.105-1.066.14-1.237-.087-.4-.53-.597-1.221-.829-1.868-.273-.758-.576-1.297-1.478-.652-.287.206-.667.314-1.019.38-.409.077-.835.057-1.255.082.033-.49-.08-1.053.125-1.453.445-.87 1.047-1.661 1.592-2.48.647-.967.432-1.974.051-2.933-.312-.78-.91-.546-1.286-.082-.547.678-.987 1.442-1.439 2.19-.34.56-.528 1.24-.953 1.715-.955 1.073-.676 2.123-.18 3.244.231.528.51 1.098.503 1.646-.003.403-.354 1.006-.696 1.14-.289.113-.817-.285-1.19-.532-.218-.142-.339-.43-.62-.814-.315.663-.522 1.198-.813 1.683-.328.55-.658 1.129-1.115 1.561-.683.646-1.417.463-1.87-.401-.499-.953-.599-1.91-.05-2.924.694-1.282 1.325-2.597 1.94-3.92.72-1.541.624-2.321-.37-3.315-.424.302-.828.677-1.304.91-.74.362-1.511.683-2.303.905-.275.077-.783-.097-.934-.324-.125-.187.018-.707.214-.928.553-.62 1.149-1.218 1.805-1.72 1.431-1.095 2.064-2.351 1.317-4.16-.486-1.176-.746-2.443-1.167-3.65-.284-.807-.034-1.25.744-1.497 1.927-.608 3.05.068 3.326 2.044.106.765.305 1.177 1.068.496.58-.517.832-.104 1.011.401.442 1.243.008 2.397-.495 3.482-.732 1.575-.635 3.063.265 4.924M154.535 44.372c-.714.15-1.2.168-1.617.352-2.144.95-4.2.457-6.139-.49-.97-.474-1.77-1.324-2.592-2.066-.191-.171-.16-.59-.231-.897.308-.023.65-.146.914-.05 1.263.458 2.475 1.056 3.755 1.441.767.234 1.627.172 2.442.243.022-.125.037-.252.057-.377-1.093-.441-2.368-.664-3.227-1.383-.906-.758-.894-2.097-.889-3.58 1.17.71 2.07 1.338 3.046 1.823 1.096.548 2.225 1.082 3.403 1.39.587.154 1.488.004 1.935-.376 1.582-1.348 3.029-2.86 4.539-4.292.228-.213.61-.531.787-.462.281.108.555.473.65.785.656 2.144.306 3.196-1.463 4.543-.419.315-.887.562-1.319.856-.66.446-.536.838.127 1.12.375.158.832.163 1.167.37.517.32 1.078.682 1.394 1.172.198.305-.017.878-.05 1.332-.418-.07-.87-.056-1.25-.22-1.254-.546-2.467-1.185-3.722-1.725-.669-.289-1.129-.014-1.08.76.116 1.824.237 3.65.425 5.468.133 1.285 1.073 2.089 1.94 2.92.3.285.564.61.762 1.019-2.017-.189-3.676-1.157-5.233-2.255-.396-.279-.6-1.191-.497-1.74.18-.972.677-1.885 1.015-2.831.307-.862.582-1.737.95-2.85M25.666 76.07c.383 1.097.805 2.068 1.046 3.082.125.53-.014 1.15-.148 1.702-.06.236-.396.538-.63.562-.204.023-.598-.285-.64-.495-.386-2.002-1.737-2.712-3.59-2.853-.192-.014-.365-.315-.546-.483.202-.2.405-.403.612-.6.017-.018.067.002.1-.007.704-.174 2.018-.367 2.013-.526-.028-1.042-.11-2.213-.619-3.08-.567-.967-1.61-1.653-2.435-2.474-.275-.273-.51-.585-.762-.878.443-.314.85-.723 1.341-.908.388-.145.88-.017 1.44-.008 1.512 1.752 3.123 3.628 4.76 5.481.127.145.44.128.635.178.338-.522.544-1.157.976-1.42.42-.256 1.072-.13 1.698-.35-3.29-2.027-5.054-5.703-8.53-7.632.05-.816.39-1.144 1.235-.72a65.854 65.854 0 0 1 5.219 2.896c1.52.942 2.98 1.993 4.397 3.085.437.336.886.963.892 1.463.007.423-.528 1.021-.972 1.257-2.461 1.308-2.478 1.277-2.292 4.014.017.241.005.491.065.721.192.73.201 1.41-.6 1.76-.584.257-1.66-.36-2.103-.972-.662-.917-1.413-1.768-2.14-2.634-.071-.088-.24-.096-.422-.16M17.133 78.155c-.173-.521-.417-1.032-.51-1.57-.359-2.069-.805-4.138-.963-6.225-.159-2.078-.094-4.186.042-6.268.062-.962 1.39-1.804 2.358-1.744.802.051.64.721.63 1.19-.022.958-.25 1.921-.184 2.87.114 1.64.42 3.263.591 4.9.22 2.11.284 4.204-1.189 5.987-.106.13-.143.315-.225.468-.063.118-.145.223-.22.334zM26.032 84.978c2.09-.39 3.926.456 6.173.03-.454-.366-.907-.732-1.36-1.095.208-.162.418-.32.625-.483.749.585 1.516 1.148 2.22 1.78.093.082-.056.678-.228.766-.714.355-1.523.928-2.222.838-1.549-.196-3.056-.733-4.57-1.164-.186-.056-.31-.318-.638-.672" fill="#00923a"/><path d="M44.727 41.175c.536-.168.858-.363 1.162-.338.3.026.77.218.836.437.202.667.35 1.386.322 2.078-.041 1.04.434 2.265 1.376 2.452 1.265.252 2.651.686 3.733-.568.169-.195.386-.358.609-.488 1.655-.967 1.588-1.354.32-2.8-1.787-2.042-3.65-4.018-5.468-6.036-.798-.886-1.206-.866-1.627.278-.474 1.29-.834 2.626-1.217 3.95-.076.26-.03.557-.046 1.035m-3.66-6.163c.19-.499.283-.792.411-1.072.153-.332.258-.756.522-.95.33-.243.902-.509 1.195-.378.724.325.516 1.006.37 1.659-.35 1.578-.682 3.163-.904 4.763-.066.475.253 1.005.397 1.51l.367-.011c.284-1.085.551-2.174.854-3.253.482-1.716.777-3.483 1.967-4.95.704-.866 1.362-.919 2.043-.215 1.348 1.393 2.624 2.855 3.907 4.31 1.458 1.65 2.872 3.337 4.337 4.98 1.098 1.232.993 2.597-.396 3.479-1.55.986-3.181 1.81-5.063 1.967-.147.012-.315.02-.435.092-.264.16-.505.36-.755.542.22.252.398.627.674.73.819.303 1.297.79 1.081 1.677-.196.806-1.323 1.351-2.158 1.137-.357-.091-.758-.09-1.07-.26-.254-.137-.43-.45-.59-.716-.102-.165-.113-.384-.165-.58-.186.072-.376.137-.556.223-.272.13-.537.274-.803.413-.062-.343-.144-.681-.18-1.026-.152-1.473-.277-2.946-.453-4.415-.03-.257-.244-.493-.412-.814-.693.554-.77 1.078-.443 1.746.718 1.465.521 1.847-.992 2.34-.349.117-.65.44-.923.716-.293.293-.53.64-.789.965-.094-.045-.187-.091-.28-.138.217-1.028.467-2.05.637-3.088.167-1.01.372-2.06-.423-2.723-.85 1.334-1.655 2.683-2.563 3.958-.23.323-.783.52-1.21.562-.342.036-.891-.16-1.03-.421-.13-.247.047-.817.279-1.067 1.507-1.626 1.975-3.6 2.256-5.726.204-1.547-.669-2.45-1.51-3.416-.612-.7-1.339-1.3-1.995-1.96-.459-.46-.374-.894.05-1.37 1.284-1.437 2.933-1.42 4.095.07.135.17.295.322.655.71M41.92 52.472c1.404.096 2.783.074 4.11.318.865.16 1.048.978.82 1.802-.29 1.065-1.055 1.654-1.892 1.48-.795-.166-2.875-2.491-3.037-3.6M179.294 74.942c-.087.189-.17.377-.26.566.442.257.862.599 1.334.74.249.072.6-.214.906-.339-.01-.114-.018-.23-.029-.346l-1.951-.62m-1.739 2.72c1.197 1.382 2.105 2.727 3.814 3.168.282-1.278-1.75-3.03-3.814-3.168m.735-1.132c-.815-.838-1.606-1.698-2.446-2.509a98.019 98.019 0 0 0-3.334-3.07c-.198-.177-.583-.126-.843-.255-.427-.215-.817-.491-1.219-.741.216-.353.36-.8.666-1.04 1.198-.94 2.17-.833 2.828.405.457.86 1.064.916 1.808.687.874-.269 1.722-.62 2.585-.925.197-.07.41-.11.62-.163.417.889-.352 1.12-.738 1.47-.362.328-.78.463-.49 1.12.086.196-.408.649-.65.998.577.651.665.639 1.868-.23.47.51.869 1.07 1.394 1.459.29.214.793.145 1.306.054-.905-.914-1.819-1.745-1.79-3.304.27-.365.788-1.081 1.466-.67.285.172.017 1.256-.003 2.175.625.622.764.59 2.32-.885.091.124.232.23.258.362.32 1.474.911 1.985 2.429 2.056.376.017.755.022 1.135.019.34-.003.679-.023 1.03-.037.236.785.285 1.55-.44 1.905-.448.22-1.126.133-1.65-.003-.599-.155-1.142-.519-1.71-.788-.772-.366-1.168-.117-1.152.757-.352.126-.721.256-1.085.387.812.133 1.604.897 2.4-.027.112-.13.808.242 1.234.381-.213.249-.398.67-.65.712-.607.097-1.244-.013-1.865.018-.78.04-1.558.136-2.34.209-.004.105-.008.211-.015.318.13.11.24.278.39.326 1.772.566 3.552 1.117 5.33 1.667.21.065.436.153.646.134.335-.032.78-.046.953-.254.128-.156-.057-.626-.181-.922-.18-.437-.446-.839-.64-1.27-.06-.141-.002-.334.002-.504.164.038.408.021.473.122.614.937 1.303 1.845 1.761 2.858.371.812.04 1.233-.847 1.215a13.27 13.27 0 0 1-2.79-.34c-1.316-.318-2.594-.778-3.895-1.155-.183-.054-.4.017-.604.031.03.204.01.437.099.608.254.468.528.936.846 1.36.48.638.478 1.5-.054 1.93-.672.549-1.811.458-2.291-.202-1.524-2.075-3.034-4.156-4.561-6.23-.062-.084-.196-.117-.5-.284.078.48.179.79.17 1.097-.022.458-.121.914-.184 1.37-.417-.143-.86-.239-1.242-.446-.392-.211-.727-.532-1.084-.806l-.31.206c.318.715.593 1.451.963 2.137.42.775.936 1.496 1.384 2.257.122.211.262.523.19.709a1.877 1.877 0 0 1-.652.83c-.083.057-.539-.245-.671-.472a101.242 101.242 0 0 1-2.389-4.19c-.244-.453-.506-.6-.977-.428-.948.346-1.887.735-2.858 1.005-.81.227-1.66.338-2.5.434-.137.017-.441-.297-.449-.468-.025-.527-.012-1.072.105-1.584.262-1.192.591-2.37.906-3.553.062-.231.18-.45.269-.673.113-.015.227-.032.338-.048.09.338.236.673.249 1.015.026.691-.037 1.385-.04 2.076-.004.632.291.927.958.818.683-.11 1.374-.165 2.06-.26.877-.124 1.062-.589.551-1.302-.749-1.047-1.482-2.104-2.226-3.153a1.802 1.802 0 0 0-.312-.346c-1.103-.89-1.215-1.534-.612-2.762.33-.67.746-.724 1.12-.177a47.825 47.825 0 0 1 2.237 3.579c.508.901.845 1.9 1.366 2.794.172.292.684.383 1.043.565.077-.344.176-.687.23-1.036.066-.435.098-.877.143-1.315.49.106 1.055.096 1.456.346.852.528 1.6 1.222 2.432 1.786.302.204.72.229 1.085.337.065-.093.127-.186.187-.277M180.798 68.332c2.13.16 3.998.28 5.858.48.19.02.491.553.459.814-.082.647-1.157 1.348-1.748 1.113-1.394-.559-2.753-1.213-4.12-1.845-.121-.055-.188-.228-.449-.562M121.364 31.136c1.454.413 2.564.495 2.872 1.985.082.39.154.398.014.764-.12.317-.488 1.038-.797 1.154-.145.054-.445-.115-.594-.386a37.313 37.313 0 0 1-1.267-2.506c-.112-.24-.123-.528-.228-1.011" fill="#00923a"/><path d="M124.224 16.07c-.766.403-.945.987-1.53.804 0 0-.403-.765.361-1.167.766-.403 1.933-.04 1.17.363m-1.054 5.941c.62.781-2.932 2.486-2.733 1.25-.047-.872 2.704-1.705 2.733-1.25m6.211-3.167c-1.079-.296-2.9-.674-4.094-1.045 1.091-.662 2.893-1.064 4.1-.903.699.094 1.27-.054 1.453-.79.178-.714-.174-1.211-.872-1.404-.637-.174-1.338-.408-1.15-1.047.083-.3.584-.767.533-1.08-.078-.473.009-.67-.36-1.396-.618-.223-.713.687-.937 1.102-.621 1.157-1.354 2.162-2.72 2.458-.317.068-1.236-.01-1.574-.039.032-.369.3-.968.43-1.296.592-1.467.476-2.065-1.085-2.361-.262-.051-.753.188-.86.423-.327.702-.515 1.47-.758 2.212-.228.689-.631 1.115-1.431 1.052-1.158-.094-2.175.004-3.336-.045-.268-.012-.813-.153-.916.01-.145.225-.2.714-.054.875.394.437.906 1.051 1.383 1.065.819.022 1.683-.272 2.446-.614.425-.19.698-.383.945.084.275.533-.741 2.202-1.34 2.306-2.04.355-4.064.538-6.014-.419a1.515 1.515 0 0 0-.47-.123c-.708-.096-1.119.295-.87.915.559 1.391 1.47 2.125 2.666 1.929 1.212-.2 2.78-.57 4.007-.658.758-.056.571.577.275 1.288-.195.464-.352 1.104-.184 1.528.412 1.028.479.959-.625 1.35-.303.108-.589.484-.708.804-.054.145.244.531.498.676.526.307.707.071.804.605-2.453.235-2.478.51-2.637.56-.266.08-.525.453-.528.635-.008.34.16.77.403 1.004.26.249.77.187 1.147.269.297.063.743-.382 1.152.304-1.257 1.065-2.26 1.433-3.352 1.66-1.044.219-1.987.327-3.005.63-.355.106-.656.78-.745 1.218-.05.225.308.381.614.568.795.488 1.598-.04 2.313-.436.673-.37 1.118-.728 1.86-.97.67.69 1.162.44.89 2.425-.124.698.043 1.155.861 1.33.672.144 1.44-.242 1.65-.973.334-1.146.438-1.483.643-3.007.545-3.964.554-3.333 3.29-3.115.284.023.723-.22.85-.465.128-.245-.34-.956-.495-1.221-.194-.33-1.405-.22-1.752-.545.381-.175 1.89-.386 2.114-.622.305-.325.823-.745.78-1.106-.093-.769.331-.99.86-1.192 1.095-.42 1.568-1.095 1.443-2.206-.023-.2-.229-.494-.41-.544-.907-.253-1.817-.47-2.75.036-.475.258-1.037.401-1.574.488-.256.041-.556-.173-.832-.272-.334-.562-.2-.888.079-.984.443-.15.963-.108 1.451-.101 1.436.02 3.103-.704 4.803.833.5.451 1.028.873 1.553 1.294.706.568 1.243.172 1.415-.638.268-1.253-.056-1.983-1.273-2.319" fill="#00923a"/><path d="M145.447 119.05c-6.711-2.628-31.198-11.28-41.14-1.963 11.983-6.542 28.05-1.609 40.583 3.03l4.422 4.409c-10.715-3.993-43.831-15.798-46.51 1.89l-5.92.006c-2.738-17.67-35.817-5.756-46.51-1.734l4.404-4.417c12.518-4.68 28.562-9.678 40.564-3.165-9.961-9.289-34.428-.549-41.143 2.1l-8.905 8.942c14.507-6.42 49.108-18.227 50.258-.323l4.298-.009 4.286-.002c1.094-17.911 35.727-6.222 50.262.146z" fill="#fff"/><path d="M140.191 108.641c-6.716-2.626-27.463-10.647-36.137-1.951 9.17-5.87 22.702-1.96 35.228 2.68l3.525 3.517c-10.706-3.993-38.225-13.324-40.208 1.898l-5.556.009c-2.035-15.213-29.522-5.796-40.216-1.766l3.52-3.524c12.504-4.683 26.035-8.643 35.213-2.797-8.701-8.673-29.43-.58-36.131 2.07l-7.352 7.371c14.508-6.412 43.33-14.909 43.888-.301l3.852-.012 3.868.001c.508-14.612 29.355-6.214 43.883.153z" fill="#fff"/><path d="M135.872 99.287c-6.56-2.77-25.854-9.475-32.34-1.737 7.272-5.311 19.046-2.336 31.579 2.302l3.231 3.224c-10.717-3.996-34.648-11.44-36.196 1.63l-4.683.008c-1.598-13.068-25.5-5.541-36.198-1.508l3.22-3.232C77.01 95.29 88.77 92.273 96.06 97.562c-6.52-7.712-25.777-.944-32.336 1.847l-6.34 6.363c14.651-6.272 38.704-12.695 39.07-.008l3.35-.008 3.357-.001c.318-12.689 24.391-6.343 39.073-.125zM101.363 86.433l-3.18.005c-1.102-9.403-16.956-4.898-27.664-.866l2.704-2.71c9.748-4.02 21.54-5.8 26.548.6 4.98-6.414 16.773-4.68 26.536-.69l2.712 2.702c-10.705-3.995-26.59-8.447-27.656.96m25.416-4.316c-5.336-2.25-20.21-7.445-27.014.202-6.814-7.625-21.686-2.378-27.013-.11l-5.521 5.528c14.658-6.269 29.659-9.133 30.014-.44l2.534-.014h2.527c.324-8.693 15.333-5.873 30.008.343z" fill="#fff"/><path d="M131.627 90.525c-6.57-2.776-23.015-8.008-28.617-1.402 6.125-4.06 15.514-2.661 28.049 1.977l3.088 3.085c-10.715-4-30.868-10.33-32.184 1.372l-4.355.006c-1.35-11.697-21.486-5.294-32.187-1.266l3.085-3.092c12.523-4.682 21.902-6.114 28.033-2.07-5.623-6.586-22.042-1.3-28.607 1.495l-5.75 5.782c14.644-6.27 34.134-10.9 34.493.005l3.116-.008h3.113c.322-10.903 19.824-6.345 34.505-.126zM111.755 63.581c-.242-3.101-3.892-6.257-7.073-5.005-1.289-3.156-3.166-4.504-4.962-4.529-1.8.033-3.671 1.385-4.948 4.549-3.187-1.246-6.823 1.922-7.06 5.029-5.193.324-11.722 4.903-13.767 12.8 4.362-2.068 15.982-6.072 23.757-1.404-3.587-4.19-15.385-3.037-22.001-.419 1.304-4.982 6.778-9.6 12.304-10.388 1.47-3.472 3.81-5.843 7.012-4.706 1.436-2.918 3.097-4.188 4.714-4.184 1.606-.009 3.262 1.254 4.706 4.17 3.211-1.15 5.56 1.211 7.034 4.682 5.527.766 11.02 5.367 12.327 10.347-6.61-2.596-18.413-3.711-21.981.485 7.741-4.689 19.387-.725 23.752 1.334-2.063-7.89-8.623-12.452-13.814-12.76M90.96 147.988h-5.933v-1.13h2.316v-7.853l-2.377.687v-1.203l3.68-1.071v9.44h2.313zM93.779 140.784c0 .69.176 1.243.532 1.649.359.404.848.613 1.476.613.544 0 1.002-.187 1.37-.558.367-.375.557-.827.557-1.354 0-.745-.185-1.36-.556-1.85a1.727 1.727 0 0 0-1.45-.728c-.557 0-1.02.21-1.383.633-.366.424-.546.956-.546 1.595m-.755 5.799a3.588 3.588 0 0 0 1.84.497c.93 0 1.646-.37 2.157-1.098.511-.728.763-1.766.763-3.11-.006.007-.017.007-.025 0-.455.864-1.218 1.292-2.294 1.292-.865 0-1.586-.295-2.157-.893-.567-.593-.852-1.37-.852-2.327 0-1.014.31-1.846.934-2.5.62-.654 1.432-.977 2.42-.977 1.032 0 1.836.4 2.415 1.212.58.805.868 1.984.868 3.531 0 1.909-.374 3.377-1.12 4.408-.75 1.029-1.784 1.541-3.109 1.541-.726 0-1.34-.117-1.84-.352zM100.762 146.257c.712.548 1.51.823 2.4.823.716 0 1.274-.178 1.696-.522.414-.352.622-.82.622-1.411 0-1.308-.935-1.96-2.81-1.96h-.863v-1.085h.822c1.662 0 2.491-.616 2.491-1.846 0-1.13-.634-1.7-1.905-1.7-.727 0-1.408.244-2.052.735v-1.236c.678-.392 1.47-.588 2.373-.588.883 0 1.59.229 2.125.69.534.462.798 1.058.798 1.794 0 1.355-.684 2.225-2.067 2.611v.031c.749.079 1.338.341 1.772.788.434.446.655 1.01.655 1.676 0 .928-.338 1.677-1.007 2.25-.668.567-1.565.852-2.677.852-.98 0-1.77-.18-2.373-.548zM113.456 140.039c0-.468-.142-.83-.428-1.095-.287-.271-.673-.404-1.161-.404-.459 0-.848.136-1.17.42-.32.276-.484.63-.484 1.064 0 .866.538 1.52 1.608 1.973 1.088-.462 1.635-1.117 1.635-1.958m-1.716 3.127c-1.261.515-1.894 1.258-1.894 2.217 0 .497.187.907.554 1.227.37.323.854.482 1.448.482.576 0 1.044-.16 1.405-.479.36-.32.538-.715.538-1.192 0-.997-.68-1.754-2.05-2.255m-1.003-.624c-1.218-.576-1.83-1.408-1.83-2.497 0-.763.29-1.385.86-1.863.572-.477 1.302-.715 2.189-.715.815 0 1.486.217 2.014.673.528.45.79 1.033.79 1.742 0 1.154-.632 2.033-1.903 2.657v.024c1.49.542 2.236 1.472 2.236 2.781 0 .858-.309 1.544-.923 2.05-.613.513-1.472.766-2.57.766-.901 0-1.635-.25-2.204-.755-.567-.506-.851-1.152-.851-1.953 0-1.321.73-2.28 2.192-2.882z" fill="#fff"/></svg>